<svg id="Brain" xmlns="http://www.w3.org/2000/svg" viewBox="0 0 322.28 377.65">
  <title>brain</title>
  <g>
    <path d="M960.09,3372.34l0.37-1.7s0.8-4.44,1.65-11.91l0.06,0.07c1,1.12,77.44-192.59-9.82-167,0,0-4.33-36.71-57.72-48.44-74.61-16.4-83.43,51.51-126.42-6.47,0,0-14.59,53.41,30.63,86.14-8.07,10.84-14.15,23.47-18.74,36.46-8.6-2.08-15.44-6.77-20.5.83-6.27,9.43,2.62,17.13,13.92,21.91-1.61,6.91-2.87,13.7-3.86,20.14,0,0,16.21,15,52.72,8.78-17.93,26-55,13.16-55,13.16l-1.26,25-0.17,5.28v-0.32c-43.76,103-63.62,3.82-63.62,3.82l-1.72.6a57.12,57.12,0,0,1,1.15-7.16c1-4.49,4.21-10.22.32-12.18-3.57-1.81-6.3,3-7.22,1.34-3-5.31-7.82-11.14-15-8.93-6.16,1.89-8.81,6.55-7.85,13.58,1.06,7.75,4.72,10.26,8.25,20.52l-1.82.64c28.81,98.16,77.31,52,85.8,43l-1.78,56.71H939.51l15.24-69.47c44.63,57.86-31.49,93.1-31.49,93.1l1.24,1.75c-5.11,1-18.57,5-12.17,16.65,7.27,13.27,22.15,1.9,24.2.25l1.42,2C1036.73,3447.86,967.12,3378.92,960.09,3372.34Z" transform="translate(-671.81 -3136.86)" style="fill: #363f43"/>
    <g>
      <g id="uX9SFw">
        <path d="M890.17,3190h4.66a0.47,0.47,0,0,0,.15.09c0.82,0.11,1.65.18,2.47,0.32a24.47,24.47,0,0,1,6.2,2,23.37,23.37,0,0,1,4.71,3c0.54-.2,1-0.42,1.55-0.59a20.23,20.23,0,0,1,8.12-1.11c1.24,0.1,2.49.21,3.71,0.41a23.91,23.91,0,0,1,7.43,2.62,24.35,24.35,0,0,1,7,5.57,22.75,22.75,0,0,1,2.59,3.69,0.63,0.63,0,0,0,.36.25,22.12,22.12,0,0,1,5.5,2.05,51.3,51.3,0,0,1,4.45,2.88,23.72,23.72,0,0,1,5.11,5.14,25.21,25.21,0,0,1,3,5.06,21.44,21.44,0,0,1,2,8.59,0.64,0.64,0,0,0,.35.59c1.31,0.92,2.68,1.78,3.9,2.82a17,17,0,0,1,3.4,4,15.11,15.11,0,0,1,2.5,8.56,1.77,1.77,0,0,0,.2.8c0.69,1.39,1.48,2.73,2.1,4.15a21.93,21.93,0,0,1,1.81,7.68,26.67,26.67,0,0,1-.16,5.58,22.59,22.59,0,0,1-1.82,6.25,4.43,4.43,0,0,0-.5,1.32c-0.18,1.59-.21,3.2-0.44,4.77a19.11,19.11,0,0,1-1.68,5.31,17.91,17.91,0,0,1-5.6,7,13.73,13.73,0,0,1-4.54,2.28c-1,.27-2,0.47-3,0.7,0,0.44.13,0.9,0.14,1.37a22.32,22.32,0,0,1-.29,4.4,18.49,18.49,0,0,1-4.42,9.12,22.51,22.51,0,0,1-7,5.37,27.93,27.93,0,0,1-6.38,2.24,26.09,26.09,0,0,1-5.52.69c-1.59,0-3.19-.06-4.77-0.21a23.76,23.76,0,0,1-3.66-.62c-1.5-.38-3-0.93-4.45-1.35a1.61,1.61,0,0,0-1.05.13,21.61,21.61,0,0,1-27.17-6.61,2.3,2.3,0,0,0-.74-0.66,21.26,21.26,0,0,1-10-10.75c-0.49-1.16-.84-2.38-1.27-3.62a2.77,2.77,0,0,0-.34,0c-1.19.13-2.37,0.33-3.56,0.38a24.44,24.44,0,0,1-5.31-.28c-1.81-.32-3.64-0.52-5.42-0.95a36.17,36.17,0,0,1-9.45-3.62,25.67,25.67,0,0,1-7.49-6.36,21.86,21.86,0,0,1-3.74-6.78c-0.61-1.86-1.09-3.76-1.64-5.69-0.8,0-1.68.06-2.55,0a29.26,29.26,0,0,1-4-.51,16.18,16.18,0,0,1-9.22-5.5,13.7,13.7,0,0,1-2.74-5.23,1,1,0,0,0-.39-0.52,14.69,14.69,0,0,1-4.23-3.84,13.63,13.63,0,0,1-2.36-4.82c-0.19-.74-0.34-1.49-0.5-2.24q0-1.82,0-3.65a17.3,17.3,0,0,1,.43-2.14,3.29,3.29,0,0,0,0-2.39,3.15,3.15,0,0,1-.12-0.63l-0.3-1.62v-4.05c0.07-.47.12-0.94,0.21-1.4a24.77,24.77,0,0,1,2.82-7.73,26.09,26.09,0,0,1,5.62-6.77,23.74,23.74,0,0,1,5.55-3.62,1.23,1.23,0,0,0,.45-0.38c0.67-.92,1.32-1.86,2-2.78a23.37,23.37,0,0,1,4.64-4.61,25.41,25.41,0,0,1,6.53-3.72,22.84,22.84,0,0,1,7.16-1.5A1.47,1.47,0,0,0,852,3198a33.35,33.35,0,0,1,8.64-4.58,34.19,34.19,0,0,1,7.08-1.84,49.66,49.66,0,0,1,5-.57c2-.06,4,0.06,6,0.19,1.1,0.07,2.19.34,3.29,0.47a2.13,2.13,0,0,0,1.19.05,21.28,21.28,0,0,1,5.28-1.46C889,3190.19,889.59,3190.06,890.17,3190Z" transform="translate(-671.81 -3136.86)" style="fill: #fff8a1"/>
      </g>
      <g id="lightbulb">
        <g>
          <rect x="218.5" y="144.5" width="21.99" height="4.71" style="fill: #363f43"/>
          <rect x="218.5" y="151.44" width="21.99" height="4.71" style="fill: #363f43"/>
          <path d="M895,3299.94h12.56a4.71,4.71,0,0,0,4.71-4.71h-22A4.71,4.71,0,0,0,895,3299.94Z" transform="translate(-671.81 -3136.86)" style="fill: #363f43"/>
          <path d="M926.52,3246.3c0,11.46-14.62,32.84-14.62,32.84H890.06s-14.62-20.49-14.62-32.84A25.54,25.54,0,1,1,926.52,3246.3Z" transform="translate(-671.81 -3136.86)" style="fill: #ffde17"/>
          <path d="M889,3248.78a0.78,0.78,0,1,0-1.22,1,5.33,5.33,0,0,0,.47.5l8.33,25.41a0.78,0.78,0,1,0,1.48-.49l-7.69-23.48a8.63,8.63,0,0,0,6.11.72,4.85,4.85,0,0,0,1.12-.52,6,6,0,0,0,3.28,1,6.11,6.11,0,0,0,3.81-1.28,8.69,8.69,0,0,0,2,.74,8.21,8.21,0,0,0,5.72-.37l-7.61,23.2a0.78,0.78,0,0,0,.5,1,0.76,0.76,0,0,0,.25,0,0.78,0.78,0,0,0,.74-0.54l8.34-25.45c0.07-.08.15-0.15,0.22-0.24a0.78,0.78,0,1,0-1.23-1c-1.51,1.93-3.72,2.54-6.55,1.82a7.8,7.8,0,0,1-1.26-.44,4.16,4.16,0,0,0,.67-2.43c-0.07-1.7-.65-2.94-1.58-3.42a1.61,1.61,0,0,0-1.66.09c-0.82.55-1.22,1.79-1.1,3.42a4,4,0,0,0,1.24,2.58,4.82,4.82,0,0,1-4.57.15,5.19,5.19,0,0,0,.89-2.74,3.51,3.51,0,0,0-1.25-3.28,1.71,1.71,0,0,0-1.78,0c-0.89.5-1.37,1.7-1.35,3.29a4.5,4.5,0,0,0,1.07,2.79l-0.36.14A7.5,7.5,0,0,1,889,3248.78Zm15.07-2.84,0,0,0,0c0.23,0.12.67,0.7,0.73,2.09a2.62,2.62,0,0,1-.42,1.52A2.94,2.94,0,0,1,904.08,3245.94Zm-6.67.14,0.08,0a0.21,0.21,0,0,1,.1,0,2.11,2.11,0,0,1,.51,1.87,3.66,3.66,0,0,1-.54,1.84,2.93,2.93,0,0,1-.71-1.81A2.21,2.21,0,0,1,897.41,3246.08Z" transform="translate(-671.81 -3136.86)" style="fill: #363f43"/>
        </g>
        <rect x="184.84" y="106.28" width="16.77" height="5.58" rx="2.79" ry="2.79" style="fill: #ffde17"/>
        <rect x="256.73" y="106.28" width="16.77" height="5.58" rx="2.79" ry="2.79" style="fill: #ffde17"/>
        <rect x="867.06" y="3218.87" width="16.77" height="5.58" rx="2.79" ry="2.79" transform="translate(1862.66 -2812.29) rotate(45)" style="fill: #ffde17"/>
        <rect x="918.14" y="3218.87" width="16.77" height="5.58" rx="2.79" ry="2.79" transform="translate(-2678.5 -1538.1) rotate(-45)" style="fill: #ffde17"/>
        <rect x="892.6" y="3207.39" width="16.77" height="5.58" rx="2.79" ry="2.79" transform="translate(3439.36 -827.65) rotate(90)" style="fill: #ffde17"/>
      </g>
    </g>
  </g>
</svg>
