<svg id="Voice" xmlns="http://www.w3.org/2000/svg" viewBox="0 0 248.15 304.02">
  <title>comments</title>
  <g>
    <path id="comment" d="M757.93,2245.84c-19.78,9.73-41.42.76-41.42,0.76l-0.42.19a43.35,43.35,0,1,1,19.06-16.44l-0.35.55S737,2241.53,757.93,2245.84Z" transform="translate(-509.78 -2022.22)" style="fill: #fff"/>
    <path id="comment-2" data-name="comment" d="M658.67,2258.41c-14.55,16.56-38,16.56-38,16.56l-0.32.34a43.35,43.35,0,1,1,11.31-22.48l-0.12.64S637.69,2262.44,658.67,2258.41Z" transform="translate(-509.78 -2022.22)" style="fill: #fff"/>
    <path id="comment-3" data-name="comment" d="M585.43,2183.69c-9.71,11.06-25.36,11.06-25.36,11.06l-0.21.23a29,29,0,1,1,7.56-15l-0.08.43S571.42,2186.38,585.43,2183.69Z" transform="translate(-509.78 -2022.22)" style="fill: #fff"/>
    <path id="comment-4" data-name="comment" d="M689.33,2143.54c-29.18,14.36-61.13,1.12-61.13,1.12l-0.62.28a64,64,0,1,1,28.12-24.26l-0.52.81S658.46,2137.19,689.33,2143.54Z" transform="translate(-509.78 -2022.22)" style="fill: #fff"/>
    <path id="comment-5" data-name="comment" d="M747.08,2144.67c-16.31,1.16-28.68-11-28.68-11h-0.34a32.16,32.16,0,1,1,17.69-6l-0.4.28S733.9,2135.86,747.08,2144.67Z" transform="translate(-509.78 -2022.22)" style="fill: #fff"/>
    <path id="comment-6" data-name="comment" d="M643.49,2202.74c-9.24.66-16.25-6.26-16.25-6.26H627a18.23,18.23,0,1,1,10-3.38l-0.22.16S636,2197.75,643.49,2202.74Z" transform="translate(-509.78 -2022.22)" style="fill: #fff"/>
    <path id="comment-7" data-name="comment" d="M665.75,2301.74c-3,8.78-12.06,12.56-12.06,12.56l-0.07.18a18.23,18.23,0,1,1,.76-10.55l0.06,0.27S658.26,2306.69,665.75,2301.74Z" transform="translate(-509.78 -2022.22)" style="fill: #fff"/>
    <path id="comment-8" data-name="comment" d="M754.89,2267.72c0.66,9.24-6.26,16.25-6.26,16.25v0.19a18.23,18.23,0,1,1-3.38-10l0.16,0.22S749.9,2275.18,754.89,2267.72Z" transform="translate(-509.78 -2022.22)" style="fill: #fff"/>
  </g>
</svg>
