<svg id="Flags" xmlns="http://www.w3.org/2000/svg" viewBox="0 0 68.66 64.69">
  <title>flag</title>
  <g>
    <rect x="174.09" y="3580.27" width="5.65" height="8.1" transform="translate(-2400.1 2703.45) rotate(-134.87)" style="fill: #ffe900"/>
    <path d="M180.32,3584.05a9.35,9.35,0,0,1-2.9-11.7c0.83-1.62,1.68-3,7-11.18,2.43-3.74,4.78-8.07,4.18-15.07s0.07-8.12.4-8.61,1.27-.07,2.28,2.66c1.26,3.39,4.65,5,7.58,12.28s-6.09,12.32-10,16.11,0.89-1.12-2.59,2.43-6.17,5.57-6,7.08a10,10,0,0,1,.56,4.18C180.66,3584.45,180.32,3584.05,180.32,3584.05Z" transform="translate(-161.47 -3534.89)" style="fill: #ffe900"/>
    <path d="M177.59,3573.23c2.66-5.81,6.55-5.49,10.07-11.29,2.29-3.77,3.29-13.52,7.23-20.79,4.78-8.81,4.6-7.16,5.7-2.14,0.73,3.31.46,6.06,2.95,9,3.4,4,7.31,2.4,8,5.85s0.69,8.93-2.88,10.43-7.54,2.07-10.73,5.09-3.58,2.88-6.18,6.79,5.69-3.84.74,0.83-6.77,6.61-9.3,6.42-2.67.49-4.13-.71C177.08,3581.1,175.71,3577.33,177.59,3573.23Z" transform="translate(-161.47 -3534.89)" style="fill: gold"/>
    <path d="M183.53,3578.81a75.72,75.72,0,0,1,18.3-10.11c9.75-3.47,17.07-2.77,19.48-6.2s2.11-3.49-3.71-3.87a17.26,17.26,0,0,1-10.53-4c-3.62-3.18-8.49-.77-10.42,4.52s-4.93,8.55-11.53,11.92-7.37,7.83-5.84,9.47S183.53,3578.81,183.53,3578.81Z" transform="translate(-161.47 -3534.89)" style="fill: #ffe900"/>
    <circle cx="169.7" cy="3591.36" r="8.23" transform="translate(-3583.51 217.87) rotate(-89.87)" style="fill: gold"/>
    <path d="M177.89,3581.54a7,7,0,0,0,6.2,3.59,7.15,7.15,0,0,0,4.33-1.46s1.67-1.3,9.83-5.28,18.11-4,23.52-5.56a12.07,12.07,0,0,0,8.25-7.21c0.95-2.19-4.65.61-7.91,0.32s-2.6,0-9.37-2.73-25.8,11.71-29.21,15.6c-1.64,1.87-2.91,2.81-4.25,1.78C177.56,3579.28,177.89,3581.54,177.89,3581.54Z" transform="translate(-161.47 -3534.89)" style="fill: gold"/>
  </g>
</svg>
