<svg id="Heart" xmlns="http://www.w3.org/2000/svg" viewBox="0 0 322.28 377.65">
  <title>heart</title>
  <g>
    <path d="M960.09,4435.26l0.37-1.7s0.8-4.44,1.65-11.91l0.06,0.07c1,1.12,77.44-192.59-9.82-167,0,0-4.33-36.71-57.72-48.44-74.61-16.4-83.43,51.51-126.42-6.47,0,0-14.59,53.41,30.63,86.14-8.07,10.84-14.15,23.47-18.74,36.46-8.6-2.08-15.44-6.77-20.5.83-6.27,9.43,2.62,17.13,13.92,21.91-1.61,6.91-2.87,13.7-3.86,20.14,0,0,16.21,15,52.72,8.78-17.93,26-55,13.16-55,13.16l-1.26,25-0.17,5.28v-0.32c-43.76,103-63.62,3.82-63.62,3.82l-1.72.6a57.13,57.13,0,0,1,1.15-7.16c1-4.49,4.21-10.22.32-12.18-3.57-1.81-6.3,3-7.22,1.34-3-5.31-7.82-11.14-15-8.93-6.16,1.9-8.81,6.55-7.85,13.58,1.06,7.75,4.72,10.26,8.25,20.52l-1.82.64c28.81,98.16,77.31,52,85.8,43l-1.78,56.71H939.51l15.24-69.47c44.63,57.86-31.49,93.1-31.49,93.1l1.24,1.75c-5.11,1-18.57,5-12.17,16.64,7.27,13.27,22.15,1.9,24.2.25l1.42,2C1036.73,4510.78,967.12,4441.85,960.09,4435.26Z" transform="translate(-671.81 -4199.78)" style="fill: #363f43"/>
    <path id="heart-2" data-name="heart" d="M888.54,4434.66a19,19,0,0,1,33.22,12.51c0,18.35-33.22,40.27-33.22,40.27s-33.22-21.92-33.22-40.27a19,19,0,0,1,33.22-12.51" transform="translate(-671.81 -4199.78)" style="fill: #ff4338"/>
  </g>
</svg>
