<svg id="Players" xmlns="http://www.w3.org/2000/svg" viewBox="0 0 52.06 53.15">
  <title>heinz</title>
  <g>
    <path d="M602.79,2505.67h8.53v-0.74a23.09,23.09,0,1,0-44.51,8.63l5.17,5.64h4.63a8,8,0,0,1,5,2.87c2,2.54,5.85,5.18,12.35,4.85s5.92-10.66,5.92-10.66v-0.62" transform="translate(-565.14 -2481.84)" style="fill: #fff"/>
    <path d="M591.17,2514.42a2.87,2.87,0,1,1-2.87-2.87,2.87,2.87,0,0,1,2.87,2.87" transform="translate(-565.14 -2481.84)" style="fill: #c4480a"/>
    <path d="M592.15,2516.26a2.57,2.57,0,0,1-.14-3.84l2.14-2.11a20,20,0,0,1,4.58-3.21l0.46-.22a15.06,15.06,0,0,1,5.4-1.21h6.83c1.56,0,3.13.73,3.5,1.62s-0.61,1.6-2.18,1.59l-8-.09a2.81,2.81,0,0,0-2.84,2.81v6.24a2,2,0,0,1-2.7,2l-1.95-.62a16.85,16.85,0,0,1-4.86-2.71Z" transform="translate(-565.14 -2481.84)" style="fill: none;stroke: #c4480a;stroke-miterlimit: 10;stroke-width: 3.2260000705719px"/>
    <path d="M601.91,2519.51v5.39a5.79,5.79,0,0,0,2.39,4.36l5.81,3.71a2.45,2.45,0,0,0,3.62-1,23.15,23.15,0,0,0,1.86-9.65l-13.09-5a4.12,4.12,0,0,1-2.65-3.37,6.07,6.07,0,0,0-1.84-4l-1.84-1.62" transform="translate(-565.14 -2481.84)" style="fill: none;stroke: #c4480a;stroke-miterlimit: 10;stroke-width: 3.2260000705719px"/>
    <polyline points="36.62 23.82 36.77 26.91 34.53 29.92" style="fill: none;stroke: #c4480a;stroke-miterlimit: 10;stroke-width: 3.2260000705719px"/>
    <line x1="40.15" y1="26.95" x2="40.15" y2="36.5" style="fill: none;stroke: #c4480a;stroke-miterlimit: 10;stroke-width: 3.2260000705719px"/>
    <path d="M585.43,2521.61a0.94,0.94,0,1,1-.94-0.94,0.94,0.94,0,0,1,.94.94" transform="translate(-565.14 -2481.84)" style="fill: #dcdec6"/>
    <path d="M594.26,2522.93a0.94,0.94,0,1,1-.94-0.94,0.94,0.94,0,0,1,.94.94" transform="translate(-565.14 -2481.84)" style="fill: #dcdec6"/>
    <polygon points="10.95 11.32 11.37 13.79 9.55 14.73 11.37 18.73 33.54 18.73 34.8 14.25 33.12 12.76 30.76 10.34 19.09 9.19 10.95 11.32" style="fill: #fff"/>
    <path d="M587.3,2501.25H575.63l-0.09,0a0.39,0.39,0,0,1-.15-0.1,1.05,1.05,0,0,1-.17-0.29c0-.2-0.13-0.4-0.19-0.6s-0.06-.21-0.09-0.32l-0.08-.26-0.06-.19-0.08-.29-0.06-.21-0.09-.27,0-.17-0.14-.48-0.12-.44-0.12-.38-0.09-.35-0.06-.2a2.57,2.57,0,0,0-.09-0.3,1.32,1.32,0,0,1-.06-0.22s0-.1,0-0.15a0.39,0.39,0,0,1,0-.24,0.41,0.41,0,0,1,.3-0.23l0.3-.09,0.09,0,0.18,0,0.19-.05,0.23-.06,0.29-.08a0.57,0.57,0,0,0,.34-0.22,0.26,0.26,0,0,0,0-.17,3.18,3.18,0,0,0-.06-0.32c0-.11-0.05-0.22-0.08-0.32l-0.12-.39-0.07-.25s0-.08,0-0.12a1.15,1.15,0,0,1-.05-0.25,0.45,0.45,0,0,1,.16-0.38,1.86,1.86,0,0,1,.49-0.26l0.48-.18,0.39-.14,0.46-.16,0.37-.11,0.29-.1,0.29-.07,0.2-.06,0.27-.08,0.2-.05,0.4-.11,0.36-.08,0.21-.06,0.21,0,0.27-.07,0.23,0,0.15,0,0.46-.11,0.28,0,0.49-.1,0.29,0,0.36-.06,0.17,0,0.45-.06,0.36-.06,0.2,0,0.54-.06,0.37,0,0.41,0h0.23l0.45,0,0.46,0H588l0.45,0,0.59,0,0.31,0h0.16l0.45,0,0.25,0a1.13,1.13,0,0,1,.26,0,0.71,0.71,0,0,0,.17,0l0.27,0h0.19l0.33,0.05h0.1l0.28,0,0.15,0,0.42,0.06,0.29,0.06,0.18,0,0.5,0.08,0.23,0,0.16,0,0.33,0.07,0.26,0,0.26,0.07,0.52,0.12,0.2,0.06,0.47,0.11,0.29,0.09,0.32,0.09,0.3,0.1,0.24,0.07,0.27,0.09,0.3,0.1,0.21,0.08,0.37,0.13,0.22,0.09,0.26,0.09,0.2,0.08,0.23,0.09a0.59,0.59,0,0,1,.36.29,0.56,0.56,0,0,1,0,.26,2.75,2.75,0,0,1-.09.37l-0.12.42c0,0.1,0,.21-0.08.31s-0.05.19-.08,0.28a0.74,0.74,0,0,0,0,.31,0.32,0.32,0,0,0,.22.23l0.12,0,0.47,0.13,0.34,0.09c0.18,0.05.36,0.09,0.53,0.15a0.73,0.73,0,0,1,.24.15,0.29,0.29,0,0,1,.09.23,1.54,1.54,0,0,1,0,.27c0,0.12-.06.23-0.09,0.35l-0.08.26-0.1.33-0.1.33-0.17.58-0.13.42-0.07.26-0.16.56-0.09.32-0.15.52-0.17.6c0,0.11-.07.22-0.11,0.32a0.44,0.44,0,0,1-.09.14,0.39,0.39,0,0,1-.27.13H587.3m-5.84-5h0.33a0.14,0.14,0,0,1,.17.17c0,0.16-.07.31-0.12,0.46l-0.17.57c0,0.14-.08.29-0.11,0.43s-0.06.27-.09,0.41,0,0.21,0,.32a2.58,2.58,0,0,0,0,.33,0.41,0.41,0,0,0,.05.19,0.36,0.36,0,0,0,.32.16,1.86,1.86,0,0,0,.5,0l0.21,0,0.38-.13a0.9,0.9,0,0,0,.37-0.24,0.2,0.2,0,0,0,.06-0.23,0.29,0.29,0,0,0-.11-0.11,0.3,0.3,0,0,1-.16-0.3c0-.06,0-0.12,0-0.18s0-.36.09-0.53,0.13-.53.2-0.79,0.08-.29.13-0.43l0.11-.34,0.09-.31,0.13-.43,0.09-.28,0.07-.22c0-.1.06-0.19,0.1-0.29l0.2-.51,0.13-.32,0.14-.31,0.13-.28a0.15,0.15,0,0,0-.05-0.21l-0.14,0h-0.8a1.55,1.55,0,0,0-.31,0,0.6,0.6,0,0,0-.38.36c-0.06.14-.12,0.28-0.17,0.43l-0.07.2-0.1.34-0.08.25-0.06.23-0.08.26-0.09.32c0,0.09-.06.18-0.09,0.27a0.24,0.24,0,0,1-.19.17l-0.41,0H581.3a0.29,0.29,0,0,1-.14,0,0.14,0.14,0,0,1-.05-0.11,1.58,1.58,0,0,1,.06-0.22l0.12-.43,0.13-.46c0-.11.05-0.22,0.08-0.33l0-.17c0-.07,0-0.14.06-0.22s0-.24.08-0.35a1.56,1.56,0,0,0,.06-0.41,0.21,0.21,0,0,0-.17-0.2l-0.32,0h-0.75l-0.48,0h-0.3l-0.27,0-0.27,0c-0.2,0-.4.06-0.6,0.11a4.7,4.7,0,0,0-.45.17,1.57,1.57,0,0,0-.46.31,1.19,1.19,0,0,0-.27.34,1.15,1.15,0,0,0-.12.29,2.14,2.14,0,0,0,0,.38,3.21,3.21,0,0,0,0,.38,1.14,1.14,0,0,0,0,.23c0,0.14.08,0.27,0.12,0.4a2.34,2.34,0,0,0,.12.26,0.42,0.42,0,0,0,.44.25l0.1,0a1.5,1.5,0,0,0,.53-0.16,0.2,0.2,0,0,0,.1-0.27,3.25,3.25,0,0,1-.15-0.39,2.22,2.22,0,0,1-.14-0.71,3.57,3.57,0,0,1,0-.4,0.69,0.69,0,0,1,.07-0.21,1.78,1.78,0,0,1,.18-0.29,0.78,0.78,0,0,1,.33-0.22,1.59,1.59,0,0,1,.46-0.11,1.55,1.55,0,0,1,.53,0,0.21,0.21,0,0,1,.18.24c0,0.12,0,.25,0,0.37a2.38,2.38,0,0,1,0,.25c0,0.12-.06.24-0.09,0.36l-0.13.51-0.08.27-0.12.42-0.21.68-0.11.33-0.13.35c-0.07.21-.14,0.42-0.23,0.63s-0.17.38-.26,0.57a1.28,1.28,0,0,1-.32.43,0.59,0.59,0,0,1-.58.17,1.23,1.23,0,0,1-.49-0.28A1.45,1.45,0,0,1,577,2498a2,2,0,0,1-.15-0.53,3.81,3.81,0,0,1,0-.5c0-.14,0-0.28,0-0.43s0,0,0-.05a1.47,1.47,0,0,0,0-.18,0.09,0.09,0,0,0-.1-0.09,1.29,1.29,0,0,0-.27,0,2.67,2.67,0,0,0-.74.35,0.46,0.46,0,0,0-.23.4,3.69,3.69,0,0,0,0,.5,3.89,3.89,0,0,0,.09.45,2.34,2.34,0,0,0,.25.59,1.94,1.94,0,0,0,.64.7,1.18,1.18,0,0,0,.54.18,1.85,1.85,0,0,0,.49,0,6,6,0,0,0,.71-0.18,5.73,5.73,0,0,0,.64-0.25c0.21-.1.42-0.21,0.62-0.32a2.27,2.27,0,0,0,.58-0.47,2.07,2.07,0,0,0,.36-0.59c0.08-.18.14-0.37,0.21-0.55s0.12-.39.18-0.58a0.18,0.18,0,0,1,.13-0.14l0.21,0h0.27m10.9,3.06v0h0.15c0.15,0,.3,0,0.44-0.07l0.5-.15a0.64,0.64,0,0,0,.28-0.19,0.18,0.18,0,0,0,0-.26,0.84,0.84,0,0,0-.14-0.1,0.25,0.25,0,0,1-.13-0.18,0.75,0.75,0,0,1,0-.25c0.06-.25.12-0.5,0.2-0.74s0.23-.62.34-0.93,0.21-.62.3-0.93a0.9,0.9,0,0,0,0-.53,0.64,0.64,0,0,0-.11-0.21,0.56,0.56,0,0,0-.48-0.18,1.89,1.89,0,0,0-.45.07,4.11,4.11,0,0,0-.78.33,2.54,2.54,0,0,1-.39.14,0.08,0.08,0,0,1-.11-0.09c0-.07,0-0.14,0-0.22a0.18,0.18,0,0,0-.16-0.19,2.57,2.57,0,0,0-.39,0,2.79,2.79,0,0,0-.36.1c-0.22.07-.44,0.14-0.65,0.22a1,1,0,0,0-.25.16,0.15,0.15,0,0,0,0,.23l0.09,0.09a0.27,0.27,0,0,1,.13.2,1.77,1.77,0,0,1,0,.31c0,0.15-.08.3-0.12,0.45l-0.23.75c-0.08.24-.16,0.48-0.23,0.73s-0.13.44-.18,0.67a1.52,1.52,0,0,0-.06.53,0.26,0.26,0,0,0,.24.22,1.65,1.65,0,0,0,.58-0.08,2.57,2.57,0,0,0,.54-0.22,0.24,0.24,0,0,0,.13-0.19c0-.19.06-0.38,0.1-0.57s0.08-.37.13-0.55,0.09-.31.13-0.46a7.4,7.4,0,0,1,.32-0.94,1.47,1.47,0,0,1,.48-0.66,0.55,0.55,0,0,1,.3-0.11,0.2,0.2,0,0,1,.23.18,0.77,0.77,0,0,1,0,.34c-0.06.24-.14,0.47-0.21,0.71s-0.2.57-.28,0.85-0.16.6-.24,0.9a1.33,1.33,0,0,0,0,.42,0.34,0.34,0,0,0,.2.34,1.63,1.63,0,0,0,.28.06m3.44-4.7h0l-0.2,0a1.24,1.24,0,0,0-.29.09,1,1,0,0,0-.4.46c-0.08.15-.14,0.31-0.2,0.46a0.61,0.61,0,0,0-.05.31,0.08,0.08,0,0,0,.11.07l0.09,0a1.53,1.53,0,0,1,.5-0.1,4.77,4.77,0,0,1,.49,0H596l0.2,0a0.08,0.08,0,0,1,.06.11,1.65,1.65,0,0,1-.15.26c-0.15.18-.31,0.36-0.47,0.54l-0.39.44-0.54.6-0.14.16-0.29.35a1.76,1.76,0,0,0-.28.43,0.36,0.36,0,0,0,0,.17,0.23,0.23,0,0,0,.21.2c0.19,0,.39.05,0.59,0.07h0.42c0.56,0,1.11,0,1.67,0l0.4,0,0.29-.06a0.93,0.93,0,0,0,.43-0.33c0.12-.15.24-0.3,0.35-0.46s0.32-.48.47-0.72a1.91,1.91,0,0,0,.16-0.36,1.41,1.41,0,0,0,.08-0.35,0.66,0.66,0,0,0-.14-0.44,0.73,0.73,0,0,0-.58-0.31h-0.09a0.3,0.3,0,0,0-.19.09c-0.06.08-.12,0.15-0.17,0.23a2,2,0,0,0-.14.25,0.09,0.09,0,0,0,.05.13l0.16,0a0.66,0.66,0,0,1,.39.27,0.39,0.39,0,0,1,.05.32,0.5,0.5,0,0,1-.38.35,3.08,3.08,0,0,1-.55.1c-0.27,0-.53,0-0.8,0a3.67,3.67,0,0,1-.73,0l-0.16,0a0.07,0.07,0,0,1,0-.1,1.22,1.22,0,0,1,.11-0.24c0.16-.23.33-0.45,0.5-0.67l0.28-.33,0.42-.51,0.31-.4,0.36-.5a2.38,2.38,0,0,0,.16-0.29,0.13,0.13,0,0,0-.09-0.2l-0.21,0c-0.18,0-.37,0-0.55-0.05H595.8m-10,3.7a0.68,0.68,0,0,1-.36-0.08,0.43,0.43,0,0,1-.26-0.36,1.73,1.73,0,0,1,0-.55q0-.17.08-0.34a0.12,0.12,0,0,1,.06-0.07l0.15,0c0.15,0,.31-0.07.46-0.12a5.48,5.48,0,0,0,.51-0.2,1.88,1.88,0,0,0,.54-0.35,1.49,1.49,0,0,0,.32-0.38,1.78,1.78,0,0,0,.2-0.59,0.71,0.71,0,0,0,0-.37,0.52,0.52,0,0,0-.45-0.32,1.9,1.9,0,0,0-.64,0,4.64,4.64,0,0,0-.69.19,3.56,3.56,0,0,0-.73.35,2,2,0,0,0-.46.39,2.91,2.91,0,0,0-.42.72,4.5,4.5,0,0,0-.31,1,7.64,7.64,0,0,0-.1.77,1.66,1.66,0,0,0,.08.64,0.85,0.85,0,0,0,.34.46,1,1,0,0,0,.54.16h0.38l0.25,0,0.5-.12a2,2,0,0,0,.36-0.14,1.84,1.84,0,0,0,.51-0.38,0.82,0.82,0,0,0,.18-0.29,0.15,0.15,0,0,0-.18-0.2l-0.24.06a1.89,1.89,0,0,1-.62.12m1.65,1v0l0.35-.06,0.54-.15,0.29-.11,0.28-.15a0.2,0.2,0,0,0,0-.35,0.29,0.29,0,0,1-.14-0.25,2,2,0,0,1,0-.39c0.06-.24.13-0.47,0.2-0.7s0.18-.54.27-0.82,0.15-.43.21-0.65,0.13-.43.19-0.65a0.61,0.61,0,0,0,0-.23,0.21,0.21,0,0,0-.18-0.19,0.69,0.69,0,0,0-.21,0l-0.54.1a2.69,2.69,0,0,0-.31.1,2.22,2.22,0,0,0-.49.22,0.21,0.21,0,0,0-.05.36,0.33,0.33,0,0,1,.11.31c0,0.12,0,.24-0.08.35s-0.11.34-.17,0.51l-0.26.75c-0.06.19-.13,0.38-0.19,0.57s-0.1.36-.15,0.54a1.72,1.72,0,0,0-.07.58,0.31,0.31,0,0,0,.16.27,0.39,0.39,0,0,0,.24,0m2.37-6.61a1.82,1.82,0,0,0-.67.17,0.79,0.79,0,0,0-.36.28,1.18,1.18,0,0,0-.19.68,0.29,0.29,0,0,0,.22.29,0.63,0.63,0,0,0,.29,0,2.13,2.13,0,0,0,.56-0.18,0.79,0.79,0,0,0,.34-0.33,1.72,1.72,0,0,0,.16-0.51,0.33,0.33,0,0,0-.16-0.36,0.69,0.69,0,0,0-.2,0" transform="translate(-565.14 -2481.84)" style="fill: #e50e01"/>
    <path d="M585.59,2496.41c-0.11,0-.12,0-0.1-0.1a2.89,2.89,0,0,1,.27-0.71,1.36,1.36,0,0,1,.29-0.38,0.19,0.19,0,0,1,.23,0,0.19,0.19,0,0,1,.07.21,3.06,3.06,0,0,1-.13.45,1.06,1.06,0,0,1-.4.52,0.35,0.35,0,0,1-.22.07" transform="translate(-565.14 -2481.84)" style="fill: #e50e01"/>
  </g>
</svg>
