<svg id="Players" xmlns="http://www.w3.org/2000/svg" viewBox="0 0 52.06 53.15">
  <title>jeep</title>
  <g>
    <path d="M764.92,2505.67h8.53v-0.74a23.09,23.09,0,1,0-44.51,8.63l5.17,5.64h4.63a8,8,0,0,1,5,2.87c2,2.54,5.85,5.18,12.35,4.85s5.92-10.66,5.92-10.66v-0.62" transform="translate(-727.27 -2481.84)" style="fill: #485f2b"/>
    <path d="M753.3,2514.42a2.87,2.87,0,1,1-2.87-2.87,2.87,2.87,0,0,1,2.87,2.87" transform="translate(-727.27 -2481.84)" style="fill: #c4480a"/>
    <path d="M754.28,2516.26a2.57,2.57,0,0,1-.14-3.84l2.14-2.11a20,20,0,0,1,4.58-3.21l0.46-.22a15.06,15.06,0,0,1,5.4-1.21h6.83c1.56,0,3.14.73,3.5,1.62s-0.61,1.6-2.18,1.59l-8-.09a2.81,2.81,0,0,0-2.84,2.81v6.24a2,2,0,0,1-2.7,2l-1.95-.62a16.85,16.85,0,0,1-4.86-2.71Z" transform="translate(-727.27 -2481.84)" style="fill: none;stroke: #c4480a;stroke-miterlimit: 10;stroke-width: 3.2260000705719px"/>
    <path d="M764,2519.51v5.39a5.79,5.79,0,0,0,2.39,4.36l5.81,3.71a2.45,2.45,0,0,0,3.62-1,23.15,23.15,0,0,0,1.86-9.65l-13.09-5a4.12,4.12,0,0,1-2.65-3.37,6.07,6.07,0,0,0-1.84-4l-1.84-1.62" transform="translate(-727.27 -2481.84)" style="fill: none;stroke: #c4480a;stroke-miterlimit: 10;stroke-width: 3.2260000705719px"/>
    <polyline points="36.62 23.82 36.77 26.91 34.53 29.92" style="fill: none;stroke: #c4480a;stroke-miterlimit: 10;stroke-width: 3.2260000705719px"/>
    <line x1="40.15" y1="26.95" x2="40.15" y2="36.5" style="fill: none;stroke: #c4480a;stroke-miterlimit: 10;stroke-width: 3.2260000705719px"/>
    <path d="M747.56,2521.61a0.94,0.94,0,1,1-.94-0.94,0.94,0.94,0,0,1,.94.94" transform="translate(-727.27 -2481.84)" style="fill: #dcdec6"/>
    <path d="M756.39,2522.93a0.94,0.94,0,1,1-.94-0.94,0.94,0.94,0,0,1,.94.94" transform="translate(-727.27 -2481.84)" style="fill: #dcdec6"/>
    <path d="M759.72,2502.78h-2.19c0-.07,0-8.55,0-8.75h2.18v0.11c0,0.1,0,.21,0,0.31a0.55,0.55,0,0,0,0,.14,0.08,0.08,0,0,0,.14.05,0.71,0.71,0,0,0,.13-0.12,1.85,1.85,0,0,1,1.13-.63,2.62,2.62,0,0,1,2.37.7,2.82,2.82,0,0,1,.72,1.18,4.28,4.28,0,0,1,.2,1,6,6,0,0,1,0,1,4.4,4.4,0,0,1-.45,1.75,2.66,2.66,0,0,1-1,1.1,2.49,2.49,0,0,1-1.33.35,2.92,2.92,0,0,1-1.17-.23,1.46,1.46,0,0,1-.5-0.33,0.36,0.36,0,0,0-.13-0.09,0.1,0.1,0,0,0-.14.08,0.64,0.64,0,0,0,0,.1q0,1.11,0,2.22v0.12Zm1.21-3.42a1,1,0,0,0,1-.61,1.88,1.88,0,0,0,.16-0.47,4.8,4.8,0,0,0,.05-1.52,1.76,1.76,0,0,0-.17-0.58,1,1,0,0,0-.69-0.56,1.54,1.54,0,0,0-.62,0,1,1,0,0,0-.52.25,1.31,1.31,0,0,0-.33.5,2.58,2.58,0,0,0-.17.8,5.77,5.77,0,0,0,0,1,2,2,0,0,0,.19.68,1,1,0,0,0,.62.51,1.48,1.48,0,0,0,.43.06" transform="translate(-727.27 -2481.84)" style="fill: #fff"/>
    <path d="M735.62,2496.29h2.28s0,0.07,0,.1q0,0.5,0,1a1.38,1.38,0,0,0,.22.78,1.2,1.2,0,0,0,.86.54,1.7,1.7,0,0,0,.88-0.09,1.12,1.12,0,0,0,.74-0.92,1.66,1.66,0,0,0,0-.28q0-3,0-6.09v-0.12c0.07,0,2.19,0,2.36,0,0,0,0,.06,0,0.1v1c0,1.72,0,3.43,0,5.15a3.38,3.38,0,0,1-.47,1.76,2.81,2.81,0,0,1-1.33,1.14,4.3,4.3,0,0,1-1.28.32,6.49,6.49,0,0,1-1.14,0,4.45,4.45,0,0,1-1.48-.33,2.61,2.61,0,0,1-1.55-1.86,4,4,0,0,1-.11-1v-1.22Z" transform="translate(-727.27 -2481.84)" style="fill: #fff"/>
    <path d="M750,2497.76h-4.37a0.15,0.15,0,0,0,0,0,2,2,0,0,0,.11.75,1,1,0,0,0,.89.67,1.38,1.38,0,0,0,.49,0,1.05,1.05,0,0,0,.67-0.5,0.13,0.13,0,0,1,.13-0.07H750a0.9,0.9,0,0,1,0,.34,2,2,0,0,1-.48.79,3.32,3.32,0,0,1-1.5.89,4.25,4.25,0,0,1-1.42.16,3.53,3.53,0,0,1-1.22-.26,3,3,0,0,1-1.67-1.77,3.8,3.8,0,0,1-.21-1.68,4.37,4.37,0,0,1,.48-1.69,3,3,0,0,1,1.08-1.2,2.79,2.79,0,0,1,1.44-.42,4.89,4.89,0,0,1,1.37.14,2.7,2.7,0,0,1,1.21.65,2.82,2.82,0,0,1,.66,1,4.77,4.77,0,0,1,.28,1.14,8.07,8.07,0,0,1,.06.94s0,0.06,0,.1m-2.09-1.33a1.33,1.33,0,0,0,0-.4,1.06,1.06,0,0,0-.72-0.79,1.33,1.33,0,0,0-.66,0,0.88,0.88,0,0,0-.7.59,1.46,1.46,0,0,0-.1.52s0,0.07,0,.11h2.23Z" transform="translate(-727.27 -2481.84)" style="fill: #fff"/>
    <path d="M757,2497.76h-4.38a0.24,0.24,0,0,0,0,.05,2.19,2.19,0,0,0,.12.75,1,1,0,0,0,.86.66,1.35,1.35,0,0,0,.57,0,1.06,1.06,0,0,0,.61-0.49,0.12,0.12,0,0,1,.12-0.07H757a1.12,1.12,0,0,1,0,.31,1.91,1.91,0,0,1-.44.76,3.28,3.28,0,0,1-1.54.94,4.22,4.22,0,0,1-1.42.16,3.55,3.55,0,0,1-1.24-.27,3,3,0,0,1-1.53-1.48,3.67,3.67,0,0,1-.35-1.8,4.25,4.25,0,0,1,.64-2.12,2.83,2.83,0,0,1,1.43-1.18,2.78,2.78,0,0,1,.84-0.17,4.91,4.91,0,0,1,1.48.14,2.63,2.63,0,0,1,1.86,1.67,4.47,4.47,0,0,1,.28,1.17c0,0.28,0,.57.06,0.85,0,0,0,.09,0,0.14m-2.09-1.33a1.11,1.11,0,0,0,0-.37,1.06,1.06,0,0,0-.78-0.83,1.33,1.33,0,0,0-.66,0,0.88,0.88,0,0,0-.62.51,1.38,1.38,0,0,0-.12.43c0,0.09,0,.17,0,0.27h2.23Z" transform="translate(-727.27 -2481.84)" style="fill: #fff"/>
  </g>
</svg>
