<svg id="Background" xmlns="http://www.w3.org/2000/svg" viewBox="0 0 267.83 52.01"><defs><style>.cls-1{fill:#fff;}.cls-2{fill:#00b1b0;}.cls-3{fill:none;}.cls-4{fill:#4b63ae;}</style></defs><title>logo</title><path class="cls-1" d="M110.9,76.44c0.09-1.83.16-3.25,0.16-5.81V61.84a41.22,41.22,0,0,0-.63-7.9H116c0,1.61-.16,3.85-0.16,6.38v8.22a70.83,70.83,0,0,0,.63,7.9H110.9Z" transform="translate(-42.52 -42.52)"/><path class="cls-1" d="M128.78,73.5c2.69,0,4-1.9,4-4.74,0-3.19-1.74-5.44-4.23-5.44-2.69,0-4,2.21-4,5.44s1.52,4.74,4.17,4.74M120,83.65c0.16-1.52.63-5.91,0.63-8.25V68.76a44.88,44.88,0,0,0-.95-8.22l4-.31c0.25,0.73.35,1.45,0.57,2.34a6.3,6.3,0,0,1,5.34-2.72c4.42,0,7.46,3.7,7.46,8.88,0,4.77-2.94,8.25-7.27,8.25a8,8,0,0,1-4.9-1.58v1.9a50,50,0,0,0,.32,6Z" transform="translate(-42.52 -42.52)"/><path class="cls-1" d="M149.06,63.39a17.21,17.21,0,0,0-2.81-.38c-1.68,0-2.84.41-2.84,1.26S145,66,146.76,67s4,2.21,4,5.06c0,3.13-2.65,4.9-6.7,4.9a18.55,18.55,0,0,1-4.61-.73V72.78a16.38,16.38,0,0,0,4.77,1c1.14,0,2.28-.54,2.28-1.61s-1.36-1.58-3.32-2.72c-1.77-.92-4-2.81-4-5.21,0-2.84,2.72-4.42,6.38-4.42a26.33,26.33,0,0,1,3.54.28v3.25Z" transform="translate(-42.52 -42.52)"/><path class="cls-1" d="M160.78,73.5c2.78,0,4.11-2.24,4.11-5.18,0-3.16-1.36-5-4.11-5s-4.17,2-4.17,5,1.52,5.18,4.17,5.18m-8.44-5.18c0-5.12,3.41-8.47,8.44-8.47s8.37,3.44,8.37,8.47c0,4.77-3.35,8.66-8.37,8.66s-8.44-3.63-8.44-8.66" transform="translate(-42.52 -42.52)"/><path class="cls-1" d="M181.25,63.39a17.21,17.21,0,0,0-2.81-.38c-1.68,0-2.84.41-2.84,1.26S177.18,66,178.95,67s4,2.21,4,5.06c0,3.13-2.65,4.9-6.7,4.9a18.55,18.55,0,0,1-4.61-.73V72.78a16.38,16.38,0,0,0,4.77,1c1.14,0,2.28-.54,2.28-1.61s-1.36-1.58-3.32-2.72c-1.77-.92-4-2.81-4-5.21,0-2.84,2.72-4.42,6.38-4.42a26.33,26.33,0,0,1,3.54.28v3.25Z" transform="translate(-42.52 -42.52)"/><path class="cls-1" d="M211.23,76.73A15.85,15.85,0,0,1,208,77c-7.9,0-12.29-5.75-12.29-12.89,0-6.42,4.17-10.68,11.44-10.68a16.45,16.45,0,0,1,3.73.41v3.95a22.54,22.54,0,0,0-3.57-.41c-4.23,0-6.86,2.62-6.86,7.17,0,4.83,2.84,8.5,8.06,8.5a11.51,11.51,0,0,0,2.72-.25v3.95Z" transform="translate(-42.52 -42.52)"/><path class="cls-1" d="M221.05,73.5c2.78,0,4.11-2.24,4.11-5.18,0-3.16-1.36-5-4.11-5s-4.17,2-4.17,5,1.52,5.18,4.17,5.18m-8.44-5.18c0-5.12,3.41-8.47,8.44-8.47s8.37,3.44,8.37,8.47c0,4.77-3.35,8.66-8.37,8.66s-8.44-3.63-8.44-8.66" transform="translate(-42.52 -42.52)"/><path class="cls-1" d="M232.26,76.44c0.06-1.77.16-3.6,0.16-5.4V67.21a30,30,0,0,0-.95-6.67l4-.31c0.25,0.73.35,1.45,0.57,2.34,1.17-1.17,2.5-2.72,5.69-2.72,3.92,0,5.31,2.94,5.31,7.46V71c0,1.26.13,3.67,0.32,5.4h-4.42c-0.06-1.8-.16-3.6-0.16-5.4v-3.1c0-2.75-.6-4.61-2.69-4.61-2.72,0-3.41,1.87-3.41,5.69v2c0,1.26.1,3.63,0.16,5.4h-4.58Z" transform="translate(-42.52 -42.52)"/><path class="cls-1" d="M251,76.44c0.06-1.77.16-3.6,0.16-5.4V67.21a30,30,0,0,0-.95-6.67l4-.31c0.25,0.73.35,1.45,0.57,2.34,1.17-1.17,2.5-2.72,5.69-2.72,3.92,0,5.31,2.94,5.31,7.46V71c0,1.26.13,3.67,0.32,5.4h-4.42c-0.06-1.8-.16-3.6-0.16-5.4v-3.1c0-2.75-.6-4.61-2.69-4.61-2.72,0-3.41,1.87-3.41,5.69v2c0,1.26.1,3.63,0.16,5.4H251Z" transform="translate(-42.52 -42.52)"/><path class="cls-1" d="M280.09,66.42a3.22,3.22,0,0,0-3.23-3.1,3.52,3.52,0,0,0-3.69,3.1h6.92Zm2.75,10a16.61,16.61,0,0,1-4.11.51c-6.16,0-9.83-4.11-9.83-9.57,0-4.46,3.29-7.55,7.84-7.55,5.91,0,7.61,4.52,7.61,8.25,0,0.31,0,.69,0,1H273.17c0.09,1.48,1.23,4.39,6.1,4.39a19.45,19.45,0,0,0,3.57-.51v3.48Z" transform="translate(-42.52 -42.52)"/><path class="cls-1" d="M298.63,76.63a11.69,11.69,0,0,1-2.75.35c-4.8,0-9.42-2.84-9.42-9.23s5-7.9,9-7.9a17.65,17.65,0,0,1,3.22.28v3.48a23.79,23.79,0,0,0-3-.28c-3.07,0-5,1.49-5,4.42,0,3.29,2,5.75,5.88,5.75,0.66,0,1.36-.09,2-0.16v3.29Z" transform="translate(-42.52 -42.52)"/><path class="cls-1" d="M310.07,76.82a17.6,17.6,0,0,1-1.9.16c-2.12,0-5.5-.79-5.5-5.66V63.39c-0.7,0-1.87.1-3,.16l0.22-3.16h2.81V57.23l4.55-1.58c-0.13,1.42-.28,3.54-0.28,4.2v0.54a28.71,28.71,0,0,0,3.41-.16l-0.22,3.16h-3.19v6.38c0,2.24,0,3.73,2.34,3.73a5.83,5.83,0,0,0,1-.09Z" transform="translate(-42.52 -42.52)"/><path class="cls-2" d="M71.45,74.27c-0.79,0-1.53,0-2.41,0a6.84,6.84,0,0,0-2.28,0,1.94,1.94,0,0,0-.92-0.12,5.92,5.92,0,0,1-2.12-.06c0.74-1,4.11-.48,4.64-1.51,0.95-.54.95-1.38,1.11-2.22,0.6-.29.28-0.67,0.41-1a2.92,2.92,0,0,1,0-1.34l-0.38.44c-0.18,0-.38.16-0.52-0.1,0.38-.64-0.42-0.51-0.42-1,0.65-.34.14-0.67,0.22-1.12-0.43.19-.41,0.63-0.84,0.67-0.45-.27.15-0.92-0.11-1.25a2.55,2.55,0,0,0-.6,0,0.85,0.85,0,0,1,.17.91A0.38,0.38,0,0,1,67,66.4a0.46,0.46,0,0,1-.33.28c-0.27-.19.18-0.65,0-0.84a0.64,0.64,0,0,1-.38.21,1,1,0,0,1-.18-0.79,1.64,1.64,0,0,0-.32.27,1.06,1.06,0,0,1-1.1.07c0.42-.88,1-0.58,1.41-0.83,0.1-.26.55-0.62,0.24-0.84-0.71.14-.71,0.91-1.58,0.78-0.31-.67.72-0.91,0.34-1.23,0,0-.63-0.38-0.62-0.15a1,1,0,0,1-.58,1.27,0.77,0.77,0,0,1-.24-0.76c0.18-.49-0.42-0.25-0.33-1-0.12,0-.44.59-0.78,0.42a1,1,0,0,1,.15-0.71c-0.24-.17-0.62-0.09-0.86-0.28-0.13-.43.49-0.37,0.64-0.66-0.39-.4-0.64.28-1.07,0a0.68,0.68,0,0,0,.32-0.49c-0.1-.2-0.7.13-0.73-0.13a1.34,1.34,0,0,1,.67-0.58l-0.29,0c-0.61.16-.85-0.07-0.1-0.39-0.63-.67.41-0.48,0.71-0.67-0.87-.2-1.35-0.66-1.14-0.95s1.06,0.12,1.06.12a5.47,5.47,0,0,1-.58-0.75c-0.23-.38.94-0.38,1.15-0.91l-0.26-.08c-0.23,0-.14-0.38-0.48.12a0.66,0.66,0,0,1-.9,0,1.28,1.28,0,0,1,.9-1.08,4.71,4.71,0,0,0,1-.38,0.51,0.51,0,0,0-.37-0.16,1.05,1.05,0,0,1-.29.05A2.22,2.22,0,0,1,60.18,55a1,1,0,0,1,.88-0.37A0.55,0.55,0,0,1,60.92,54a1.59,1.59,0,0,1,.85.7A0.64,0.64,0,0,1,61.89,54c0.41,0.16.26,0.88,0.91,0.84-0.52-.69-0.37-0.83.39-0.48,0.1-.29-0.63-0.41-0.72-0.59s0.46-.4.46-0.4a1.68,1.68,0,0,1-1.28-1c-0.06-.36,1.39,0,1.88.74a1.59,1.59,0,0,0,.9-0.2,1.25,1.25,0,0,1-.68-0.87l-0.15.14a0.49,0.49,0,0,1-.49,0,0.79,0.79,0,0,1-.56-0.72,0.88,0.88,0,0,1,1.09.17s0.06,0.12.05,0.13a0.13,0.13,0,0,0,.14,0,6.71,6.71,0,0,0,1.38-.06,0.53,0.53,0,0,0-.39-0.46,0.9,0.9,0,0,1-.46.12,1.65,1.65,0,0,1-1.22-1,4.85,4.85,0,0,1,.54,0,1,1,0,0,1,1,.57,1.52,1.52,0,0,1,1-.42c-0.5-.11-0.82-0.14-0.87-0.52a1,1,0,0,1,1.39.2s-0.11-.2-0.08-0.19l-0.26-.36A0.54,0.54,0,0,1,66.05,49a0.69,0.69,0,0,1,.35.51c0.53,0.59.09-.51,0.75-0.62,0.41,0.49-.2.61-0.16,0.83a0.52,0.52,0,0,0,.48.29,5.85,5.85,0,0,0,.32-0.83,0.85,0.85,0,0,1,.61-1.21c0.55,0.52-.54,1.13.15,1.22,0.63-.29-0.08-1,0.69-1.38a1.62,1.62,0,0,1,0,.86,0.47,0.47,0,0,0,.48.09,1,1,0,0,1,0-1.1c0.21,0,.35.49,0.3,0.69,0.66-.39.08,0.3,0.91,0.25,0.18-.42-0.52-0.55-0.25-1.16,0.78-.2.64,0.33,0.64,0.68,0,0,.24.34,0.24,0.34l0.22-.11a0.72,0.72,0,0,1-.25-0.57A0.61,0.61,0,0,1,72,47.18h0a103.71,103.71,0,0,1-.47,26.62Z" transform="translate(-42.52 -42.52)"/><path class="cls-1" d="M64.51,62.18l-0.23.2a1,1,0,0,0,1.16-.48l0-.33a1.42,1.42,0,0,0-1,.61" transform="translate(-42.52 -42.52)"/><path class="cls-1" d="M67.24,63.79l-0.4,0a1,1,0,0,0,.48.88l0.3,0.07c0.41-.36-0.14-0.72-0.38-0.93" transform="translate(-42.52 -42.52)"/><path class="cls-1" d="M63.25,55.33l-0.3.22A1,1,0,0,0,64.27,55l0.1-.41a1.18,1.18,0,0,0-1.12.75" transform="translate(-42.52 -42.52)"/><path class="cls-1" d="M63.28,57.38L63.19,57a1.4,1.4,0,0,0-1,.67V58a1,1,0,0,0,1.12-.6" transform="translate(-42.52 -42.52)"/><path class="cls-1" d="M61.78,60.4L62,60.52c0.66,0.22.71-.33,0.87-0.55l0.25-.23a1.33,1.33,0,0,0-1.32.66" transform="translate(-42.52 -42.52)"/><path class="cls-1" d="M69,49.64l-0.37-.11a0.87,0.87,0,0,0-.09,1l0.19,0.39c0.44-.44.87-0.85,0.27-1.29" transform="translate(-42.52 -42.52)"/><path class="cls-2" d="M78.07,58.72a2.16,2.16,0,0,1-1.84-.48,2.56,2.56,0,0,1,2.22-.45,0.42,0.42,0,0,1,.23.41c0,0.47-.33.48-0.61,0.52" transform="translate(-42.52 -42.52)"/><path class="cls-1" d="M65.69,50.75l-0.24.12c0.07,0.43,1,.92,1.26.57l0-.41a1.41,1.41,0,0,0-1.06-.28" transform="translate(-42.52 -42.52)"/><path class="cls-2" d="M96.71,42.52H71.43c0.24,1.71.4,3,.57,4.67h0c0.58,0,.62.67,0.28,1.12,0.1,0.48.26,0.09,0.34-.08-0.1-.71.06-1,0.68-1.1,0.19,0.79-.51.66,0.24,1.13,0-.31-0.22-1.72.35-1.18a0.9,0.9,0,0,0,.09.5c0.13-.19.13-0.4,0.2-0.47,0.72-.34.14,0.81-0.19,0.9a0.31,0.31,0,0,0,.6-0.1c-0.6-.06.35-0.75,0.76-0.72a1.24,1.24,0,0,1-.73,1c0.29,0,.13,1,0.41-0.08a6.36,6.36,0,0,1,.7-0.84c0.57,1-.09.14-0.23,0.69s0.55,0.13.56-.24c0-.54.85,0,0.39,0.19,0,0-.31.36,0.23,0.11s0.15,0.35,0,.74a0.83,0.83,0,0,1,.47-0.39c0.11,0.08.09,0.52,0.33-.07,0.94,0.41-.11.68,0.34,0.79,0.24-.14.26-0.5,0.61-0.26a0.68,0.68,0,0,1,.1.61A1.24,1.24,0,0,1,79,49.25a1,1,0,0,1,.14.5c0.22-.5.65,0.15,0.54,0.34-0.19.36,0.56-.17,0.62,0.37a0.39,0.39,0,0,1-.18.38c0.4-.13.59,0.48,0.37,0.85,0.41,0,.43.85,0.18,1.08,0,0,.34.12,0.21,0.74,0,0.23-.18.15-0.21,0.21a6.31,6.31,0,0,1,.1,2.54,1.06,1.06,0,0,1-.48.84c-0.65.75,0.14,1.53,0.55,2.1s1.26,1.38,1,1.79c-0.13.48-1.36,0.58-1.22,0.88s0.42,1,.42,1,0.43,0.54-.87.77,0.57,0.62.57,0.62c0.22,0.31-.07.49-0.29,0.74a1.12,1.12,0,0,0-.07.95c0.54,0.76.52,1.28-.28,1.53a15,15,0,0,1-4,.26c-0.4-.05-1-0.17-1.11.42a14.08,14.08,0,0,0,0,2,2.82,2.82,0,0,0,.51,1.47c0.47,0.67.72,1.58,2.19,1.73,0.87,0.31,2.57-.3,2.82.78-0.25,0-.47.12-1.25,0.2a49.49,49.49,0,0,1-5.38-.3c-0.71,0-1.69.25-2.37,0.25Q71.25,75.6,71,76.93h0l-0.34,1.73h0q-0.24,1.17-.51,2.35a2.83,2.83,0,0,1,1.65,2.44c0,1.51-1.15,2.43-3,2.63-0.8,2.79-1.73,5.6-2.81,8.46H91.29c6.9-18.21,7.85-34.67,5.42-52" transform="translate(-42.52 -42.52)"/><rect class="cls-3" width="55.4" height="52.01"/><path class="cls-1" d="M71,76.93h0c-0.11.57-.22,1.15-0.34,1.73h0Z" transform="translate(-42.52 -42.52)"/><path class="cls-1" d="M77.5,86.12a4.57,4.57,0,0,0,4.67-4.73,4.69,4.69,0,0,0-9.37,0,4.54,4.54,0,0,0,4.7,4.73" transform="translate(-42.52 -42.52)"/><path class="cls-1" d="M88.92,78.68a9.8,9.8,0,0,0-1.57-.21c-0.93,0-1.58.23-1.58,0.69s0.88,1,1.86,1.5,2.22,1.21,2.22,2.77c0,1.71-1.48,2.67-3.73,2.67a10.54,10.54,0,0,1-2.57-.4v-1.9a9.23,9.23,0,0,0,2.66.57,1.09,1.09,0,0,0,1.26-.88c0-.54-0.75-0.87-1.84-1.49s-2.24-1.54-2.24-2.86c0-1.55,1.52-2.42,3.55-2.42a15.71,15.71,0,0,1,2,.15v1.78Z" transform="translate(-42.52 -42.52)"/><path class="cls-2" d="M75.17,81.38c0-1.64.76-2.73,2.32-2.73s2.29,1,2.29,2.73S79,84.22,77.5,84.22,75.17,83,75.17,81.38" transform="translate(-42.52 -42.52)"/><path class="cls-4" d="M67.71,79.17c0,0.54.88,1,1.86,1.51L70.14,81c0.18-.79.35-1.57,0.51-2.35a7.38,7.38,0,0,0-1.37-.18c-0.93,0-1.58.23-1.58,0.69" transform="translate(-42.52 -42.52)"/><path class="cls-4" d="M71.58,48.43l0.21-.11a0.72,0.72,0,0,1-.25-0.57A0.61,0.61,0,0,1,72,47.19c-0.17-1.7-.33-3-0.57-4.67H42.52v52H66c1.08-2.86,2-5.68,2.81-8.46a6.83,6.83,0,0,1-.76,0,10.56,10.56,0,0,1-2.57-.4v-1.9a9.22,9.22,0,0,0,2.66.57,1.09,1.09,0,0,0,1.26-.88c0-.54-0.75-0.87-1.84-1.49s-2.24-1.54-2.24-2.86c0-1.55,1.52-2.42,3.55-2.42a18.15,18.15,0,0,1,2.11.18q0.25-1.33.46-2.65h0c-0.79,0-1.53,0-2.41,0a6.84,6.84,0,0,0-2.28,0,1.93,1.93,0,0,0-.92-0.12,5.91,5.91,0,0,1-2.12-.06c0.74-1,4.1-.48,4.64-1.51,0.95-.54.95-1.39,1.11-2.22,0.6-.29.28-0.67,0.41-1a2.92,2.92,0,0,1,0-1.34l-0.38.44c-0.18,0-.38.16-0.53-0.1,0.39-.64-0.41-0.51-0.41-1,0.65-.34.14-0.67,0.22-1.12-0.43.19-.41,0.63-0.84,0.67-0.45-.27.16-0.92-0.11-1.25a2.5,2.5,0,0,0-.6,0,0.85,0.85,0,0,1,.17.91A0.38,0.38,0,0,1,67,66.4a0.46,0.46,0,0,1-.33.28c-0.27-.19.18-0.65,0-0.84a0.63,0.63,0,0,1-.38.21,1,1,0,0,1-.18-0.79,1.6,1.6,0,0,0-.32.27,1.06,1.06,0,0,1-1.1.06c0.42-.88,1-0.58,1.41-0.83,0.1-.26.55-0.61,0.24-0.84-0.71.14-.71,0.91-1.58,0.78-0.31-.67.72-0.91,0.34-1.23,0,0-.63-0.38-0.62-0.15a1,1,0,0,1-.58,1.27,0.77,0.77,0,0,1-.24-0.76c0.18-.49-0.41-0.25-0.33-1-0.12,0-.44.59-0.78,0.42a1,1,0,0,1,.15-0.71c-0.24-.17-0.62-0.09-0.86-0.28-0.13-.43.49-0.37,0.64-0.66-0.39-.4-0.64.28-1.07,0a0.68,0.68,0,0,0,.32-0.49c-0.1-.2-0.7.13-0.73-0.13a1.34,1.34,0,0,1,.67-0.58l-0.29,0c-0.61.16-.85-0.07-0.1-0.39-0.63-.67.41-0.48,0.71-0.67-0.87-.2-1.36-0.66-1.14-0.94s1.06,0.12,1.06.12a5.49,5.49,0,0,1-.58-0.75c-0.23-.38.94-0.38,1.15-0.91l-0.26-.08c-0.23,0-.14-0.38-0.48.12a0.66,0.66,0,0,1-.9,0,1.28,1.28,0,0,1,.9-1.08,4.71,4.71,0,0,0,1-.38,0.51,0.51,0,0,0-.37-0.16,1.06,1.06,0,0,1-.29.05A2.22,2.22,0,0,1,60.18,55a1,1,0,0,1,.88-0.37A0.55,0.55,0,0,1,60.92,54a1.58,1.58,0,0,1,.85.7A0.65,0.65,0,0,1,61.89,54c0.41,0.16.26,0.88,0.91,0.84-0.52-.69-0.37-0.83.39-0.48,0.1-.29-0.63-0.41-0.72-0.59s0.46-.4.46-0.4a1.68,1.68,0,0,1-1.28-1c-0.06-.36,1.39,0,1.88.74a1.59,1.59,0,0,0,.9-0.2,1.25,1.25,0,0,1-.68-0.87l-0.15.14a0.49,0.49,0,0,1-.49,0,0.79,0.79,0,0,1-.56-0.72,0.88,0.88,0,0,1,1.09.17s0.06,0.12.05,0.13a0.13,0.13,0,0,0,.14,0,6.75,6.75,0,0,0,1.38-.06,0.53,0.53,0,0,0-.39-0.46,0.9,0.9,0,0,1-.46.12,1.65,1.65,0,0,1-1.22-1,4.73,4.73,0,0,1,.54,0,1,1,0,0,1,1,.57,1.52,1.52,0,0,1,1-.42c-0.5-.11-0.82-0.14-0.87-0.52a1,1,0,0,1,1.39.2s-0.11-.2-0.08-0.19l-0.26-.36A0.54,0.54,0,0,1,66.05,49a0.69,0.69,0,0,1,.35.51c0.53,0.59.09-.51,0.75-0.61,0.41,0.49-.2.61-0.16,0.83a0.52,0.52,0,0,0,.48.29,5.93,5.93,0,0,0,.32-0.83,0.84,0.84,0,0,1,.61-1.21c0.55,0.52-.54,1.13.15,1.22,0.63-.29-0.08-1,0.69-1.38a1.62,1.62,0,0,1,0,.86,0.47,0.47,0,0,0,.48.09,1,1,0,0,1,0-1.1c0.21,0,.35.49,0.3,0.69,0.66-.39.08,0.3,0.91,0.25,0.18-.42-0.52-0.55-0.25-1.16,0.78-.2.64,0.33,0.64,0.68,0,0,.24.34,0.24,0.34" transform="translate(-42.52 -42.52)"/><path class="cls-1" d="M49.65,85.82c0.05-1,.09-1.78.09-3.18V77.83a22.11,22.11,0,0,0-.35-4.32h3.09c0,0.88-.09,2.11-0.09,3.49v4.5a37.89,37.89,0,0,0,.35,4.32H49.65Z" transform="translate(-42.52 -42.52)"/><path class="cls-1" d="M57.18,81.63c0-1.77.72-3,2.23-3s2.37,1.23,2.37,3c0,1.56-.76,2.59-2.26,2.59s-2.33-.88-2.33-2.59m0.35,8a26.68,26.68,0,0,1-.18-3.3v-1a4.56,4.56,0,0,0,2.74.86c2.42,0,4.06-1.9,4.06-4.51,0-2.84-1.69-4.86-4.17-4.86a3.54,3.54,0,0,0-3,1.49c-0.12-.46-0.18-0.86-0.32-1.26l-2.24.17A24,24,0,0,1,55,81.63v3.62c0,1.28-.26,3.68-0.35,4.51Z" transform="translate(-42.52 -42.52)"/><path class="cls-4" d="M80.82,59.21c-0.41-.57-1.2-1.35-0.55-2.1a1.06,1.06,0,0,0,.48-0.84,6.33,6.33,0,0,0-.1-2.54c0-.06.16,0,0.21-0.21,0.13-.62-0.21-0.74-0.21-0.74,0.25-.23.23-1.09-0.17-1.08,0.22-.38,0-1-0.37-0.85a0.39,0.39,0,0,0,.18-0.38c-0.05-.55-0.81,0-0.62-0.37,0.1-.19-0.32-0.84-0.54-0.34a0.94,0.94,0,0,0-.14-0.5,1.24,1.24,0,0,0-.45.22,0.68,0.68,0,0,0-.1-0.61c-0.35-.25-0.37.12-0.61,0.26-0.44-.1.61-0.37-0.34-0.78-0.24.59-.22,0.15-0.33,0.07a0.84,0.84,0,0,0-.48.39c0.14-.39.46-0.88,0-0.74s-0.22-.08-0.23-0.11c0.46-.21-0.42-0.72-0.39-0.19,0,0.37-.78.68-0.56,0.24s0.8,0.29.23-.69a6.44,6.44,0,0,0-.7.84c-0.28,1.13-.12.1-0.41,0.08a1.24,1.24,0,0,0,.73-1c-0.41,0-1.37.66-.76,0.72a0.31,0.31,0,0,1-.6.1c0.33-.09.91-1.24,0.19-0.9-0.07.07-.07,0.27-0.19,0.47a0.88,0.88,0,0,1-.09-0.5c-0.57-.54-0.37.87-0.35,1.18-0.75-.47,0-0.34-0.24-1.13-0.62.12-.79,0.39-0.68,1.1-0.08.17-.24,0.56-0.34,0.08,0.33-.45.3-1.1-0.28-1.12a103.67,103.67,0,0,1-.47,26.62l-0.07.47c0.68,0,1.66-.22,2.37-0.25a49.62,49.62,0,0,0,5.38.3c0.78-.08,1-0.21,1.25-0.2-0.25-1.08-2-.47-2.82-0.78-1.47-.15-1.72-1.05-2.19-1.73a2.82,2.82,0,0,1-.51-1.47,14.08,14.08,0,0,1,0-2c0.07-.58.71-0.47,1.11-0.42a15,15,0,0,0,4-.26c0.81-.25.82-0.76,0.28-1.53a1.12,1.12,0,0,1,.07-1c0.22-.26.51-0.43,0.29-0.74,0,0-1.85-.4-0.58-0.62s0.87-.77.87-0.77-0.21-.55-0.42-1,1.08-.4,1.22-0.88c0.3-.41-0.64-1.33-1-1.79m-2.75-.5a2.16,2.16,0,0,1-1.84-.48,2.56,2.56,0,0,1,2.22-.45,0.42,0.42,0,0,1,.23.41c0,0.47-.33.48-0.61,0.52" transform="translate(-42.52 -42.52)"/><path class="cls-4" d="M64.51,62.18l-0.23.2a1,1,0,0,0,1.16-.48l0-.33a1.42,1.42,0,0,0-1,.61" transform="translate(-42.52 -42.52)"/><path class="cls-4" d="M67.24,63.79l-0.4,0a1,1,0,0,0,.48.88l0.3,0.07c0.41-.36-0.14-0.72-0.38-0.93" transform="translate(-42.52 -42.52)"/><path class="cls-4" d="M63.25,55.33l-0.3.22A1,1,0,0,0,64.27,55l0.1-.41a1.18,1.18,0,0,0-1.12.75" transform="translate(-42.52 -42.52)"/><path class="cls-4" d="M63.28,57.38L63.19,57a1.4,1.4,0,0,0-1,.67V58a1,1,0,0,0,1.12-.6" transform="translate(-42.52 -42.52)"/><path class="cls-4" d="M61.78,60.4L62,60.52c0.66,0.22.71-.33,0.87-0.55l0.25-.23a1.33,1.33,0,0,0-1.32.66" transform="translate(-42.52 -42.52)"/><path class="cls-4" d="M65.69,50.75l-0.24.12c0.07,0.43,1,.92,1.26.57l0-.41a1.41,1.41,0,0,0-1.06-.28" transform="translate(-42.52 -42.52)"/><path class="cls-4" d="M69,49.64l-0.37-.11a0.87,0.87,0,0,0-.09,1l0.19,0.39c0.44-.44.87-0.85,0.27-1.29" transform="translate(-42.52 -42.52)"/><path class="cls-1" d="M75.17,81.38c0-1.64.76-2.73,2.32-2.73s2.29,1,2.29,2.73S79,84.22,77.5,84.22,75.17,83,75.17,81.38m2.32,4.73a4.57,4.57,0,0,0,4.67-4.73,4.69,4.69,0,0,0-9.37,0,4.54,4.54,0,0,0,4.7,4.73" transform="translate(-42.52 -42.52)"/><path class="cls-1" d="M88.92,78.68a9.8,9.8,0,0,0-1.57-.21c-0.93,0-1.58.23-1.58,0.69s0.88,1,1.86,1.5,2.22,1.21,2.22,2.77c0,1.71-1.48,2.67-3.73,2.67a10.54,10.54,0,0,1-2.57-.4v-1.9a9.23,9.23,0,0,0,2.66.57,1.09,1.09,0,0,0,1.26-.88c0-.54-0.75-0.87-1.84-1.49s-2.24-1.54-2.24-2.86c0-1.55,1.52-2.42,3.55-2.42a15.71,15.71,0,0,1,2,.15v1.78Z" transform="translate(-42.52 -42.52)"/><path class="cls-1" d="M49.65,85.82c0.05-1,.09-1.78.09-3.18V77.83a22.11,22.11,0,0,0-.35-4.32h3.09c0,0.88-.09,2.11-0.09,3.49v4.5a37.89,37.89,0,0,0,.35,4.32H49.65Z" transform="translate(-42.52 -42.52)"/><path class="cls-1" d="M57.18,81.63c0-1.77.72-3,2.23-3s2.37,1.23,2.37,3c0,1.56-.76,2.59-2.26,2.59s-2.33-.88-2.33-2.59m0.35,8a26.68,26.68,0,0,1-.18-3.3v-1a4.56,4.56,0,0,0,2.74.86c2.42,0,4.06-1.9,4.06-4.51,0-2.84-1.69-4.86-4.17-4.86a3.54,3.54,0,0,0-3,1.49c-0.12-.46-0.18-0.86-0.32-1.26l-2.24.17A24,24,0,0,1,55,81.63v3.62c0,1.28-.26,3.68-0.35,4.51Z" transform="translate(-42.52 -42.52)"/><path class="cls-1" d="M70.66,78.65a7.4,7.4,0,0,0-1.38-.18c-0.93,0-1.58.23-1.58,0.69s0.88,1,1.86,1.5,2.22,1.21,2.22,2.77c0,1.71-1.48,2.67-3.73,2.67a10.51,10.51,0,0,1-2.57-.4v-1.9a9.2,9.2,0,0,0,2.66.57,1.09,1.09,0,0,0,1.26-.88c0-.54-0.75-0.87-1.84-1.49s-2.24-1.54-2.24-2.85c0-1.56,1.52-2.42,3.55-2.42a18.23,18.23,0,0,1,2.12.18Z" transform="translate(-42.52 -42.52)"/></svg>