<svg id="Scoreboard" xmlns="http://www.w3.org/2000/svg" viewBox="0 0 651.22 553.97">
  <title>scoreboard</title>
  <line x1="85.02" y1="447.78" x2="85.02" y2="536.47" style="fill: #231f20"/>
  <line x1="85.02" y1="447.78" x2="85.02" y2="536.47" style="fill: none;stroke: #bcbec0;stroke-linecap: round;stroke-miterlimit: 10;stroke-width: 35px"/>
  <line x1="562.49" y1="447.78" x2="562.49" y2="536.47" style="fill: #231f20"/>
  <line x1="562.49" y1="447.78" x2="562.49" y2="536.47" style="fill: none;stroke: #bcbec0;stroke-linecap: round;stroke-miterlimit: 10;stroke-width: 35px"/>
  <path d="M732.14,1285.22H110.48a9.78,9.78,0,0,0-9.78,9.78v422.71a9.78,9.78,0,0,0,9.78,9.78H732.14a9.78,9.78,0,0,0,9.78-9.78V1295a9.78,9.78,0,0,0-9.78-9.78" transform="translate(-95.7 -1279.73)" style="fill: #414042"/>
  <rect x="5" y="5" width="641.22" height="442.28" rx="9.78" ry="9.78" style="fill: none;stroke: #a7a9ac;stroke-miterlimit: 10;stroke-width: 10px"/>
  <rect x="37.44" y="36.17" width="579.13" height="68.46" style="fill: #231f20"/>
  <g>
    <path d="M214.54,1333.27l-4.62,9.6c-4.32-2.46-10.44-4.68-14-4.68-2.1,0-3.48.72-3.48,2.28,0,6.18,22,2.52,22,17.7,0,8.94-7.92,13.2-17.34,13.2a34.31,34.31,0,0,1-20.22-6.66l4.68-9.48c4.32,3.66,11.34,6.42,15.66,6.42,2.64,0,4.32-.9,4.32-2.82,0-6.36-22-2.34-22-17.16,0-8.1,6.9-13.26,17.4-13.26A33.88,33.88,0,0,1,214.54,1333.27Z" transform="translate(-95.7 -1279.73)" style="fill: gold"/>
    <path d="M262.6,1336l-7.2,8.52c-2.64-3.36-6.54-5.58-10-5.58-5.7,0-10,4.62-10,10.8s4.32,10.86,10,10.86c3.24,0,7.14-1.92,10-4.86l7.2,7.68a25.42,25.42,0,0,1-17.82,8.1c-12.78,0-22.2-9.24-22.2-21.66,0-12.24,9.6-21.3,22.62-21.3A24.73,24.73,0,0,1,262.6,1336Z" transform="translate(-95.7 -1279.73)" style="fill: gold"/>
    <path d="M315.16,1350c0,12.36-9.72,21.6-22.92,21.6s-22.92-9.18-22.92-21.6,9.72-21.36,22.92-21.36S315.16,1337.65,315.16,1350Zm-33.06.06c0,6.36,4.8,11.1,10.32,11.1s10-4.74,10-11.1-4.44-11-10-11S282.1,1343.65,282.1,1350Z" transform="translate(-95.7 -1279.73)" style="fill: gold"/>
    <path d="M344.92,1359.67h-6.6V1371H325.84V1329h19.62c11.28,0,17.76,5.4,17.76,14.94,0,6.24-2.52,10.8-7.08,13.38l8.52,13.74H350.5Zm0.54-9.6c3.72,0,5.88-2,5.88-5.82s-2.16-5.7-5.88-5.7h-7.14v11.52h7.14Z" transform="translate(-95.7 -1279.73)" style="fill: gold"/>
    <path d="M387.82,1338.55v6.6h19.86v9.6H387.82v6.66h22.5v9.6h-35V1329h34.38v9.6h-21.9Z" transform="translate(-95.7 -1279.73)" style="fill: gold"/>
    <path d="M443,1329c9.84,0,16.14,4.14,16.14,10.62a9.36,9.36,0,0,1-7.14,9.06,10.44,10.44,0,0,1,8.46,10.62c0,7.2-6.48,11.76-16.56,11.76H422.32V1329H443Zm-8.22,16.5h7.56c2.46,0,4-1.44,4-3.66s-1.56-3.48-4-3.48h-7.56v7.14Zm0,16.26h7.56c3.18,0,5.16-1.56,5.16-4,0-2.28-2-3.72-5.16-3.72h-7.56v7.74Z" transform="translate(-95.7 -1279.73)" style="fill: gold"/>
    <path d="M515,1350c0,12.36-9.72,21.6-22.92,21.6s-22.92-9.18-22.92-21.6,9.72-21.36,22.92-21.36S515,1337.65,515,1350Zm-33.06.06c0,6.36,4.8,11.1,10.32,11.1s10-4.74,10-11.1-4.44-11-10-11S481.89,1343.65,481.89,1350Z" transform="translate(-95.7 -1279.73)" style="fill: gold"/>
    <path d="M535.77,1364.29l-2.52,6.72H520.41L538.35,1329h12.84L568.53,1371H555.21l-2.46-6.72h-17Zm8.64-22.86-5.16,13.74h10.2Z" transform="translate(-95.7 -1279.73)" style="fill: gold"/>
    <path d="M596.67,1359.67h-6.6V1371H577.59V1329h19.62c11.28,0,17.76,5.4,17.76,14.94,0,6.24-2.52,10.8-7.08,13.38l8.52,13.74H602.25Zm0.54-9.6c3.72,0,5.88-2,5.88-5.82s-2.16-5.7-5.88-5.7h-7.14v11.52h7.14Z" transform="translate(-95.7 -1279.73)" style="fill: gold"/>
    <path d="M645.51,1329c13.62,0,22.62,8.34,22.62,21S659,1371,645.09,1371h-18V1329h18.42Zm-5.94,32.28h6.3c5.7,0,9.54-4.44,9.54-11.16s-4.14-11.28-10.14-11.28h-5.7v22.44Z" transform="translate(-95.7 -1279.73)" style="fill: gold"/>
  </g>
  <rect x="37.44" y="121.07" width="579.13" height="293.69" style="fill: #231f20"/>
  <g>
    <path d="M191.45,1443.81l-3.65-12-3.7,12h-2.68l-5.1-15.4h2.79l3.74,12.52,3.72-12.5,2.55,0,3.74,12.52,3.72-12.52h2.68l-5.15,15.4h-2.66Z" transform="translate(-95.7 -1279.73)" style="fill: #fff200"/>
    <path d="M213.41,1438.92h-8.85a3.56,3.56,0,0,0,3.63,2.93,4.55,4.55,0,0,0,3.3-1.36l1.34,1.43a6.37,6.37,0,0,1-4.84,2,5.94,5.94,0,1,1-.07-11.88C212,1432,213.71,1434.7,213.41,1438.92Zm-2.2-1.85a3,3,0,0,0-3.26-3,3.33,3.33,0,0,0-3.43,3h6.69Z" transform="translate(-95.7 -1279.73)" style="fill: #fff200"/>
    <path d="M245.68,1436.52v7.28h-2.53v-6.58a2.6,2.6,0,0,0-2.77-2.86,3.33,3.33,0,0,0-3.21,3.65v5.79h-2.53v-6.58a2.59,2.59,0,0,0-2.75-2.86,3.35,3.35,0,0,0-3.26,3.65v5.79h-2.51V1432.1h2.51v2.27a4.32,4.32,0,0,1,4.25-2.35,3.92,3.92,0,0,1,4.07,2.82,4.3,4.3,0,0,1,4.44-2.82C244.07,1432,245.68,1433.73,245.68,1436.52Z" transform="translate(-95.7 -1279.73)" style="fill: #fff200"/>
    <path d="M254,1428.76a1.48,1.48,0,1,1-1.47-1.54A1.46,1.46,0,0,1,254,1428.76Zm-2.73,15V1432.1h2.51v11.71h-2.51Z" transform="translate(-95.7 -1279.73)" style="fill: #fff200"/>
    <path d="M270.27,1442.66c0,3.37-2.4,5.48-6.07,5.48a8.51,8.51,0,0,1-4.86-1.54l1.08-1.83a5.91,5.91,0,0,0,3.67,1.28c2.22,0,3.67-1.3,3.67-3.32v-1.47a4.29,4.29,0,0,1-3.87,2c-3.17,0-5.28-2.29-5.28-5.65s2.09-5.54,5.19-5.57a4.37,4.37,0,0,1,4,2v-1.89h2.51v10.56Zm-2.51-5a3.33,3.33,0,0,0-3.37-3.59A3.61,3.61,0,1,0,267.77,1437.65Z" transform="translate(-95.7 -1279.73)" style="fill: #fff200"/>
    <path d="M287.33,1436.52v7.28H284.8v-6.58a2.61,2.61,0,0,0-2.82-2.84,3.34,3.34,0,0,0-3.34,3.65v5.76H276.1v-16.33h2.53v6.91A4.43,4.43,0,0,1,283,1432C285.7,1432,287.33,1433.73,287.33,1436.52Z" transform="translate(-95.7 -1279.73)" style="fill: #fff200"/>
    <path d="M299.53,1443.06a5.62,5.62,0,0,1-2.88.86,3.08,3.08,0,0,1-3.28-3.41v-6.07h-1.65v-1.89h1.65v-3.21h2.51v3.21h3.45v1.89h-3.45V1440c0,1.21.46,1.58,1.25,1.58a4.09,4.09,0,0,0,1.76-.51Z" transform="translate(-95.7 -1279.73)" style="fill: #fff200"/>
    <path d="M319,1442.38a4.75,4.75,0,0,1-3.87,1.54c-2.53,0-4.11-1.56-4.11-3.63s1.61-3.5,4.42-3.52h3.54v-0.35c0-1.47-.95-2.35-2.79-2.35a6.17,6.17,0,0,0-3.46,1.19l-1-1.76a8.57,8.57,0,0,1,5-1.47c3,0,4.71,1.54,4.73,4.12l0,7.68H319v-1.43Zm0-2.68v-1.08h-3.17c-1.65,0-2.42.44-2.42,1.56s0.86,1.74,2.27,1.74C317.42,1441.91,318.81,1441,318.94,1439.69Z" transform="translate(-95.7 -1279.73)" style="fill: #fff200"/>
    <path d="M327.14,1443.81v-16.33h2.53v16.33h-2.53Z" transform="translate(-95.7 -1279.73)" style="fill: #fff200"/>
    <path d="M335.83,1443.81v-16.33h2.53v16.33h-2.53Z" transform="translate(-95.7 -1279.73)" style="fill: #fff200"/>
    <path d="M354.93,1440.53v3.28H352.4v-16.33h2.53v9.86l5.17-5.24H363l-4.33,4.53,4.67,7.17h-3l-3.43-5.37Z" transform="translate(-95.7 -1279.73)" style="fill: #fff200"/>
    <path d="M378.78,1436.52v7.28h-2.53v-6.58a2.61,2.61,0,0,0-2.82-2.84,3.28,3.28,0,0,0-3.32,3.19v6.23h-2.53V1432.1h2.53v2.25a4.42,4.42,0,0,1,4.31-2.33C377.15,1432,378.78,1433.73,378.78,1436.52Z" transform="translate(-95.7 -1279.73)" style="fill: #fff200"/>
    <path d="M395.48,1438a6.11,6.11,0,1,1-6.09-5.94A5.74,5.74,0,0,1,395.48,1438Zm-9.68,0a3.58,3.58,0,1,0,3.59-3.78A3.53,3.53,0,0,0,385.8,1438Z" transform="translate(-95.7 -1279.73)" style="fill: #fff200"/>
    <path d="M411.32,1443.81l-3-8.67-3,8.67h-2.6l-4.31-11.71h2.6l3,9.2,2.95-9.2h2.62l3,9.2,3-9.2h2.57l-4.27,11.71h-2.62Z" transform="translate(-95.7 -1279.73)" style="fill: #fff200"/>
    <path d="M436.66,1443.06a5.62,5.62,0,0,1-2.88.86,3.08,3.08,0,0,1-3.28-3.41v-6.07h-1.65v-1.89h1.65v-3.21H433v3.21h3.45v1.89H433V1440c0,1.21.46,1.58,1.25,1.58a4.09,4.09,0,0,0,1.76-.51Z" transform="translate(-95.7 -1279.73)" style="fill: #fff200"/>
    <path d="M452.52,1436.52v7.28H450v-6.58a2.61,2.61,0,0,0-2.82-2.84,3.34,3.34,0,0,0-3.34,3.65v5.76H441.3v-16.33h2.53v6.91a4.43,4.43,0,0,1,4.33-2.38C450.89,1432,452.52,1433.73,452.52,1436.52Z" transform="translate(-95.7 -1279.73)" style="fill: #fff200"/>
    <path d="M468.41,1438.92h-8.85a3.56,3.56,0,0,0,3.63,2.93,4.55,4.55,0,0,0,3.3-1.36l1.34,1.43a6.37,6.37,0,0,1-4.84,2,5.94,5.94,0,1,1-.07-11.88C467,1432,468.71,1434.7,468.41,1438.92Zm-2.2-1.85a3,3,0,0,0-3.26-3,3.33,3.33,0,0,0-3.43,3h6.69Z" transform="translate(-95.7 -1279.73)" style="fill: #fff200"/>
    <path d="M481.6,1431.4a3.83,3.83,0,0,1,4-4,4.43,4.43,0,0,1,2.18.53l-0.09,2.2a5.18,5.18,0,0,0-2-.51,1.41,1.41,0,0,0-1.58,1.56v1.36h3.06v1.89h-3.06v9.4H481.6v-9.4h-1.54v-1.89h1.54v-1.12Zm6.84-2.64a1.47,1.47,0,1,1,1.47,1.52A1.46,1.46,0,0,1,488.45,1428.76Zm2.73,3.34v11.71h-2.51V1432.1h2.51Z" transform="translate(-95.7 -1279.73)" style="fill: #fff200"/>
    <path d="M508.31,1436.52v7.28h-2.53v-6.58a2.61,2.61,0,0,0-2.82-2.84,3.28,3.28,0,0,0-3.32,3.19v6.23h-2.53V1432.1h2.53v2.25A4.42,4.42,0,0,1,504,1432C506.68,1432,508.31,1433.73,508.31,1436.52Z" transform="translate(-95.7 -1279.73)" style="fill: #fff200"/>
    <path d="M520.92,1442.38a4.75,4.75,0,0,1-3.87,1.54c-2.53,0-4.11-1.56-4.11-3.63s1.61-3.5,4.42-3.52h3.54v-0.35c0-1.47-.95-2.35-2.79-2.35a6.17,6.17,0,0,0-3.46,1.19l-1-1.76a8.57,8.57,0,0,1,5-1.47c3,0,4.71,1.54,4.73,4.12l0,7.68h-2.49v-1.43Zm0-2.68v-1.08h-3.17c-1.65,0-2.42.44-2.42,1.56s0.86,1.74,2.27,1.74C519.38,1441.91,520.76,1441,520.9,1439.69Z" transform="translate(-95.7 -1279.73)" style="fill: #fff200"/>
    <path d="M529.1,1443.81v-16.33h2.53v16.33H529.1Z" transform="translate(-95.7 -1279.73)" style="fill: #fff200"/>
    <path d="M553.15,1433.18l-0.92,1.87a6.87,6.87,0,0,0-3.37-1c-1,0-1.72.33-1.72,1.17,0,2.16,6.23,1,6.21,5.24,0,2.4-2.13,3.48-4.49,3.48a7.24,7.24,0,0,1-4.71-1.63l0.9-1.8a6.38,6.38,0,0,0,3.92,1.45c1.08,0,1.92-.37,1.92-1.25,0-2.4-6.16-1.06-6.14-5.28,0-2.38,2.07-3.39,4.31-3.39A7.4,7.4,0,0,1,553.15,1433.18Z" transform="translate(-95.7 -1279.73)" style="fill: #fff200"/>
    <path d="M567.73,1433.93l-1.39,1.63a4.42,4.42,0,0,0-3.34-1.32,3.75,3.75,0,0,0,0,7.48,4.36,4.36,0,0,0,3.45-1.41l1.41,1.41a6,6,0,0,1-5,2.18,5.94,5.94,0,0,1,0-11.88A6.18,6.18,0,0,1,567.73,1433.93Z" transform="translate(-95.7 -1279.73)" style="fill: #fff200"/>
    <path d="M583.82,1438a6.11,6.11,0,1,1-6.09-5.94A5.74,5.74,0,0,1,583.82,1438Zm-9.68,0a3.58,3.58,0,1,0,3.59-3.78A3.53,3.53,0,0,0,574.13,1438Z" transform="translate(-95.7 -1279.73)" style="fill: #fff200"/>
    <path d="M591.18,1434.43a4.25,4.25,0,0,1,4-2.42v2.42a3.54,3.54,0,0,0-4,3.26v6.12h-2.53V1432.1h2.53v2.33Z" transform="translate(-95.7 -1279.73)" style="fill: #fff200"/>
    <path d="M609.82,1438.92H601a3.56,3.56,0,0,0,3.63,2.93,4.55,4.55,0,0,0,3.3-1.36l1.34,1.43a6.37,6.37,0,0,1-4.84,2,5.94,5.94,0,1,1-.07-11.88C608.46,1432,610.13,1434.7,609.82,1438.92Zm-2.2-1.85a3,3,0,0,0-3.26-3,3.33,3.33,0,0,0-3.43,3h6.69Z" transform="translate(-95.7 -1279.73)" style="fill: #fff200"/>
    <path d="M633.64,1438a6.11,6.11,0,1,1-6.09-5.94A5.74,5.74,0,0,1,633.64,1438Zm-9.68,0a3.58,3.58,0,1,0,3.59-3.78A3.53,3.53,0,0,0,624,1438Z" transform="translate(-95.7 -1279.73)" style="fill: #fff200"/>
    <path d="M641.48,1431.16v1.39h3.06v1.89h-3.06v9.37H639v-9.37h-1.54v-1.89H639v-1.14a3.84,3.84,0,0,1,4-4,4.47,4.47,0,0,1,2.64.81l-1,1.94a2.82,2.82,0,0,0-1.61-.55A1.47,1.47,0,0,0,641.48,1431.16Z" transform="translate(-95.7 -1279.73)" style="fill: #fff200"/>
    <path d="M188.72,1456.28l-1.08,2.29a9.21,9.21,0,0,0-4.51-1.43c-1.52,0-2.51.57-2.51,1.61,0,3.37,8.32,1.56,8.29,7.11,0,2.75-2.42,4.44-5.81,4.44a9.47,9.47,0,0,1-6.29-2.44l1.12-2.24a8.12,8.12,0,0,0,5.21,2.24c1.8,0,2.88-.68,2.88-1.87,0-3.43-8.32-1.52-8.32-7,0-2.64,2.27-4.29,5.61-4.29A10,10,0,0,1,188.72,1456.28Z" transform="translate(-95.7 -1279.73)" style="fill: #fff200"/>
    <path d="M204.63,1470.21H202.1v-2.29a4.31,4.31,0,0,1-4.18,2.38c-2.68,0-4.29-1.72-4.29-4.51v-7.28h2.53v6.58a2.57,2.57,0,0,0,2.73,2.84c2,0,3.21-1.61,3.21-3.65v-5.77h2.53v11.71Z" transform="translate(-95.7 -1279.73)" style="fill: #fff200"/>
    <path d="M222.89,1464.4c0,3.5-2.2,5.9-5.54,5.9a4.6,4.6,0,0,1-4.14-2.11v6.29h-2.53v-16h2.53v2a4.57,4.57,0,0,1,4.09-2.11C220.62,1458.41,222.89,1460.83,222.89,1464.4Zm-2.55-.09a3.57,3.57,0,1,0-3.56,3.83A3.55,3.55,0,0,0,220.34,1464.31Z" transform="translate(-95.7 -1279.73)" style="fill: #fff200"/>
    <path d="M238,1465.32h-8.85a3.56,3.56,0,0,0,3.63,2.93,4.55,4.55,0,0,0,3.3-1.36l1.34,1.43a6.37,6.37,0,0,1-4.84,2,5.94,5.94,0,1,1-.07-11.88C236.66,1458.41,238.33,1461.1,238,1465.32Zm-2.2-1.85a3,3,0,0,0-3.26-3,3.33,3.33,0,0,0-3.43,3h6.69Z" transform="translate(-95.7 -1279.73)" style="fill: #fff200"/>
    <path d="M245.39,1460.83a4.25,4.25,0,0,1,4-2.42v2.42a3.55,3.55,0,0,0-4,3.26v6.12h-2.53V1458.5h2.53v2.33Z" transform="translate(-95.7 -1279.73)" style="fill: #fff200"/>
    <path d="M268.45,1454.8c3.19,0,5.17,1.45,5.17,3.85a3.37,3.37,0,0,1-2.71,3.43,3.74,3.74,0,0,1,3.3,3.89c0,2.64-2.13,4.22-5.61,4.22h-6.84v-15.4h6.69Zm-4.09,6.38h4c1.65,0,2.64-.77,2.64-2.07s-1-2-2.64-2h-4v4.07Zm0,6.71h4c2,0,3.23-.79,3.23-2.24s-1.21-2.18-3.23-2.18h-4v4.42Z" transform="translate(-95.7 -1279.73)" style="fill: #fff200"/>
    <path d="M290.45,1464.35a6.11,6.11,0,1,1-6.09-5.94A5.74,5.74,0,0,1,290.45,1464.35Zm-9.68,0a3.58,3.58,0,1,0,3.59-3.78A3.53,3.53,0,0,0,280.77,1464.38Z" transform="translate(-95.7 -1279.73)" style="fill: #fff200"/>
    <path d="M306.29,1470.21l-3-8.67-3,8.67h-2.6l-4.31-11.71H296l3,9.2,2.95-9.2h2.62l3,9.2,3-9.2h2.57l-4.27,11.71h-2.62Z" transform="translate(-95.7 -1279.73)" style="fill: #fff200"/>
    <path d="M317.24,1470.21v-16.33h2.53v16.33h-2.53Z" transform="translate(-95.7 -1279.73)" style="fill: #fff200"/>
    <path d="M336,1457.14v3.32l2.11,0c3.34,0,5.5,2,5.5,4.69,0,3.13-2.24,5.17-5.7,5.17a10.24,10.24,0,0,1-5.48-1.76l1-2.11a6.71,6.71,0,0,0,4.16,1.63c2,0,3.21-1,3.21-2.77,0-1.56-1.21-2.53-3.19-2.53-0.92,0-3,.09-4,0.2v-8.14h9.37l0,2.33h-7Z" transform="translate(-95.7 -1279.73)" style="fill: #fff200"/>
    <path d="M360.87,1462.51c0,5-2.33,7.77-6.54,7.77s-6.56-2.77-6.56-7.77,2.33-7.77,6.56-7.77S360.87,1457.51,360.87,1462.51Zm-10.43,0c0,3.89,1.3,5.72,3.89,5.72s3.87-1.83,3.87-5.72-1.3-5.72-3.87-5.72S350.44,1458.59,350.44,1462.51Z" transform="translate(-95.7 -1279.73)" style="fill: #fff200"/>
    <path d="M367.86,1469a2,2,0,0,1-.4,1.17l-1.25,1.89h-1.3l0.84-1.92A1.38,1.38,0,1,1,367.86,1469Z" transform="translate(-95.7 -1279.73)" style="fill: #fff200"/>
    <path d="M393.1,1464.4c0,3.5-2.2,5.9-5.54,5.9a4.6,4.6,0,0,1-4.14-2.11v2h-2.53v-16.33h2.53v6.64a4.57,4.57,0,0,1,4.09-2.11C390.83,1458.41,393.1,1460.83,393.1,1464.4Zm-2.55-.09a3.57,3.57,0,1,0-3.56,3.83A3.55,3.55,0,0,0,390.55,1464.31Z" transform="translate(-95.7 -1279.73)" style="fill: #fff200"/>
    <path d="M408.57,1470.21H406v-2.29a4.31,4.31,0,0,1-4.18,2.38c-2.68,0-4.29-1.72-4.29-4.51v-7.28h2.53v6.58a2.57,2.57,0,0,0,2.73,2.84c2,0,3.21-1.61,3.21-3.65v-5.77h2.53v11.71Z" transform="translate(-95.7 -1279.73)" style="fill: #fff200"/>
    <path d="M421.13,1469.46a5.62,5.62,0,0,1-2.88.86,3.08,3.08,0,0,1-3.28-3.41v-6.07h-1.65v-1.89H415v-3.21h2.51v3.21h3.45v1.89h-3.45v5.61c0,1.21.46,1.58,1.25,1.58a4.09,4.09,0,0,0,1.76-.51Z" transform="translate(-95.7 -1279.73)" style="fill: #fff200"/>
    <path d="M440.16,1469.46a5.62,5.62,0,0,1-2.88.86,3.08,3.08,0,0,1-3.28-3.41v-6.07h-1.65v-1.89H434v-3.21h2.51v3.21H440v1.89h-3.45v5.61c0,1.21.46,1.58,1.25,1.58a4.09,4.09,0,0,0,1.76-.51Z" transform="translate(-95.7 -1279.73)" style="fill: #fff200"/>
    <path d="M456,1462.92v7.28h-2.53v-6.58a2.61,2.61,0,0,0-2.82-2.84,3.34,3.34,0,0,0-3.34,3.65v5.76H444.8v-16.33h2.53v6.91a4.43,4.43,0,0,1,4.33-2.38C454.39,1458.41,456,1460.13,456,1462.92Z" transform="translate(-95.7 -1279.73)" style="fill: #fff200"/>
    <path d="M468.63,1468.78a4.75,4.75,0,0,1-3.87,1.54c-2.53,0-4.11-1.56-4.11-3.63s1.61-3.5,4.42-3.52h3.54v-0.35c0-1.47-.95-2.35-2.79-2.35a6.17,6.17,0,0,0-3.46,1.19l-1-1.76a8.57,8.57,0,0,1,5-1.47c3,0,4.71,1.54,4.73,4.12l0,7.68h-2.49v-1.43Zm0-2.68V1465h-3.17c-1.65,0-2.42.44-2.42,1.56s0.86,1.74,2.27,1.74C467.09,1468.31,468.47,1467.37,468.6,1466.09Z" transform="translate(-95.7 -1279.73)" style="fill: #fff200"/>
    <path d="M483.32,1469.46a5.62,5.62,0,0,1-2.88.86,3.08,3.08,0,0,1-3.28-3.41v-6.07h-1.65v-1.89h1.65v-3.21h2.51v3.21h3.45v1.89h-3.45v5.61c0,1.21.46,1.58,1.25,1.58a4.09,4.09,0,0,0,1.76-.51Z" transform="translate(-95.7 -1279.73)" style="fill: #fff200"/>
    <path d="M489.72,1456.21a2,2,0,0,1-.4,1.14l-1.25,1.89h-1.3l0.84-1.89a1.41,1.41,0,0,1,.77-2.55A1.32,1.32,0,0,1,489.72,1456.21Z" transform="translate(-95.7 -1279.73)" style="fill: #fff200"/>
    <path d="M502.35,1459.58l-0.92,1.87a6.87,6.87,0,0,0-3.37-1c-1,0-1.72.33-1.72,1.17,0,2.16,6.23,1,6.21,5.24,0,2.4-2.13,3.48-4.49,3.48a7.24,7.24,0,0,1-4.71-1.63l0.9-1.8a6.38,6.38,0,0,0,3.92,1.45c1.08,0,1.92-.37,1.92-1.25,0-2.4-6.16-1.06-6.14-5.28,0-2.38,2.07-3.39,4.31-3.39A7.4,7.4,0,0,1,502.35,1459.58Z" transform="translate(-95.7 -1279.73)" style="fill: #fff200"/>
    <path d="M526.38,1462.92v7.28h-2.53v-6.58a2.61,2.61,0,0,0-2.82-2.84,3.28,3.28,0,0,0-3.32,3.19v6.23h-2.53V1458.5h2.53v2.25a4.42,4.42,0,0,1,4.31-2.33C524.75,1458.41,526.38,1460.13,526.38,1462.92Z" transform="translate(-95.7 -1279.73)" style="fill: #fff200"/>
    <path d="M543.07,1464.35a6.11,6.11,0,1,1-6.09-5.94A5.74,5.74,0,0,1,543.07,1464.35Zm-9.68,0a3.58,3.58,0,1,0,3.59-3.78A3.53,3.53,0,0,0,533.39,1464.38Z" transform="translate(-95.7 -1279.73)" style="fill: #fff200"/>
    <path d="M554.53,1469.46a5.62,5.62,0,0,1-2.88.86,3.08,3.08,0,0,1-3.28-3.41v-6.07h-1.65v-1.89h1.65v-3.21h2.51v3.21h3.45v1.89h-3.45v5.61c0,1.21.46,1.58,1.25,1.58a4.09,4.09,0,0,0,1.76-.51Z" transform="translate(-95.7 -1279.73)" style="fill: #fff200"/>
    <path d="M573.56,1469.46a5.62,5.62,0,0,1-2.88.86,3.08,3.08,0,0,1-3.28-3.41v-6.07h-1.65v-1.89h1.65v-3.21h2.51v3.21h3.45v1.89h-3.45v5.61c0,1.21.46,1.58,1.25,1.58a4.09,4.09,0,0,0,1.76-.51Z" transform="translate(-95.7 -1279.73)" style="fill: #fff200"/>
    <path d="M589.21,1464.35a6.11,6.11,0,1,1-6.09-5.94A5.74,5.74,0,0,1,589.21,1464.35Zm-9.68,0a3.58,3.58,0,1,0,3.59-3.78A3.53,3.53,0,0,0,579.53,1464.38Z" transform="translate(-95.7 -1279.73)" style="fill: #fff200"/>
    <path d="M609.51,1459.58l-0.92,1.87a6.87,6.87,0,0,0-3.37-1c-1,0-1.72.33-1.72,1.17,0,2.16,6.23,1,6.21,5.24,0,2.4-2.13,3.48-4.49,3.48a7.24,7.24,0,0,1-4.71-1.63l0.9-1.8a6.38,6.38,0,0,0,3.92,1.45c1.08,0,1.91-.37,1.91-1.25,0-2.4-6.16-1.06-6.14-5.28,0-2.38,2.07-3.39,4.31-3.39A7.4,7.4,0,0,1,609.51,1459.58Z" transform="translate(-95.7 -1279.73)" style="fill: #fff200"/>
    <path d="M621.48,1468.78a4.75,4.75,0,0,1-3.87,1.54c-2.53,0-4.11-1.56-4.11-3.63s1.61-3.5,4.42-3.52h3.54v-0.35c0-1.47-.95-2.35-2.79-2.35a6.17,6.17,0,0,0-3.46,1.19l-1-1.76a8.57,8.57,0,0,1,5-1.47c3,0,4.71,1.54,4.73,4.12l0,7.68h-2.49v-1.43Zm0-2.68V1465h-3.17c-1.65,0-2.42.44-2.42,1.56s0.86,1.74,2.27,1.74C619.94,1468.31,621.33,1467.37,621.46,1466.09Z" transform="translate(-95.7 -1279.73)" style="fill: #fff200"/>
    <path d="M634.15,1471.81a3.91,3.91,0,0,1-3.81,2.77,4,4,0,0,1-2.71-1l1.08-2a2.48,2.48,0,0,0,1.52.57,1.91,1.91,0,0,0,1.78-1.3l0.4-.88-4.84-11.53h2.62l3.5,8.87,3.26-8.87h2.53Z" transform="translate(-95.7 -1279.73)" style="fill: #fff200"/>
    <path d="M184.74,1495.86a5.62,5.62,0,0,1-2.88.86,3.08,3.08,0,0,1-3.28-3.41v-6.07h-1.65v-1.89h1.65v-3.21h2.51v3.21h3.45v1.89h-3.45v5.61c0,1.21.46,1.58,1.25,1.58a4.09,4.09,0,0,0,1.76-.51Z" transform="translate(-95.7 -1279.73)" style="fill: #fff200"/>
    <path d="M200.6,1489.32v7.28h-2.53V1490a2.61,2.61,0,0,0-2.82-2.84,3.34,3.34,0,0,0-3.34,3.65v5.76h-2.53v-16.33h2.53v6.91a4.43,4.43,0,0,1,4.33-2.38C199,1484.81,200.6,1486.53,200.6,1489.32Z" transform="translate(-95.7 -1279.73)" style="fill: #fff200"/>
    <path d="M216.49,1491.72h-8.85a3.56,3.56,0,0,0,3.63,2.93,4.55,4.55,0,0,0,3.3-1.36l1.34,1.43a6.37,6.37,0,0,1-4.84,2,5.94,5.94,0,1,1-.07-11.88C215.12,1484.81,216.79,1487.5,216.49,1491.72Zm-2.2-1.85a3,3,0,0,0-3.26-3,3.33,3.33,0,0,0-3.43,3h6.69Z" transform="translate(-95.7 -1279.73)" style="fill: #fff200"/>
    <path d="M223.85,1487.23a4.25,4.25,0,0,1,4-2.42v2.42a3.55,3.55,0,0,0-4,3.26v6.12h-2.53V1484.9h2.53v2.33Z" transform="translate(-95.7 -1279.73)" style="fill: #fff200"/>
    <path d="M242.49,1491.72h-8.85a3.56,3.56,0,0,0,3.63,2.93,4.55,4.55,0,0,0,3.3-1.36l1.34,1.43a6.37,6.37,0,0,1-4.84,2,5.94,5.94,0,1,1-.07-11.88C241.12,1484.81,242.8,1487.5,242.49,1491.72Zm-2.2-1.85a3,3,0,0,0-3.26-3,3.33,3.33,0,0,0-3.43,3h6.69Z" transform="translate(-95.7 -1279.73)" style="fill: #fff200"/>
    <path d="M266.2,1496.61l-3-8.67-3,8.67h-2.6l-4.31-11.71H256l3,9.2,2.95-9.2h2.62l3,9.2,3-9.2h2.57l-4.27,11.71H266.2Z" transform="translate(-95.7 -1279.73)" style="fill: #fff200"/>
    <path d="M287.35,1491.72H278.5a3.56,3.56,0,0,0,3.63,2.93,4.55,4.55,0,0,0,3.3-1.36l1.34,1.43a6.37,6.37,0,0,1-4.84,2,5.94,5.94,0,1,1-.07-11.88C286,1484.81,287.65,1487.5,287.35,1491.72Zm-2.2-1.85a3,3,0,0,0-3.26-3,3.33,3.33,0,0,0-3.43,3h6.69Z" transform="translate(-95.7 -1279.73)" style="fill: #fff200"/>
    <path d="M294.71,1487.23a4.25,4.25,0,0,1,4-2.42v2.42a3.55,3.55,0,0,0-4,3.26v6.12h-2.53V1484.9h2.53v2.33Z" transform="translate(-95.7 -1279.73)" style="fill: #fff200"/>
    <path d="M313.35,1491.72H304.5a3.56,3.56,0,0,0,3.63,2.93,4.55,4.55,0,0,0,3.3-1.36l1.34,1.43a6.37,6.37,0,0,1-4.84,2,5.94,5.94,0,1,1-.07-11.88C312,1484.81,313.66,1487.5,313.35,1491.72Zm-2.2-1.85a3,3,0,0,0-3.26-3,3.33,3.33,0,0,0-3.43,3h6.69Z" transform="translate(-95.7 -1279.73)" style="fill: #fff200"/>
    <path d="M329.39,1489.32v7.28h-2.53V1490a2.61,2.61,0,0,0-2.82-2.84,3.28,3.28,0,0,0-3.32,3.19v6.23h-2.53V1484.9h2.53v2.25a4.42,4.42,0,0,1,4.31-2.33C327.76,1484.81,329.39,1486.53,329.39,1489.32Z" transform="translate(-95.7 -1279.73)" style="fill: #fff200"/>
    <path d="M336.84,1482.61a2,2,0,0,1-.4,1.14l-1.25,1.89h-1.3l0.84-1.89a1.41,1.41,0,0,1,.77-2.55A1.32,1.32,0,0,1,336.84,1482.61Z" transform="translate(-95.7 -1279.73)" style="fill: #fff200"/>
    <path d="M348.5,1495.86a5.62,5.62,0,0,1-2.88.86,3.08,3.08,0,0,1-3.28-3.41v-6.07h-1.65v-1.89h1.65v-3.21h2.51v3.21h3.45v1.89h-3.45v5.61c0,1.21.46,1.58,1.25,1.58a4.09,4.09,0,0,0,1.76-.51Z" transform="translate(-95.7 -1279.73)" style="fill: #fff200"/>
    <path d="M372,1490.75a6.11,6.11,0,1,1-6.09-5.94A5.74,5.74,0,0,1,372,1490.75Zm-9.68,0a3.58,3.58,0,1,0,3.59-3.78A3.53,3.53,0,0,0,362.34,1490.78Z" transform="translate(-95.7 -1279.73)" style="fill: #fff200"/>
    <path d="M383.48,1495.86a5.62,5.62,0,0,1-2.88.86,3.08,3.08,0,0,1-3.28-3.41v-6.07h-1.65v-1.89h1.65v-3.21h2.51v3.21h3.45v1.89h-3.45v5.61c0,1.21.46,1.58,1.25,1.58a4.09,4.09,0,0,0,1.76-.51Z" transform="translate(-95.7 -1279.73)" style="fill: #fff200"/>
    <path d="M399.35,1489.32v7.28h-2.53V1490a2.61,2.61,0,0,0-2.82-2.84,3.34,3.34,0,0,0-3.34,3.65v5.76h-2.53v-16.33h2.53v6.91a4.43,4.43,0,0,1,4.33-2.38C397.72,1484.81,399.35,1486.53,399.35,1489.32Z" transform="translate(-95.7 -1279.73)" style="fill: #fff200"/>
    <path d="M415.23,1491.72h-8.85a3.56,3.56,0,0,0,3.63,2.93,4.55,4.55,0,0,0,3.3-1.36l1.34,1.43a6.37,6.37,0,0,1-4.84,2,5.94,5.94,0,1,1-.07-11.88C413.87,1484.81,415.54,1487.5,415.23,1491.72Zm-2.2-1.85a3,3,0,0,0-3.26-3,3.33,3.33,0,0,0-3.43,3H413Z" transform="translate(-95.7 -1279.73)" style="fill: #fff200"/>
    <path d="M422.6,1487.23a4.25,4.25,0,0,1,4-2.42v2.42a3.55,3.55,0,0,0-4,3.26v6.12h-2.53V1484.9h2.53v2.33Z" transform="translate(-95.7 -1279.73)" style="fill: #fff200"/>
    <path d="M449.81,1496.61l-3-8.67-3,8.67h-2.6L437,1484.9h2.6l3,9.2,2.95-9.2h2.62l3,9.2,3-9.2h2.57l-4.27,11.71h-2.62Z" transform="translate(-95.7 -1279.73)" style="fill: #fff200"/>
    <path d="M463.39,1481.56a1.48,1.48,0,1,1-1.47-1.54A1.46,1.46,0,0,1,463.39,1481.56Zm-2.73,15V1484.9h2.51v11.71h-2.51Z" transform="translate(-95.7 -1279.73)" style="fill: #fff200"/>
    <path d="M480.31,1489.32v7.28h-2.53V1490a2.61,2.61,0,0,0-2.82-2.84,3.28,3.28,0,0,0-3.32,3.19v6.23h-2.53V1484.9h2.53v2.25a4.42,4.42,0,0,1,4.31-2.33C478.68,1484.81,480.31,1486.53,480.31,1489.32Z" transform="translate(-95.7 -1279.73)" style="fill: #fff200"/>
    <path d="M497.09,1489.32v7.28h-2.53V1490a2.61,2.61,0,0,0-2.82-2.84,3.28,3.28,0,0,0-3.32,3.19v6.23h-2.53V1484.9h2.53v2.25a4.42,4.42,0,0,1,4.31-2.33C495.46,1484.81,497.09,1486.53,497.09,1489.32Z" transform="translate(-95.7 -1279.73)" style="fill: #fff200"/>
    <path d="M513,1491.72h-8.85a3.56,3.56,0,0,0,3.63,2.93,4.55,4.55,0,0,0,3.3-1.36l1.34,1.43a6.37,6.37,0,0,1-4.84,2,5.94,5.94,0,1,1-.07-11.88C511.61,1484.81,513.28,1487.5,513,1491.72Zm-2.2-1.85a3,3,0,0,0-3.26-3,3.33,3.33,0,0,0-3.43,3h6.69Z" transform="translate(-95.7 -1279.73)" style="fill: #fff200"/>
    <path d="M520.34,1487.23a4.25,4.25,0,0,1,4-2.42v2.42a3.55,3.55,0,0,0-4,3.26v6.12h-2.53V1484.9h2.53v2.33Z" transform="translate(-95.7 -1279.73)" style="fill: #fff200"/>
    <path d="M536.27,1486l-0.92,1.87a6.87,6.87,0,0,0-3.37-1c-1,0-1.72.33-1.72,1.17,0,2.16,6.23,1,6.21,5.24,0,2.4-2.13,3.48-4.49,3.48a7.24,7.24,0,0,1-4.71-1.63l0.9-1.8a6.38,6.38,0,0,0,3.92,1.45c1.08,0,1.91-.37,1.91-1.25,0-2.4-6.16-1.06-6.14-5.28,0-2.38,2.07-3.39,4.31-3.39A7.4,7.4,0,0,1,536.27,1486Z" transform="translate(-95.7 -1279.73)" style="fill: #fff200"/>
    <path d="M558.73,1486.73l-1.39,1.63A4.42,4.42,0,0,0,554,1487a3.75,3.75,0,0,0,0,7.48,4.36,4.36,0,0,0,3.45-1.41l1.41,1.41a6,6,0,0,1-5,2.18,5.94,5.94,0,0,1,0-11.88A6.18,6.18,0,0,1,558.73,1486.73Z" transform="translate(-95.7 -1279.73)" style="fill: #fff200"/>
    <path d="M574.82,1490.75a6.11,6.11,0,1,1-6.09-5.94A5.74,5.74,0,0,1,574.82,1490.75Zm-9.68,0a3.58,3.58,0,1,0,3.59-3.78A3.53,3.53,0,0,0,565.13,1490.78Z" transform="translate(-95.7 -1279.73)" style="fill: #fff200"/>
    <path d="M599.21,1489.32v7.28h-2.53V1490a2.6,2.6,0,0,0-2.77-2.86,3.33,3.33,0,0,0-3.21,3.65v5.79h-2.53V1490a2.59,2.59,0,0,0-2.75-2.86,3.35,3.35,0,0,0-3.26,3.65v5.79h-2.51V1484.9h2.51v2.27a4.32,4.32,0,0,1,4.25-2.35,3.92,3.92,0,0,1,4.07,2.82,4.3,4.3,0,0,1,4.44-2.82C597.61,1484.81,599.21,1486.53,599.21,1489.32Z" transform="translate(-95.7 -1279.73)" style="fill: #fff200"/>
    <path d="M607.53,1481.56a1.48,1.48,0,1,1-1.47-1.54A1.46,1.46,0,0,1,607.53,1481.56Zm-2.73,15V1484.9h2.51v11.71H604.8Z" transform="translate(-95.7 -1279.73)" style="fill: #fff200"/>
    <path d="M624.45,1489.32v7.28h-2.53V1490a2.61,2.61,0,0,0-2.82-2.84,3.28,3.28,0,0,0-3.32,3.19v6.23h-2.53V1484.9h2.53v2.25a4.42,4.42,0,0,1,4.31-2.33C622.82,1484.81,624.45,1486.53,624.45,1489.32Z" transform="translate(-95.7 -1279.73)" style="fill: #fff200"/>
    <path d="M640.6,1495.46c0,3.37-2.4,5.48-6.07,5.48a8.51,8.51,0,0,1-4.86-1.54l1.08-1.83a5.91,5.91,0,0,0,3.67,1.28c2.22,0,3.67-1.3,3.67-3.32v-1.47a4.29,4.29,0,0,1-3.87,2c-3.17,0-5.28-2.29-5.28-5.65s2.09-5.54,5.19-5.57a4.37,4.37,0,0,1,4,2v-1.89h2.51v10.56Zm-2.51-5a3.33,3.33,0,0,0-3.37-3.59A3.61,3.61,0,1,0,638.09,1490.45Z" transform="translate(-95.7 -1279.73)" style="fill: #fff200"/>
    <path d="M189.23,1517.15a6.11,6.11,0,1,1-6.09-5.94A5.74,5.74,0,0,1,189.23,1517.15Zm-9.68,0a3.58,3.58,0,1,0,3.59-3.78A3.53,3.53,0,0,0,179.55,1517.17Z" transform="translate(-95.7 -1279.73)" style="fill: #fff200"/>
    <path d="M204.69,1523h-2.53v-2.29a4.31,4.31,0,0,1-4.18,2.38c-2.68,0-4.29-1.72-4.29-4.51v-7.28h2.53v6.58a2.57,2.57,0,0,0,2.73,2.84c2,0,3.21-1.61,3.21-3.65v-5.77h2.53V1523Z" transform="translate(-95.7 -1279.73)" style="fill: #fff200"/>
    <path d="M217.26,1522.26a5.62,5.62,0,0,1-2.88.86,3.08,3.08,0,0,1-3.28-3.41v-6.07h-1.65v-1.89h1.65v-3.21h2.51v3.21h3.45v1.89H213.6v5.61c0,1.21.46,1.58,1.25,1.58a4.09,4.09,0,0,0,1.76-.51Z" transform="translate(-95.7 -1279.73)" style="fill: #fff200"/>
    <path d="M240.77,1517.15a6.11,6.11,0,1,1-6.09-5.94A5.74,5.74,0,0,1,240.77,1517.15Zm-9.68,0a3.58,3.58,0,1,0,3.59-3.78A3.53,3.53,0,0,0,231.09,1517.17Z" transform="translate(-95.7 -1279.73)" style="fill: #fff200"/>
    <path d="M248.6,1510.35v1.39h3.06v1.89H248.6V1523H246.1v-9.37h-1.54v-1.89h1.54v-1.14a3.84,3.84,0,0,1,4-4,4.47,4.47,0,0,1,2.64.81l-1,1.94a2.82,2.82,0,0,0-1.61-.55A1.47,1.47,0,0,0,248.6,1510.35Z" transform="translate(-95.7 -1279.73)" style="fill: #fff200"/>
    <path d="M269.86,1522.26a5.62,5.62,0,0,1-2.88.86,3.08,3.08,0,0,1-3.28-3.41v-6.07H262v-1.89h1.65v-3.21h2.51v3.21h3.45v1.89H266.2v5.61c0,1.21.46,1.58,1.25,1.58a4.09,4.09,0,0,0,1.76-.51Z" transform="translate(-95.7 -1279.73)" style="fill: #fff200"/>
    <path d="M285.72,1515.72V1523h-2.53v-6.58a2.61,2.61,0,0,0-2.82-2.84,3.34,3.34,0,0,0-3.34,3.65V1523H274.5v-16.33H277v6.91a4.43,4.43,0,0,1,4.33-2.38C284.09,1511.21,285.72,1512.93,285.72,1515.72Z" transform="translate(-95.7 -1279.73)" style="fill: #fff200"/>
    <path d="M301.6,1518.12h-8.85a3.56,3.56,0,0,0,3.63,2.93,4.55,4.55,0,0,0,3.3-1.36l1.34,1.43a6.37,6.37,0,0,1-4.84,2,5.94,5.94,0,1,1-.07-11.88C300.24,1511.21,301.91,1513.9,301.6,1518.12Zm-2.2-1.85a3,3,0,0,0-3.26-3,3.33,3.33,0,0,0-3.43,3h6.69Z" transform="translate(-95.7 -1279.73)" style="fill: #fff200"/>
    <path d="M321.16,1507.6c3.19,0,5.17,1.45,5.17,3.85a3.37,3.37,0,0,1-2.71,3.43,3.74,3.74,0,0,1,3.3,3.89c0,2.64-2.13,4.22-5.61,4.22h-6.84v-15.4h6.69Zm-4.09,6.38h4c1.65,0,2.64-.77,2.64-2.07s-1-2-2.64-2h-4V1514Zm0,6.71h4c2,0,3.23-.79,3.23-2.24s-1.21-2.18-3.23-2.18h-4v4.42Z" transform="translate(-95.7 -1279.73)" style="fill: #fff200"/>
    <path d="M334.78,1508a1.48,1.48,0,1,1-1.47-1.54A1.46,1.46,0,0,1,334.78,1508ZM332,1523V1511.3h2.51V1523H332Z" transform="translate(-95.7 -1279.73)" style="fill: #fff200"/>
    <path d="M351.06,1521.86c0,3.37-2.4,5.48-6.07,5.48a8.51,8.51,0,0,1-4.86-1.54l1.08-1.83a5.91,5.91,0,0,0,3.67,1.28c2.22,0,3.67-1.3,3.67-3.32v-1.47a4.29,4.29,0,0,1-3.87,2c-3.17,0-5.28-2.29-5.28-5.65s2.09-5.54,5.19-5.57a4.37,4.37,0,0,1,4,2v-1.89h2.51v10.56Zm-2.51-5a3.33,3.33,0,0,0-3.37-3.59A3.61,3.61,0,1,0,348.55,1516.84Z" transform="translate(-95.7 -1279.73)" style="fill: #fff200"/>
    <path d="M377.61,1515.44v5.68a10.44,10.44,0,0,1-6,2,7.85,7.85,0,0,1-8.1-7.81c0-4.4,3.59-7.77,8.25-7.77a9.24,9.24,0,0,1,5.92,2.16l-1.47,1.91a6.69,6.69,0,0,0-4.45-1.76,5.47,5.47,0,1,0,0,10.94,7.17,7.17,0,0,0,3.54-1.06v-4.29h2.27Z" transform="translate(-95.7 -1279.73)" style="fill: #fff200"/>
    <path d="M390.35,1521.58a4.75,4.75,0,0,1-3.87,1.54c-2.53,0-4.11-1.56-4.11-3.63s1.61-3.5,4.42-3.52h3.54v-0.35c0-1.47-.95-2.35-2.79-2.35a6.17,6.17,0,0,0-3.46,1.19l-1-1.76a8.57,8.57,0,0,1,5-1.47c3,0,4.71,1.54,4.73,4.12l0,7.68h-2.49v-1.43Zm0-2.68v-1.08h-3.17c-1.65,0-2.42.44-2.42,1.56s0.86,1.74,2.27,1.74C388.81,1521.11,390.2,1520.17,390.33,1518.89Z" transform="translate(-95.7 -1279.73)" style="fill: #fff200"/>
    <path d="M418,1515.72V1523h-2.53v-6.58a2.6,2.6,0,0,0-2.77-2.86,3.33,3.33,0,0,0-3.21,3.65V1523h-2.53v-6.58a2.59,2.59,0,0,0-2.75-2.86,3.35,3.35,0,0,0-3.26,3.65V1523h-2.51V1511.3h2.51v2.27a4.32,4.32,0,0,1,4.25-2.35,3.92,3.92,0,0,1,4.07,2.82,4.3,4.3,0,0,1,4.44-2.82C416.38,1511.21,418,1512.93,418,1515.72Z" transform="translate(-95.7 -1279.73)" style="fill: #fff200"/>
    <path d="M433.87,1518.12H425a3.56,3.56,0,0,0,3.63,2.93,4.55,4.55,0,0,0,3.3-1.36l1.34,1.43a6.37,6.37,0,0,1-4.84,2,5.94,5.94,0,1,1-.07-11.88C432.5,1511.21,434.17,1513.9,433.87,1518.12Zm-2.2-1.85a3,3,0,0,0-3.26-3,3.33,3.33,0,0,0-3.43,3h6.69Z" transform="translate(-95.7 -1279.73)" style="fill: #fff200"/>
    <path d="M440.62,1521.73a1.39,1.39,0,1,1-2.77,0A1.39,1.39,0,1,1,440.62,1521.73Z" transform="translate(-95.7 -1279.73)" style="fill: #fff200"/>
    <path d="M453.73,1523v-15.4h2.6V1523h-2.6Z" transform="translate(-95.7 -1279.73)" style="fill: #fff200"/>
    <path d="M474.74,1517.2c0,3.5-2.2,5.9-5.54,5.9a4.6,4.6,0,0,1-4.14-2.11v6.29h-2.53v-16h2.53v2a4.57,4.57,0,0,1,4.09-2.11C472.47,1511.21,474.74,1513.63,474.74,1517.2Zm-2.55-.09a3.57,3.57,0,1,0-3.56,3.83A3.55,3.55,0,0,0,472.19,1517.11Z" transform="translate(-95.7 -1279.73)" style="fill: #fff200"/>
    <path d="M487.17,1512.38l-0.92,1.87a6.87,6.87,0,0,0-3.37-1c-1,0-1.72.33-1.72,1.17,0,2.16,6.23,1,6.21,5.24,0,2.4-2.13,3.48-4.49,3.48a7.24,7.24,0,0,1-4.71-1.63l0.9-1.8a6.38,6.38,0,0,0,3.92,1.45c1.08,0,1.92-.37,1.92-1.25,0-2.4-6.16-1.06-6.14-5.28,0-2.38,2.07-3.39,4.31-3.39A7.4,7.4,0,0,1,487.17,1512.38Z" transform="translate(-95.7 -1279.73)" style="fill: #fff200"/>
    <path d="M503.23,1517.15a6.11,6.11,0,1,1-6.09-5.94A5.74,5.74,0,0,1,503.23,1517.15Zm-9.68,0a3.58,3.58,0,1,0,3.59-3.78A3.53,3.53,0,0,0,493.55,1517.17Z" transform="translate(-95.7 -1279.73)" style="fill: #fff200"/>
    <path d="M515.66,1512.38l-0.92,1.87a6.87,6.87,0,0,0-3.37-1c-1,0-1.72.33-1.72,1.17,0,2.16,6.23,1,6.21,5.24,0,2.4-2.13,3.48-4.49,3.48a7.24,7.24,0,0,1-4.71-1.63l0.9-1.8a6.38,6.38,0,0,0,3.92,1.45c1.08,0,1.92-.37,1.92-1.25,0-2.4-6.16-1.06-6.14-5.28,0-2.38,2.07-3.39,4.31-3.39A7.4,7.4,0,0,1,515.66,1512.38Z" transform="translate(-95.7 -1279.73)" style="fill: #fff200"/>
    <path d="M541.31,1509.91l-1.52,1.89a6,6,0,0,0-4.29-2,5.42,5.42,0,1,0,0,10.85,6.37,6.37,0,0,0,4.29-1.83l1.54,1.72a8.74,8.74,0,0,1-6,2.53,7.79,7.79,0,1,1,.09-15.58A8.5,8.5,0,0,1,541.31,1509.91Z" transform="translate(-95.7 -1279.73)" style="fill: #fff200"/>
    <path d="M557.13,1517.15a6.11,6.11,0,1,1-6.09-5.94A5.74,5.74,0,0,1,557.13,1517.15Zm-9.68,0a3.58,3.58,0,1,0,3.59-3.78A3.53,3.53,0,0,0,547.45,1517.17Z" transform="translate(-95.7 -1279.73)" style="fill: #fff200"/>
    <path d="M573.17,1515.72V1523h-2.53v-6.58a2.61,2.61,0,0,0-2.82-2.84,3.28,3.28,0,0,0-3.32,3.19V1523H562V1511.3h2.53v2.25a4.42,4.42,0,0,1,4.31-2.33C571.54,1511.21,573.17,1512.93,573.17,1515.72Z" transform="translate(-95.7 -1279.73)" style="fill: #fff200"/>
    <path d="M590,1515.72V1523h-2.53v-6.58a2.61,2.61,0,0,0-2.82-2.84,3.28,3.28,0,0,0-3.32,3.19V1523h-2.53V1511.3h2.53v2.25a4.42,4.42,0,0,1,4.31-2.33C588.33,1511.21,590,1512.93,590,1515.72Z" transform="translate(-95.7 -1279.73)" style="fill: #fff200"/>
    <path d="M605.84,1518.12H597a3.56,3.56,0,0,0,3.63,2.93,4.55,4.55,0,0,0,3.3-1.36l1.34,1.43a6.37,6.37,0,0,1-4.84,2,5.94,5.94,0,1,1-.07-11.88C604.47,1511.21,606.15,1513.9,605.84,1518.12Zm-2.2-1.85a3,3,0,0,0-3.26-3,3.33,3.33,0,0,0-3.43,3h6.69Z" transform="translate(-95.7 -1279.73)" style="fill: #fff200"/>
    <path d="M620.31,1513.13l-1.39,1.63a4.42,4.42,0,0,0-3.34-1.32,3.75,3.75,0,0,0,0,7.48,4.36,4.36,0,0,0,3.45-1.41l1.41,1.41a6,6,0,0,1-5,2.18,5.94,5.94,0,0,1,0-11.88A6.18,6.18,0,0,1,620.31,1513.13Z" transform="translate(-95.7 -1279.73)" style="fill: #fff200"/>
    <path d="M631.91,1522.26a5.62,5.62,0,0,1-2.88.86,3.08,3.08,0,0,1-3.28-3.41v-6.07h-1.65v-1.89h1.65v-3.21h2.51v3.21h3.45v1.89h-3.45v5.61c0,1.21.46,1.58,1.25,1.58a4.09,4.09,0,0,0,1.76-.51Z" transform="translate(-95.7 -1279.73)" style="fill: #fff200"/>
    <path d="M184.74,1548.66a5.62,5.62,0,0,1-2.88.86,3.08,3.08,0,0,1-3.28-3.41V1540h-1.65v-1.89h1.65v-3.21h2.51v3.21h3.45V1540h-3.45v5.61c0,1.21.46,1.58,1.25,1.58a4.09,4.09,0,0,0,1.76-.51Z" transform="translate(-95.7 -1279.73)" style="fill: #fff200"/>
    <path d="M200.38,1543.55a6.11,6.11,0,1,1-6.09-5.94A5.74,5.74,0,0,1,200.38,1543.55Zm-9.68,0a3.58,3.58,0,1,0,3.59-3.78A3.53,3.53,0,0,0,190.7,1543.58Z" transform="translate(-95.7 -1279.73)" style="fill: #fff200"/>
    <path d="M216.33,1543.55a6.11,6.11,0,1,1-6.09-5.94A5.74,5.74,0,0,1,216.33,1543.55Zm-9.68,0a3.58,3.58,0,1,0,3.59-3.78A3.53,3.53,0,0,0,206.65,1543.58Z" transform="translate(-95.7 -1279.73)" style="fill: #fff200"/>
    <path d="M223.81,1546.13v3.28h-2.53v-16.33h2.53v9.86l5.17-5.24h2.9l-4.33,4.53,4.67,7.17h-3l-3.43-5.37Z" transform="translate(-95.7 -1279.73)" style="fill: #fff200"/>
    <path d="M251.35,1548a4.75,4.75,0,0,1-3.87,1.54c-2.53,0-4.11-1.56-4.11-3.63s1.61-3.5,4.42-3.52h3.54V1542c0-1.47-.95-2.35-2.79-2.35a6.17,6.17,0,0,0-3.46,1.19l-1-1.76a8.57,8.57,0,0,1,5-1.47c3,0,4.71,1.54,4.73,4.12l0,7.68h-2.49V1548Zm0-2.68v-1.08h-3.17c-1.65,0-2.42.44-2.42,1.56s0.86,1.74,2.27,1.74C249.81,1547.51,251.2,1546.57,251.33,1545.29Z" transform="translate(-95.7 -1279.73)" style="fill: #fff200"/>
    <path d="M267.41,1549.41v-16.33h2.53v16.33h-2.53Z" transform="translate(-95.7 -1279.73)" style="fill: #fff200"/>
    <path d="M287.1,1543.55a6.11,6.11,0,1,1-6.09-5.94A5.74,5.74,0,0,1,287.1,1543.55Zm-9.68,0a3.58,3.58,0,1,0,3.59-3.78A3.53,3.53,0,0,0,277.42,1543.58Z" transform="translate(-95.7 -1279.73)" style="fill: #fff200"/>
    <path d="M303.05,1543.55a6.11,6.11,0,1,1-6.09-5.94A5.74,5.74,0,0,1,303.05,1543.55Zm-9.68,0a3.58,3.58,0,1,0,3.59-3.78A3.53,3.53,0,0,0,293.37,1543.58Z" transform="translate(-95.7 -1279.73)" style="fill: #fff200"/>
    <path d="M310.53,1546.13v3.28H308v-16.33h2.53v9.86l5.17-5.24h2.9l-4.33,4.53,4.67,7.17h-3l-3.43-5.37Z" transform="translate(-95.7 -1279.73)" style="fill: #fff200"/>
    <path d="M338.08,1548a4.75,4.75,0,0,1-3.87,1.54c-2.53,0-4.11-1.56-4.11-3.63s1.61-3.5,4.42-3.52h3.54V1542c0-1.47-.95-2.35-2.79-2.35a6.17,6.17,0,0,0-3.46,1.19l-1-1.76a8.57,8.57,0,0,1,5-1.47c3,0,4.71,1.54,4.73,4.12l0,7.68h-2.49V1548Zm0-2.68v-1.08h-3.17c-1.65,0-2.42.44-2.42,1.56s0.86,1.74,2.27,1.74C336.54,1547.51,337.92,1546.57,338.06,1545.29Z" transform="translate(-95.7 -1279.73)" style="fill: #fff200"/>
    <path d="M352.77,1548.66a5.62,5.62,0,0,1-2.88.86,3.08,3.08,0,0,1-3.28-3.41V1540H345v-1.89h1.65v-3.21h2.51v3.21h3.45V1540h-3.45v5.61c0,1.21.46,1.58,1.25,1.58a4.09,4.09,0,0,0,1.76-.51Z" transform="translate(-95.7 -1279.73)" style="fill: #fff200"/>
    <path d="M366.61,1549.41v-13.09h-3V1534h5.61v15.4h-2.6Z" transform="translate(-95.7 -1279.73)" style="fill: #fff200"/>
    <path d="M388.17,1541.71c0,5-2.33,7.77-6.54,7.77s-6.56-2.77-6.56-7.77,2.33-7.77,6.56-7.77S388.17,1536.71,388.17,1541.71Zm-10.43,0c0,3.89,1.3,5.72,3.89,5.72s3.87-1.83,3.87-5.72-1.3-5.72-3.87-5.72S377.74,1537.79,377.74,1541.71Z" transform="translate(-95.7 -1279.73)" style="fill: #fff200"/>
    <path d="M420.73,1542.12v7.28H418.2v-6.58a2.6,2.6,0,0,0-2.77-2.86,3.33,3.33,0,0,0-3.21,3.65v5.79h-2.53v-6.58a2.59,2.59,0,0,0-2.75-2.86,3.35,3.35,0,0,0-3.26,3.65v5.79h-2.51V1537.7h2.51V1540a4.32,4.32,0,0,1,4.25-2.35,3.92,3.92,0,0,1,4.07,2.82,4.3,4.3,0,0,1,4.44-2.82C419.13,1537.61,420.73,1539.33,420.73,1542.12Z" transform="translate(-95.7 -1279.73)" style="fill: #fff200"/>
    <path d="M437.43,1543.55a6.11,6.11,0,1,1-6.09-5.94A5.74,5.74,0,0,1,437.43,1543.55Zm-9.68,0a3.58,3.58,0,1,0,3.59-3.78A3.53,3.53,0,0,0,427.75,1543.58Z" transform="translate(-95.7 -1279.73)" style="fill: #fff200"/>
    <path d="M449.86,1538.78l-0.92,1.87a6.87,6.87,0,0,0-3.37-1c-1,0-1.72.33-1.72,1.17,0,2.16,6.23,1,6.21,5.24,0,2.4-2.13,3.48-4.49,3.48a7.24,7.24,0,0,1-4.71-1.63l0.9-1.8a6.38,6.38,0,0,0,3.92,1.45c1.08,0,1.92-.37,1.92-1.25,0-2.4-6.16-1.06-6.14-5.28,0-2.38,2.07-3.39,4.31-3.39A7.4,7.4,0,0,1,449.86,1538.78Z" transform="translate(-95.7 -1279.73)" style="fill: #fff200"/>
    <path d="M461.43,1548.66a5.62,5.62,0,0,1-2.88.86,3.08,3.08,0,0,1-3.28-3.41V1540h-1.65v-1.89h1.65v-3.21h2.51v3.21h3.45V1540h-3.45v5.61c0,1.21.46,1.58,1.25,1.58a4.09,4.09,0,0,0,1.76-.51Z" transform="translate(-95.7 -1279.73)" style="fill: #fff200"/>
    <path d="M486.16,1543.6c0,3.5-2.2,5.9-5.54,5.9a4.6,4.6,0,0,1-4.14-2.11v2h-2.53v-16.33h2.53v6.64a4.57,4.57,0,0,1,4.09-2.11C483.89,1537.61,486.16,1540,486.16,1543.6Zm-2.55-.09a3.57,3.57,0,1,0-3.56,3.83A3.55,3.55,0,0,0,483.61,1543.51Z" transform="translate(-95.7 -1279.73)" style="fill: #fff200"/>
    <path d="M501.63,1549.41h-2.53v-2.29a4.31,4.31,0,0,1-4.18,2.38c-2.68,0-4.29-1.72-4.29-4.51v-7.28h2.53v6.58a2.57,2.57,0,0,0,2.73,2.84c2,0,3.21-1.61,3.21-3.65v-5.77h2.53v11.71Z" transform="translate(-95.7 -1279.73)" style="fill: #fff200"/>
    <path d="M509.81,1547.34l6.89,0v2.07l-10,0v-1.72l6.69-7.92h-6.49v-2.07l9.62,0v1.69Z" transform="translate(-95.7 -1279.73)" style="fill: #fff200"/>
    <path d="M523.82,1547.34l6.89,0v2.07l-10,0v-1.72l6.69-7.92H520.9v-2.07l9.62,0v1.69Z" transform="translate(-95.7 -1279.73)" style="fill: #fff200"/>
    <path d="M545.89,1544.52H537a3.56,3.56,0,0,0,3.63,2.93,4.55,4.55,0,0,0,3.3-1.36l1.34,1.43a6.37,6.37,0,0,1-4.84,2,5.94,5.94,0,1,1-.07-11.88C544.52,1537.61,546.2,1540.3,545.89,1544.52Zm-2.2-1.85a3,3,0,0,0-3.26-3,3.33,3.33,0,0,0-3.43,3h6.69Z" transform="translate(-95.7 -1279.73)" style="fill: #fff200"/>
    <path d="M561.88,1549.41h-2.53v-2a4.54,4.54,0,0,1-4.11,2.11c-3.37,0-5.61-2.44-5.61-6s2.27-5.92,5.57-5.92a4.63,4.63,0,0,1,4.16,2.13v-6.64h2.53v16.33Zm-2.53-5.81a3.56,3.56,0,0,0-3.59-3.85,3.61,3.61,0,0,0-3.61,3.85A3.6,3.6,0,1,0,559.35,1543.6Z" transform="translate(-95.7 -1279.73)" style="fill: #fff200"/>
    <path d="M582.83,1548a4.75,4.75,0,0,1-3.87,1.54c-2.53,0-4.11-1.56-4.11-3.63s1.61-3.5,4.42-3.52h3.54V1542c0-1.47-.95-2.35-2.79-2.35a6.17,6.17,0,0,0-3.46,1.19l-1-1.76a8.57,8.57,0,0,1,5-1.47c3,0,4.71,1.54,4.73,4.12l0,7.68h-2.49V1548Zm0-2.68v-1.08h-3.17c-1.65,0-2.42.44-2.42,1.56s0.86,1.74,2.27,1.74C581.28,1547.51,582.67,1546.57,582.8,1545.29Z" transform="translate(-95.7 -1279.73)" style="fill: #fff200"/>
    <path d="M603.22,1543.6c0,3.5-2.2,5.9-5.54,5.9a4.6,4.6,0,0,1-4.14-2.11v2H591v-16.33h2.53v6.64a4.57,4.57,0,0,1,4.09-2.11C601,1537.61,603.22,1540,603.22,1543.6Zm-2.55-.09a3.57,3.57,0,1,0-3.56,3.83A3.55,3.55,0,0,0,600.67,1543.51Z" transform="translate(-95.7 -1279.73)" style="fill: #fff200"/>
    <path d="M619.17,1543.55a6.11,6.11,0,1,1-6.09-5.94A5.74,5.74,0,0,1,619.17,1543.55Zm-9.68,0a3.58,3.58,0,1,0,3.59-3.78A3.53,3.53,0,0,0,609.49,1543.58Z" transform="translate(-95.7 -1279.73)" style="fill: #fff200"/>
    <path d="M634.63,1549.41H632.1v-2.29a4.31,4.31,0,0,1-4.18,2.38c-2.68,0-4.29-1.72-4.29-4.51v-7.28h2.53v6.58a2.57,2.57,0,0,0,2.73,2.84c2,0,3.21-1.61,3.21-3.65v-5.77h2.53v11.71Z" transform="translate(-95.7 -1279.73)" style="fill: #fff200"/>
    <path d="M647.2,1548.66a5.62,5.62,0,0,1-2.88.86,3.08,3.08,0,0,1-3.28-3.41V1540h-1.65v-1.89H641v-3.21h2.51v3.21H647V1540h-3.45v5.61c0,1.21.46,1.58,1.25,1.58a4.09,4.09,0,0,0,1.76-.51Z" transform="translate(-95.7 -1279.73)" style="fill: #fff200"/>
    <path d="M185.13,1574.38a4.75,4.75,0,0,1-3.87,1.54c-2.53,0-4.11-1.56-4.11-3.63s1.61-3.5,4.42-3.52h3.54v-0.35c0-1.47-.95-2.35-2.79-2.35a6.17,6.17,0,0,0-3.46,1.19l-1-1.76a8.57,8.57,0,0,1,5-1.47c3,0,4.71,1.54,4.73,4.12l0,7.68h-2.49v-1.43Zm0-2.68v-1.08h-3.17c-1.65,0-2.42.44-2.42,1.56s0.86,1.74,2.27,1.74C183.59,1573.91,185,1573,185.11,1571.69Z" transform="translate(-95.7 -1279.73)" style="fill: #fff200"/>
    <path d="M204.36,1575.81h-2.53v-2a4.54,4.54,0,0,1-4.11,2.11c-3.37,0-5.61-2.44-5.61-6s2.27-5.92,5.57-5.92a4.63,4.63,0,0,1,4.16,2.13v-6.64h2.53v16.33Zm-2.53-5.81a3.56,3.56,0,0,0-3.59-3.85,3.61,3.61,0,0,0-3.61,3.85A3.6,3.6,0,1,0,201.83,1570Z" transform="translate(-95.7 -1279.73)" style="fill: #fff200"/>
    <path d="M218,1565.18l-0.92,1.87a6.87,6.87,0,0,0-3.37-1c-1,0-1.72.33-1.72,1.17,0,2.16,6.23,1,6.21,5.24,0,2.4-2.13,3.48-4.49,3.48a7.24,7.24,0,0,1-4.71-1.63l0.9-1.8a6.38,6.38,0,0,0,3.92,1.45c1.08,0,1.91-.37,1.91-1.25,0-2.4-6.16-1.06-6.14-5.28,0-2.38,2.07-3.39,4.31-3.39A7.4,7.4,0,0,1,218,1565.18Z" transform="translate(-95.7 -1279.73)" style="fill: #fff200"/>
    <path d="M237.45,1575.06a5.62,5.62,0,0,1-2.88.86,3.08,3.08,0,0,1-3.28-3.41v-6.07h-1.65v-1.89h1.65v-3.21h2.51v3.21h3.45v1.89H233.8V1572c0,1.21.46,1.58,1.25,1.58a4.09,4.09,0,0,0,1.76-.51Z" transform="translate(-95.7 -1279.73)" style="fill: #fff200"/>
    <path d="M253.31,1568.52v7.28h-2.53v-6.58a2.61,2.61,0,0,0-2.82-2.84,3.34,3.34,0,0,0-3.34,3.65v5.76h-2.53v-16.33h2.53v6.91A4.43,4.43,0,0,1,249,1564C251.68,1564,253.31,1565.73,253.31,1568.52Z" transform="translate(-95.7 -1279.73)" style="fill: #fff200"/>
    <path d="M265.92,1574.38a4.75,4.75,0,0,1-3.87,1.54c-2.53,0-4.11-1.56-4.11-3.63s1.61-3.5,4.42-3.52h3.54v-0.35c0-1.47-.95-2.35-2.79-2.35a6.17,6.17,0,0,0-3.46,1.19l-1-1.76a8.57,8.57,0,0,1,5-1.47c3,0,4.71,1.54,4.73,4.12l0,7.68h-2.49v-1.43Zm0-2.68v-1.08h-3.17c-1.65,0-2.42.44-2.42,1.56s0.86,1.74,2.27,1.74C264.38,1573.91,265.76,1573,265.9,1571.69Z" transform="translate(-95.7 -1279.73)" style="fill: #fff200"/>
    <path d="M280.61,1575.06a5.62,5.62,0,0,1-2.88.86,3.08,3.08,0,0,1-3.28-3.41v-6.07H272.8v-1.89h1.65v-3.21H277v3.21h3.45v1.89H277V1572c0,1.21.46,1.58,1.25,1.58a4.09,4.09,0,0,0,1.76-.51Z" transform="translate(-95.7 -1279.73)" style="fill: #fff200"/>
    <path d="M300,1574.38a4.75,4.75,0,0,1-3.87,1.54c-2.53,0-4.11-1.56-4.11-3.63s1.61-3.5,4.42-3.52H300v-0.35c0-1.47-.95-2.35-2.79-2.35a6.17,6.17,0,0,0-3.46,1.19l-1-1.76a8.57,8.57,0,0,1,5-1.47c3,0,4.71,1.54,4.73,4.12l0,7.68H300v-1.43Zm0-2.68v-1.08h-3.17c-1.65,0-2.42.44-2.42,1.56s0.86,1.74,2.27,1.74C298.5,1573.91,299.88,1573,300,1571.69Z" transform="translate(-95.7 -1279.73)" style="fill: #fff200"/>
    <path d="M310.84,1560.76a1.48,1.48,0,1,1-1.47-1.54A1.46,1.46,0,0,1,310.84,1560.76Zm-2.73,15V1564.1h2.51v11.71h-2.51Z" transform="translate(-95.7 -1279.73)" style="fill: #fff200"/>
    <path d="M319.09,1566.43a4.25,4.25,0,0,1,4-2.42v2.42a3.54,3.54,0,0,0-4,3.26v6.12h-2.53V1564.1h2.53v2.33Z" transform="translate(-95.7 -1279.73)" style="fill: #fff200"/>
    <path d="M337.73,1570.92h-8.85a3.56,3.56,0,0,0,3.63,2.93,4.55,4.55,0,0,0,3.3-1.36l1.34,1.43a6.37,6.37,0,0,1-4.84,2,5.94,5.94,0,1,1-.07-11.88C336.36,1564,338,1566.7,337.73,1570.92Zm-2.2-1.85a3,3,0,0,0-3.26-3,3.33,3.33,0,0,0-3.43,3h6.69Z" transform="translate(-95.7 -1279.73)" style="fill: #fff200"/>
    <path d="M353.72,1575.81h-2.53v-2a4.54,4.54,0,0,1-4.11,2.11c-3.37,0-5.61-2.44-5.61-6s2.27-5.92,5.57-5.92a4.63,4.63,0,0,1,4.16,2.13v-6.64h2.53v16.33Zm-2.53-5.81a3.56,3.56,0,0,0-3.59-3.85A3.61,3.61,0,0,0,344,1570,3.6,3.6,0,1,0,351.19,1570Z" transform="translate(-95.7 -1279.73)" style="fill: #fff200"/>
    <path d="M378.25,1561.88l-1.08,2.29a9.21,9.21,0,0,0-4.51-1.43c-1.52,0-2.51.57-2.51,1.61,0,3.37,8.32,1.56,8.29,7.11,0,2.75-2.42,4.44-5.81,4.44a9.47,9.47,0,0,1-6.29-2.44l1.12-2.24a8.12,8.12,0,0,0,5.21,2.24c1.8,0,2.88-.68,2.88-1.87,0-3.43-8.32-1.52-8.32-7,0-2.64,2.27-4.29,5.61-4.29A10,10,0,0,1,378.25,1561.88Z" transform="translate(-95.7 -1279.73)" style="fill: #fff200"/>
    <path d="M394.15,1575.81h-2.53v-2.29a4.31,4.31,0,0,1-4.18,2.38c-2.68,0-4.29-1.72-4.29-4.51v-7.28h2.53v6.58a2.57,2.57,0,0,0,2.73,2.84c2,0,3.21-1.61,3.21-3.65v-5.77h2.53v11.71Z" transform="translate(-95.7 -1279.73)" style="fill: #fff200"/>
    <path d="M412.42,1570c0,3.5-2.2,5.9-5.54,5.9a4.6,4.6,0,0,1-4.14-2.11v6.29H400.2v-16h2.53v2a4.57,4.57,0,0,1,4.09-2.11C410.15,1564,412.42,1566.43,412.42,1570Zm-2.55-.09a3.57,3.57,0,1,0-3.56,3.83A3.55,3.55,0,0,0,409.86,1569.91Z" transform="translate(-95.7 -1279.73)" style="fill: #fff200"/>
    <path d="M427.55,1570.92H418.7a3.56,3.56,0,0,0,3.63,2.93,4.55,4.55,0,0,0,3.3-1.36l1.34,1.43a6.37,6.37,0,0,1-4.84,2,5.94,5.94,0,1,1-.07-11.88C426.19,1564,427.86,1566.7,427.55,1570.92Zm-2.2-1.85a3,3,0,0,0-3.26-3,3.33,3.33,0,0,0-3.43,3h6.69Z" transform="translate(-95.7 -1279.73)" style="fill: #fff200"/>
    <path d="M434.92,1566.43a4.25,4.25,0,0,1,4-2.42v2.42a3.54,3.54,0,0,0-4,3.26v6.12h-2.53V1564.1h2.53v2.33Z" transform="translate(-95.7 -1279.73)" style="fill: #fff200"/>
    <path d="M458,1560.4c3.19,0,5.17,1.45,5.17,3.85a3.37,3.37,0,0,1-2.71,3.43,3.74,3.74,0,0,1,3.3,3.89c0,2.64-2.13,4.22-5.61,4.22h-6.84v-15.4H458Zm-4.09,6.38h4c1.65,0,2.64-.77,2.64-2.07s-1-2-2.64-2h-4v4.07Zm0,6.71h4c2,0,3.23-.79,3.23-2.24s-1.21-2.18-3.23-2.18h-4v4.42Z" transform="translate(-95.7 -1279.73)" style="fill: #fff200"/>
    <path d="M480,1570a6.11,6.11,0,1,1-6.09-5.94A5.74,5.74,0,0,1,480,1570Zm-9.68,0a3.58,3.58,0,1,0,3.59-3.78A3.53,3.53,0,0,0,470.3,1570Z" transform="translate(-95.7 -1279.73)" style="fill: #fff200"/>
    <path d="M495.82,1575.81l-3-8.67-3,8.67h-2.6L483,1564.1h2.6l3,9.2,2.95-9.2h2.62l3,9.2,3-9.2h2.57l-4.27,11.71h-2.62Z" transform="translate(-95.7 -1279.73)" style="fill: #fff200"/>
    <path d="M506.77,1575.81v-16.33h2.53v16.33h-2.53Z" transform="translate(-95.7 -1279.73)" style="fill: #fff200"/>
    <path d="M533.83,1561.88l-1.08,2.29a9.21,9.21,0,0,0-4.51-1.43c-1.52,0-2.51.57-2.51,1.61,0,3.37,8.32,1.56,8.29,7.11,0,2.75-2.42,4.44-5.81,4.44a9.47,9.47,0,0,1-6.29-2.44l1.12-2.24a8.12,8.12,0,0,0,5.21,2.24c1.8,0,2.88-.68,2.88-1.87,0-3.43-8.32-1.52-8.32-7,0-2.64,2.27-4.29,5.61-4.29A10,10,0,0,1,533.83,1561.88Z" transform="translate(-95.7 -1279.73)" style="fill: #fff200"/>
    <path d="M549.74,1575.81h-2.53v-2.29a4.31,4.31,0,0,1-4.18,2.38c-2.68,0-4.29-1.72-4.29-4.51v-7.28h2.53v6.58a2.57,2.57,0,0,0,2.73,2.84c2,0,3.21-1.61,3.21-3.65v-5.77h2.53v11.71Z" transform="translate(-95.7 -1279.73)" style="fill: #fff200"/>
    <path d="M566.88,1568.52v7.28h-2.53v-6.58a2.61,2.61,0,0,0-2.82-2.84,3.28,3.28,0,0,0-3.32,3.19v6.23h-2.53V1564.1h2.53v2.25a4.42,4.42,0,0,1,4.31-2.33C565.25,1564,566.88,1565.73,566.88,1568.52Z" transform="translate(-95.7 -1279.73)" style="fill: #fff200"/>
    <path d="M583.62,1575.81h-2.53v-2a4.54,4.54,0,0,1-4.11,2.11c-3.37,0-5.61-2.44-5.61-6s2.27-5.92,5.57-5.92a4.63,4.63,0,0,1,4.16,2.13v-6.64h2.53v16.33Zm-2.53-5.81a3.56,3.56,0,0,0-3.59-3.85,3.61,3.61,0,0,0-3.61,3.85A3.6,3.6,0,1,0,581.09,1570Z" transform="translate(-95.7 -1279.73)" style="fill: #fff200"/>
    <path d="M596.68,1574.38a4.75,4.75,0,0,1-3.87,1.54c-2.53,0-4.11-1.56-4.11-3.63s1.61-3.5,4.42-3.52h3.54v-0.35c0-1.47-.95-2.35-2.79-2.35a6.17,6.17,0,0,0-3.46,1.19l-1-1.76a8.57,8.57,0,0,1,5-1.47c3,0,4.71,1.54,4.73,4.12l0,7.68h-2.49v-1.43Zm0-2.68v-1.08h-3.17c-1.65,0-2.42.44-2.42,1.56s0.86,1.74,2.27,1.74C595.14,1573.91,596.53,1573,596.66,1571.69Z" transform="translate(-95.7 -1279.73)" style="fill: #fff200"/>
    <path d="M609.36,1577.41a3.91,3.91,0,0,1-3.81,2.77,4,4,0,0,1-2.71-1l1.08-2a2.48,2.48,0,0,0,1.52.57,1.91,1.91,0,0,0,1.78-1.3l0.4-.88-4.84-11.53h2.62l3.5,8.87,3.26-8.87h2.53Z" transform="translate(-95.7 -1279.73)" style="fill: #fff200"/>
    <path d="M620.51,1574.55a2,2,0,0,1-.4,1.17l-1.25,1.89h-1.3l0.84-1.92A1.38,1.38,0,1,1,620.51,1574.55Z" transform="translate(-95.7 -1279.73)" style="fill: #fff200"/>
    <path d="M640.44,1574.38a4.75,4.75,0,0,1-3.87,1.54c-2.53,0-4.11-1.56-4.11-3.63s1.61-3.5,4.42-3.52h3.54v-0.35c0-1.47-.95-2.35-2.79-2.35a6.17,6.17,0,0,0-3.46,1.19l-1-1.76a8.57,8.57,0,0,1,5-1.47c3,0,4.71,1.54,4.73,4.12l0,7.68h-2.49v-1.43Zm0-2.68v-1.08h-3.17c-1.65,0-2.42.44-2.42,1.56s0.86,1.74,2.27,1.74C638.9,1573.91,640.29,1573,640.42,1571.69Z" transform="translate(-95.7 -1279.73)" style="fill: #fff200"/>
    <path d="M659.71,1568.52v7.28h-2.53v-6.58a2.61,2.61,0,0,0-2.82-2.84,3.28,3.28,0,0,0-3.32,3.19v6.23h-2.53V1564.1H651v2.25a4.42,4.42,0,0,1,4.31-2.33C658.09,1564,659.71,1565.73,659.71,1568.52Z" transform="translate(-95.7 -1279.73)" style="fill: #fff200"/>
    <path d="M676.46,1575.81h-2.53v-2a4.54,4.54,0,0,1-4.11,2.11c-3.37,0-5.61-2.44-5.61-6s2.27-5.92,5.57-5.92a4.63,4.63,0,0,1,4.16,2.13v-6.64h2.53v16.33Zm-2.53-5.81a3.56,3.56,0,0,0-3.59-3.85,3.61,3.61,0,0,0-3.61,3.85A3.6,3.6,0,1,0,673.92,1570Z" transform="translate(-95.7 -1279.73)" style="fill: #fff200"/>
    <path d="M188.74,1602.21h-2.53v-2.29a4.31,4.31,0,0,1-4.18,2.38c-2.68,0-4.29-1.72-4.29-4.51v-7.28h2.53v6.58a2.57,2.57,0,0,0,2.73,2.84c2,0,3.21-1.61,3.21-3.65v-5.77h2.53v11.71Z" transform="translate(-95.7 -1279.73)" style="fill: #fff200"/>
    <path d="M205.88,1594.92v7.28h-2.53v-6.58a2.61,2.61,0,0,0-2.82-2.84,3.28,3.28,0,0,0-3.32,3.19v6.23h-2.53V1590.5h2.53v2.25a4.42,4.42,0,0,1,4.31-2.33C204.25,1590.41,205.88,1592.13,205.88,1594.92Z" transform="translate(-95.7 -1279.73)" style="fill: #fff200"/>
    <path d="M221.11,1592.33l-1.39,1.63a4.42,4.42,0,0,0-3.34-1.32,3.75,3.75,0,0,0,0,7.48,4.36,4.36,0,0,0,3.45-1.41l1.41,1.41a6,6,0,0,1-5,2.18,5.94,5.94,0,0,1,0-11.88A6.18,6.18,0,0,1,221.11,1592.33Z" transform="translate(-95.7 -1279.73)" style="fill: #fff200"/>
    <path d="M237.19,1596.35a6.11,6.11,0,1,1-6.09-5.94A5.74,5.74,0,0,1,237.19,1596.35Zm-9.68,0a3.58,3.58,0,1,0,3.59-3.78A3.53,3.53,0,0,0,227.51,1596.38Z" transform="translate(-95.7 -1279.73)" style="fill: #fff200"/>
    <path d="M244.71,1602.21l-4.53-11.71h2.64l3.26,9.22,3.21-9.22h2.53l-4.49,11.71h-2.62Z" transform="translate(-95.7 -1279.73)" style="fill: #fff200"/>
    <path d="M266.07,1597.32h-8.85a3.56,3.56,0,0,0,3.63,2.93,4.55,4.55,0,0,0,3.3-1.36l1.34,1.43a6.37,6.37,0,0,1-4.84,2,5.94,5.94,0,1,1-.07-11.88C264.71,1590.41,266.38,1593.1,266.07,1597.32Zm-2.2-1.85a3,3,0,0,0-3.26-3,3.33,3.33,0,0,0-3.43,3h6.69Z" transform="translate(-95.7 -1279.73)" style="fill: #fff200"/>
    <path d="M273.44,1592.83a4.25,4.25,0,0,1,4-2.42v2.42a3.55,3.55,0,0,0-4,3.26v6.12h-2.53V1590.5h2.53v2.33Z" transform="translate(-95.7 -1279.73)" style="fill: #fff200"/>
    <path d="M292.08,1597.32h-8.85a3.56,3.56,0,0,0,3.63,2.93,4.55,4.55,0,0,0,3.3-1.36l1.34,1.43a6.37,6.37,0,0,1-4.84,2,5.94,5.94,0,1,1-.07-11.88C290.71,1590.41,292.38,1593.1,292.08,1597.32Zm-2.2-1.85a3,3,0,0,0-3.26-3,3.33,3.33,0,0,0-3.43,3h6.69Z" transform="translate(-95.7 -1279.73)" style="fill: #fff200"/>
    <path d="M308.07,1602.21h-2.53v-2a4.54,4.54,0,0,1-4.11,2.11c-3.37,0-5.61-2.44-5.61-6s2.27-5.92,5.57-5.92a4.63,4.63,0,0,1,4.16,2.13v-6.64h2.53v16.33Zm-2.53-5.81a3.56,3.56,0,0,0-3.59-3.85,3.61,3.61,0,0,0-3.61,3.85A3.6,3.6,0,1,0,305.54,1596.4Z" transform="translate(-95.7 -1279.73)" style="fill: #fff200"/>
    <path d="M324.48,1602.54a3.73,3.73,0,0,1-3.78,4,4.15,4.15,0,0,1-2.44-.79l0.84-2a2.69,2.69,0,0,0,1.5.53,1.36,1.36,0,0,0,1.39-1.58V1590.5h2.51v12Zm0.31-15.38a1.55,1.55,0,1,1-1.56-1.54A1.5,1.5,0,0,1,324.79,1587.16Z" transform="translate(-95.7 -1279.73)" style="fill: #fff200"/>
    <path d="M341.14,1602.21h-2.53v-2.29a4.31,4.31,0,0,1-4.18,2.38c-2.68,0-4.29-1.72-4.29-4.51v-7.28h2.53v6.58a2.57,2.57,0,0,0,2.73,2.84c2,0,3.21-1.61,3.21-3.65v-5.77h2.53v11.71Z" transform="translate(-95.7 -1279.73)" style="fill: #fff200"/>
    <path d="M354.67,1591.58l-0.92,1.87a6.87,6.87,0,0,0-3.37-1c-1,0-1.72.33-1.72,1.17,0,2.16,6.23,1,6.21,5.24,0,2.4-2.13,3.48-4.49,3.48a7.24,7.24,0,0,1-4.71-1.63l0.9-1.8a6.38,6.38,0,0,0,3.92,1.45c1.08,0,1.92-.37,1.92-1.25,0-2.4-6.16-1.06-6.14-5.28,0-2.38,2.07-3.39,4.31-3.39A7.4,7.4,0,0,1,354.67,1591.58Z" transform="translate(-95.7 -1279.73)" style="fill: #fff200"/>
    <path d="M366.24,1601.46a5.62,5.62,0,0,1-2.88.86,3.08,3.08,0,0,1-3.28-3.41v-6.07h-1.65v-1.89h1.65v-3.21h2.51v3.21H366v1.89h-3.45v5.61c0,1.21.46,1.58,1.25,1.58a4.09,4.09,0,0,0,1.76-.51Z" transform="translate(-95.7 -1279.73)" style="fill: #fff200"/>
    <path d="M389.65,1602.21l-3-8.67-3,8.67h-2.6l-4.31-11.71h2.6l3,9.2,2.95-9.2H388l3,9.2,3-9.2h2.57l-4.27,11.71h-2.62Z" transform="translate(-95.7 -1279.73)" style="fill: #fff200"/>
    <path d="M411.82,1594.92v7.28h-2.53v-6.58a2.61,2.61,0,0,0-2.82-2.84,3.34,3.34,0,0,0-3.34,3.65v5.76H400.6v-16.33h2.53v6.91a4.43,4.43,0,0,1,4.33-2.38C410.19,1590.41,411.82,1592.13,411.82,1594.92Z" transform="translate(-95.7 -1279.73)" style="fill: #fff200"/>
    <path d="M420.14,1587.16a1.48,1.48,0,1,1-1.47-1.54A1.46,1.46,0,0,1,420.14,1587.16Zm-2.73,15V1590.5h2.51v11.71h-2.51Z" transform="translate(-95.7 -1279.73)" style="fill: #fff200"/>
    <path d="M435.49,1592.33l-1.39,1.63a4.42,4.42,0,0,0-3.34-1.32,3.75,3.75,0,0,0,0,7.48,4.36,4.36,0,0,0,3.45-1.41l1.41,1.41a6,6,0,0,1-5,2.18,5.94,5.94,0,0,1,0-11.88A6.18,6.18,0,0,1,435.49,1592.33Z" transform="translate(-95.7 -1279.73)" style="fill: #fff200"/>
    <path d="M451.8,1594.92v7.28h-2.53v-6.58a2.61,2.61,0,0,0-2.82-2.84,3.34,3.34,0,0,0-3.34,3.65v5.76h-2.53v-16.33h2.53v6.91a4.43,4.43,0,0,1,4.33-2.38C450.17,1590.41,451.8,1592.13,451.8,1594.92Z" transform="translate(-95.7 -1279.73)" style="fill: #fff200"/>
    <path d="M476.37,1596.35a6.11,6.11,0,1,1-6.09-5.94A5.74,5.74,0,0,1,476.37,1596.35Zm-9.68,0a3.58,3.58,0,1,0,3.59-3.78A3.53,3.53,0,0,0,466.69,1596.38Z" transform="translate(-95.7 -1279.73)" style="fill: #fff200"/>
    <path d="M492.41,1594.92v7.28h-2.53v-6.58a2.61,2.61,0,0,0-2.82-2.84,3.28,3.28,0,0,0-3.32,3.19v6.23h-2.53V1590.5h2.53v2.25a4.42,4.42,0,0,1,4.31-2.33C490.78,1590.41,492.41,1592.13,492.41,1594.92Z" transform="translate(-95.7 -1279.73)" style="fill: #fff200"/>
    <path d="M508.29,1597.32h-8.85a3.56,3.56,0,0,0,3.63,2.93,4.55,4.55,0,0,0,3.3-1.36l1.34,1.43a6.37,6.37,0,0,1-4.84,2,5.94,5.94,0,1,1-.07-11.88C506.93,1590.41,508.6,1593.1,508.29,1597.32Zm-2.2-1.85a3,3,0,0,0-3.26-3,3.33,3.33,0,0,0-3.43,3h6.69Z" transform="translate(-95.7 -1279.73)" style="fill: #fff200"/>
    <path d="M520.72,1591.58l-0.92,1.87a6.87,6.87,0,0,0-3.37-1c-1,0-1.72.33-1.72,1.17,0,2.16,6.23,1,6.21,5.24,0,2.4-2.13,3.48-4.49,3.48a7.24,7.24,0,0,1-4.71-1.63l0.9-1.8a6.38,6.38,0,0,0,3.92,1.45c1.08,0,1.91-.37,1.91-1.25,0-2.4-6.16-1.06-6.14-5.28,0-2.38,2.07-3.39,4.31-3.39A7.4,7.4,0,0,1,520.72,1591.58Z" transform="translate(-95.7 -1279.73)" style="fill: #fff200"/>
    <path d="M544.88,1594.92v7.28h-2.53v-6.58a2.61,2.61,0,0,0-2.82-2.84,3.34,3.34,0,0,0-3.34,3.65v5.76h-2.53v-16.33h2.53v6.91a4.43,4.43,0,0,1,4.33-2.38C543.25,1590.41,544.88,1592.13,544.88,1594.92Z" transform="translate(-95.7 -1279.73)" style="fill: #fff200"/>
    <path d="M557.48,1600.78a4.75,4.75,0,0,1-3.87,1.54c-2.53,0-4.11-1.56-4.11-3.63s1.61-3.5,4.42-3.52h3.54v-0.35c0-1.47-.95-2.35-2.79-2.35a6.17,6.17,0,0,0-3.46,1.19l-1-1.76a8.57,8.57,0,0,1,5-1.47c3,0,4.71,1.54,4.73,4.12l0,7.68h-2.49v-1.43Zm0-2.68V1597h-3.17c-1.65,0-2.42.44-2.42,1.56s0.86,1.74,2.27,1.74C555.94,1600.31,557.33,1599.37,557.46,1598.09Z" transform="translate(-95.7 -1279.73)" style="fill: #fff200"/>
    <path d="M576.71,1602.21h-2.53v-2a4.54,4.54,0,0,1-4.11,2.11c-3.37,0-5.61-2.44-5.61-6s2.27-5.92,5.57-5.92a4.63,4.63,0,0,1,4.16,2.13v-6.64h2.53v16.33Zm-2.53-5.81a3.56,3.56,0,0,0-3.59-3.85,3.61,3.61,0,0,0-3.61,3.85A3.6,3.6,0,1,0,574.18,1596.4Z" transform="translate(-95.7 -1279.73)" style="fill: #fff200"/>
    <path d="M597.65,1600.78a4.75,4.75,0,0,1-3.87,1.54c-2.53,0-4.11-1.56-4.11-3.63s1.61-3.5,4.42-3.52h3.54v-0.35c0-1.47-.95-2.35-2.79-2.35a6.17,6.17,0,0,0-3.46,1.19l-1-1.76a8.57,8.57,0,0,1,5-1.47c3,0,4.71,1.54,4.73,4.12l0,7.68h-2.49v-1.43Zm0-2.68V1597h-3.17c-1.65,0-2.42.44-2.42,1.56s0.86,1.74,2.27,1.74C596.11,1600.31,597.5,1599.37,597.63,1598.09Z" transform="translate(-95.7 -1279.73)" style="fill: #fff200"/>
    <path d="M616.92,1594.92v7.28h-2.53v-6.58a2.61,2.61,0,0,0-2.82-2.84,3.28,3.28,0,0,0-3.32,3.19v6.23h-2.53V1590.5h2.53v2.25a4.42,4.42,0,0,1,4.31-2.33C615.3,1590.41,616.92,1592.13,616.92,1594.92Z" transform="translate(-95.7 -1279.73)" style="fill: #fff200"/>
    <path d="M180.84,1613.56a1.48,1.48,0,1,1-1.47-1.54A1.46,1.46,0,0,1,180.84,1613.56Zm-2.73,15V1616.9h2.51v11.71h-2.51Z" transform="translate(-95.7 -1279.73)" style="fill: #fff200"/>
    <path d="M206.12,1621.32v7.28h-2.53V1622a2.6,2.6,0,0,0-2.77-2.86,3.33,3.33,0,0,0-3.21,3.65v5.79h-2.53V1622a2.59,2.59,0,0,0-2.75-2.86,3.35,3.35,0,0,0-3.26,3.65v5.79h-2.51V1616.9h2.51v2.27a4.32,4.32,0,0,1,4.25-2.35,3.92,3.92,0,0,1,4.07,2.82,4.3,4.3,0,0,1,4.44-2.82C204.52,1616.81,206.12,1618.53,206.12,1621.32Z" transform="translate(-95.7 -1279.73)" style="fill: #fff200"/>
    <path d="M224,1622.8c0,3.5-2.2,5.9-5.54,5.9a4.6,4.6,0,0,1-4.14-2.11v6.29h-2.53v-16h2.53v2a4.57,4.57,0,0,1,4.09-2.11C221.77,1616.81,224,1619.23,224,1622.8Zm-2.55-.09a3.57,3.57,0,1,0-3.56,3.83A3.55,3.55,0,0,0,221.48,1622.71Z" transform="translate(-95.7 -1279.73)" style="fill: #fff200"/>
    <path d="M235.89,1627.18a4.75,4.75,0,0,1-3.87,1.54c-2.53,0-4.11-1.56-4.11-3.63s1.61-3.5,4.42-3.52h3.54v-0.35c0-1.47-.95-2.35-2.79-2.35a6.17,6.17,0,0,0-3.46,1.19l-1-1.76a8.57,8.57,0,0,1,5-1.47c3,0,4.71,1.54,4.73,4.12l0,7.68h-2.49v-1.43Zm0-2.68v-1.08H232.7c-1.65,0-2.42.44-2.42,1.56s0.86,1.74,2.27,1.74C234.35,1626.71,235.73,1625.77,235.87,1624.49Z" transform="translate(-95.7 -1279.73)" style="fill: #fff200"/>
    <path d="M253.6,1618.73l-1.39,1.63a4.42,4.42,0,0,0-3.34-1.32,3.75,3.75,0,0,0,0,7.48,4.36,4.36,0,0,0,3.45-1.41l1.41,1.41a6,6,0,0,1-5,2.18,5.94,5.94,0,0,1,0-11.88A6.18,6.18,0,0,1,253.6,1618.73Z" transform="translate(-95.7 -1279.73)" style="fill: #fff200"/>
    <path d="M265.19,1627.86a5.62,5.62,0,0,1-2.88.86,3.08,3.08,0,0,1-3.28-3.41v-6.07h-1.65v-1.89H259v-3.21h2.51v3.21H265v1.89h-3.45v5.61c0,1.21.46,1.58,1.25,1.58a4.09,4.09,0,0,0,1.76-.51Z" transform="translate(-95.7 -1279.73)" style="fill: #fff200"/>
    <path d="M288.6,1628.61l-3-8.67-3,8.67h-2.6l-4.31-11.71h2.6l3,9.2,2.95-9.2H287l3,9.2,3-9.2h2.57l-4.27,11.71H288.6Z" transform="translate(-95.7 -1279.73)" style="fill: #fff200"/>
    <path d="M302.17,1613.56a1.48,1.48,0,1,1-1.47-1.54A1.46,1.46,0,0,1,302.17,1613.56Zm-2.73,15V1616.9H302v11.71h-2.51Z" transform="translate(-95.7 -1279.73)" style="fill: #fff200"/>
    <path d="M314.52,1627.86a5.62,5.62,0,0,1-2.88.86,3.08,3.08,0,0,1-3.28-3.41v-6.07H306.7v-1.89h1.65v-3.21h2.51v3.21h3.45v1.89h-3.45v5.61c0,1.21.46,1.58,1.25,1.58a4.09,4.09,0,0,0,1.76-.51Z" transform="translate(-95.7 -1279.73)" style="fill: #fff200"/>
    <path d="M330.38,1621.32v7.28h-2.53V1622a2.61,2.61,0,0,0-2.82-2.84,3.34,3.34,0,0,0-3.34,3.65v5.76h-2.53v-16.33h2.53v6.91a4.43,4.43,0,0,1,4.33-2.38C328.75,1616.81,330.38,1618.53,330.38,1621.32Z" transform="translate(-95.7 -1279.73)" style="fill: #fff200"/>
    <path d="M353.48,1618.73l-1.39,1.63a4.42,4.42,0,0,0-3.34-1.32,3.75,3.75,0,0,0,0,7.48,4.36,4.36,0,0,0,3.45-1.41l1.41,1.41a6,6,0,0,1-5,2.18,5.94,5.94,0,0,1,0-11.88A6.18,6.18,0,0,1,353.48,1618.73Z" transform="translate(-95.7 -1279.73)" style="fill: #fff200"/>
    <path d="M369.56,1622.75a6.11,6.11,0,1,1-6.09-5.94A5.74,5.74,0,0,1,369.56,1622.75Zm-9.68,0a3.58,3.58,0,1,0,3.59-3.78A3.53,3.53,0,0,0,359.88,1622.78Z" transform="translate(-95.7 -1279.73)" style="fill: #fff200"/>
    <path d="M385.6,1621.32v7.28h-2.53V1622a2.61,2.61,0,0,0-2.82-2.84,3.28,3.28,0,0,0-3.32,3.19v6.23H374.4V1616.9h2.53v2.25a4.42,4.42,0,0,1,4.31-2.33C384,1616.81,385.6,1618.53,385.6,1621.32Z" transform="translate(-95.7 -1279.73)" style="fill: #fff200"/>
    <path d="M398.78,1618l-0.92,1.87a6.87,6.87,0,0,0-3.37-1c-1,0-1.72.33-1.72,1.17,0,2.16,6.23,1,6.21,5.24,0,2.4-2.13,3.48-4.49,3.48a7.24,7.24,0,0,1-4.71-1.63l0.9-1.8a6.38,6.38,0,0,0,3.92,1.45c1.08,0,1.91-.37,1.91-1.25,0-2.4-6.16-1.06-6.14-5.28,0-2.38,2.07-3.39,4.31-3.39A7.4,7.4,0,0,1,398.78,1618Z" transform="translate(-95.7 -1279.73)" style="fill: #fff200"/>
    <path d="M414.35,1628.61h-2.53v-2.29a4.31,4.31,0,0,1-4.18,2.38c-2.68,0-4.29-1.72-4.29-4.51v-7.28h2.53v6.58a2.57,2.57,0,0,0,2.73,2.84c2,0,3.21-1.61,3.21-3.65v-5.77h2.53v11.71Z" transform="translate(-95.7 -1279.73)" style="fill: #fff200"/>
    <path d="M439.85,1621.32v7.28h-2.53V1622a2.6,2.6,0,0,0-2.77-2.86,3.33,3.33,0,0,0-3.21,3.65v5.79h-2.53V1622a2.59,2.59,0,0,0-2.75-2.86,3.35,3.35,0,0,0-3.26,3.65v5.79h-2.51V1616.9h2.51v2.27a4.32,4.32,0,0,1,4.25-2.35,3.92,3.92,0,0,1,4.07,2.82,4.3,4.3,0,0,1,4.44-2.82C438.25,1616.81,439.85,1618.53,439.85,1621.32Z" transform="translate(-95.7 -1279.73)" style="fill: #fff200"/>
    <path d="M455.73,1623.72h-8.85a3.56,3.56,0,0,0,3.63,2.93,4.55,4.55,0,0,0,3.3-1.36l1.34,1.43a6.37,6.37,0,0,1-4.84,2,5.94,5.94,0,1,1-.07-11.88C454.37,1616.81,456,1619.5,455.73,1623.72Zm-2.2-1.85a3,3,0,0,0-3.26-3,3.33,3.33,0,0,0-3.43,3h6.69Z" transform="translate(-95.7 -1279.73)" style="fill: #fff200"/>
    <path d="M463.1,1619.23a4.25,4.25,0,0,1,4-2.42v2.42a3.55,3.55,0,0,0-4,3.26v6.12h-2.53V1616.9h2.53v2.33Z" transform="translate(-95.7 -1279.73)" style="fill: #fff200"/>
    <path d="M479,1618l-0.92,1.87a6.87,6.87,0,0,0-3.37-1c-1,0-1.72.33-1.72,1.17,0,2.16,6.23,1,6.21,5.24,0,2.4-2.13,3.48-4.49,3.48a7.24,7.24,0,0,1-4.71-1.63l0.9-1.8a6.38,6.38,0,0,0,3.92,1.45c1.08,0,1.91-.37,1.91-1.25,0-2.4-6.16-1.06-6.14-5.28,0-2.38,2.07-3.39,4.31-3.39A7.4,7.4,0,0,1,479,1618Z" transform="translate(-95.7 -1279.73)" style="fill: #fff200"/>
    <path d="M491.33,1622.78V1621h5.41v1.74h-5.41Z" transform="translate(-95.7 -1279.73)" style="fill: #fff200"/>
    <path d="M522.35,1622.8c0,3.5-2.2,5.9-5.54,5.9a4.6,4.6,0,0,1-4.14-2.11v2h-2.53v-16.33h2.53v6.64a4.57,4.57,0,0,1,4.09-2.11C520.08,1616.81,522.35,1619.23,522.35,1622.8Zm-2.55-.09a3.57,3.57,0,1,0-3.56,3.83A3.55,3.55,0,0,0,519.8,1622.71Z" transform="translate(-95.7 -1279.73)" style="fill: #fff200"/>
    <path d="M538.3,1622.75a6.11,6.11,0,1,1-6.09-5.94A5.74,5.74,0,0,1,538.3,1622.75Zm-9.68,0a3.58,3.58,0,1,0,3.59-3.78A3.53,3.53,0,0,0,528.62,1622.78Z" transform="translate(-95.7 -1279.73)" style="fill: #fff200"/>
    <path d="M549.76,1627.86a5.62,5.62,0,0,1-2.88.86,3.08,3.08,0,0,1-3.28-3.41v-6.07h-1.65v-1.89h1.65v-3.21h2.51v3.21h3.45v1.89h-3.45v5.61c0,1.21.46,1.58,1.25,1.58a4.09,4.09,0,0,0,1.76-.51Z" transform="translate(-95.7 -1279.73)" style="fill: #fff200"/>
    <path d="M565.62,1621.32v7.28h-2.53V1622a2.61,2.61,0,0,0-2.82-2.84,3.34,3.34,0,0,0-3.34,3.65v5.76H554.4v-16.33h2.53v6.91a4.43,4.43,0,0,1,4.33-2.38C564,1616.81,565.62,1618.53,565.62,1621.32Z" transform="translate(-95.7 -1279.73)" style="fill: #fff200"/>
    <path d="M590.24,1628.61h-2.53v-2a4.54,4.54,0,0,1-4.11,2.11c-3.37,0-5.61-2.44-5.61-6s2.27-5.92,5.57-5.92a4.63,4.63,0,0,1,4.16,2.13v-6.64h2.53v16.33Zm-2.53-5.81a3.56,3.56,0,0,0-3.59-3.85,3.61,3.61,0,0,0-3.61,3.85A3.6,3.6,0,1,0,587.71,1622.8Z" transform="translate(-95.7 -1279.73)" style="fill: #fff200"/>
    <path d="M606.92,1628.61h-2.53v-2.29a4.31,4.31,0,0,1-4.18,2.38c-2.68,0-4.29-1.72-4.29-4.51v-7.28h2.53v6.58a2.57,2.57,0,0,0,2.73,2.84c2,0,3.21-1.61,3.21-3.65v-5.77h2.53v11.71Z" transform="translate(-95.7 -1279.73)" style="fill: #fff200"/>
    <path d="M615.39,1619.23a4.25,4.25,0,0,1,4-2.42v2.42a3.55,3.55,0,0,0-4,3.26v6.12h-2.53V1616.9h2.53v2.33Z" transform="translate(-95.7 -1279.73)" style="fill: #fff200"/>
    <path d="M626.45,1613.56A1.48,1.48,0,1,1,625,1612,1.46,1.46,0,0,1,626.45,1613.56Zm-2.73,15V1616.9h2.51v11.71h-2.51Z" transform="translate(-95.7 -1279.73)" style="fill: #fff200"/>
    <path d="M643.37,1621.32v7.28h-2.53V1622a2.61,2.61,0,0,0-2.82-2.84,3.28,3.28,0,0,0-3.32,3.19v6.23h-2.53V1616.9h2.53v2.25a4.42,4.42,0,0,1,4.31-2.33C641.74,1616.81,643.37,1618.53,643.37,1621.32Z" transform="translate(-95.7 -1279.73)" style="fill: #fff200"/>
    <path d="M659.52,1627.46c0,3.37-2.4,5.48-6.07,5.48a8.51,8.51,0,0,1-4.86-1.54l1.08-1.83a5.91,5.91,0,0,0,3.67,1.28c2.22,0,3.67-1.3,3.67-3.32v-1.47a4.29,4.29,0,0,1-3.87,2c-3.17,0-5.28-2.29-5.28-5.65s2.09-5.54,5.19-5.57a4.37,4.37,0,0,1,4,2v-1.89h2.51v10.56Zm-2.51-5a3.33,3.33,0,0,0-3.37-3.59A3.61,3.61,0,1,0,657,1622.45Z" transform="translate(-95.7 -1279.73)" style="fill: #fff200"/>
    <path d="M184.74,1654.26a5.62,5.62,0,0,1-2.88.86,3.08,3.08,0,0,1-3.28-3.41v-6.07h-1.65v-1.89h1.65v-3.21h2.51v3.21h3.45v1.89h-3.45v5.61c0,1.21.46,1.58,1.25,1.58a4.09,4.09,0,0,0,1.76-.51Z" transform="translate(-95.7 -1279.73)" style="fill: #fff200"/>
    <path d="M200.6,1647.72V1655h-2.53v-6.58a2.61,2.61,0,0,0-2.82-2.84,3.34,3.34,0,0,0-3.34,3.65V1655h-2.53v-16.33h2.53v6.91a4.43,4.43,0,0,1,4.33-2.38C199,1643.21,200.6,1644.93,200.6,1647.72Z" transform="translate(-95.7 -1279.73)" style="fill: #fff200"/>
    <path d="M216.49,1650.12h-8.85a3.56,3.56,0,0,0,3.63,2.93,4.55,4.55,0,0,0,3.3-1.36l1.34,1.43a6.37,6.37,0,0,1-4.84,2,5.94,5.94,0,1,1-.07-11.88C215.12,1643.21,216.79,1645.9,216.49,1650.12Zm-2.2-1.85a3,3,0,0,0-3.26-3,3.33,3.33,0,0,0-3.43,3h6.69Z" transform="translate(-95.7 -1279.73)" style="fill: #fff200"/>
    <path d="M239.76,1653.86c0,3.37-2.4,5.48-6.07,5.48a8.51,8.51,0,0,1-4.86-1.54l1.08-1.83a5.91,5.91,0,0,0,3.67,1.28c2.22,0,3.67-1.3,3.67-3.32v-1.47a4.29,4.29,0,0,1-3.87,2c-3.17,0-5.28-2.29-5.28-5.65s2.09-5.54,5.19-5.57a4.37,4.37,0,0,1,4,2v-1.89h2.51v10.56Zm-2.51-5a3.33,3.33,0,0,0-3.37-3.59A3.61,3.61,0,1,0,237.25,1648.84Z" transform="translate(-95.7 -1279.73)" style="fill: #fff200"/>
    <path d="M252.5,1653.58a4.75,4.75,0,0,1-3.87,1.54c-2.53,0-4.11-1.56-4.11-3.63s1.61-3.5,4.42-3.52h3.54v-0.35c0-1.47-.95-2.35-2.79-2.35a6.17,6.17,0,0,0-3.46,1.19l-1-1.76a8.57,8.57,0,0,1,5-1.47c3,0,4.71,1.54,4.73,4.12l0,7.68H252.5v-1.43Zm0-2.68v-1.08h-3.17c-1.65,0-2.42.44-2.42,1.56s0.86,1.74,2.27,1.74C251,1653.11,252.34,1652.17,252.48,1650.89Z" transform="translate(-95.7 -1279.73)" style="fill: #fff200"/>
    <path d="M280.13,1647.72V1655H277.6v-6.58a2.6,2.6,0,0,0-2.77-2.86,3.33,3.33,0,0,0-3.21,3.65V1655h-2.53v-6.58a2.59,2.59,0,0,0-2.75-2.86,3.35,3.35,0,0,0-3.26,3.65V1655h-2.51V1643.3h2.51v2.27a4.32,4.32,0,0,1,4.25-2.35,3.92,3.92,0,0,1,4.07,2.82,4.3,4.3,0,0,1,4.44-2.82C278.53,1643.21,280.13,1644.93,280.13,1647.72Z" transform="translate(-95.7 -1279.73)" style="fill: #fff200"/>
    <path d="M296,1650.12h-8.85a3.56,3.56,0,0,0,3.63,2.93,4.55,4.55,0,0,0,3.3-1.36l1.34,1.43a6.37,6.37,0,0,1-4.84,2,5.94,5.94,0,1,1-.07-11.88C294.65,1643.21,296.32,1645.9,296,1650.12Zm-2.2-1.85a3,3,0,0,0-3.26-3,3.33,3.33,0,0,0-3.43,3h6.69Z" transform="translate(-95.7 -1279.73)" style="fill: #fff200"/>
    <path d="M315.75,1653.58a4.75,4.75,0,0,1-3.87,1.54c-2.53,0-4.11-1.56-4.11-3.63s1.61-3.5,4.42-3.52h3.54v-0.35c0-1.47-.95-2.35-2.79-2.35a6.17,6.17,0,0,0-3.46,1.19l-1-1.76a8.57,8.57,0,0,1,5-1.47c3,0,4.71,1.54,4.73,4.12l0,7.68h-2.49v-1.43Zm0-2.68v-1.08h-3.17c-1.65,0-2.42.44-2.42,1.56s0.86,1.74,2.27,1.74C314.21,1653.11,315.59,1652.17,315.72,1650.89Z" transform="translate(-95.7 -1279.73)" style="fill: #fff200"/>
    <path d="M335,1647.72V1655h-2.53v-6.58a2.61,2.61,0,0,0-2.82-2.84,3.28,3.28,0,0,0-3.32,3.19V1655h-2.53V1643.3h2.53v2.25a4.42,4.42,0,0,1,4.31-2.33C333.39,1643.21,335,1644.93,335,1647.72Z" transform="translate(-95.7 -1279.73)" style="fill: #fff200"/>
    <path d="M351.76,1655h-2.53v-2a4.54,4.54,0,0,1-4.11,2.11c-3.37,0-5.61-2.44-5.61-6s2.27-5.92,5.57-5.92a4.63,4.63,0,0,1,4.16,2.13v-6.64h2.53V1655Zm-2.53-5.81a3.56,3.56,0,0,0-3.59-3.85,3.61,3.61,0,0,0-3.61,3.85A3.6,3.6,0,1,0,349.23,1649.2Z" transform="translate(-95.7 -1279.73)" style="fill: #fff200"/>
    <path d="M372.31,1654.26a5.62,5.62,0,0,1-2.88.86,3.08,3.08,0,0,1-3.28-3.41v-6.07H364.5v-1.89h1.65v-3.21h2.51v3.21h3.45v1.89h-3.45v5.61c0,1.21.46,1.58,1.25,1.58a4.09,4.09,0,0,0,1.76-.51Z" transform="translate(-95.7 -1279.73)" style="fill: #fff200"/>
    <path d="M388.17,1647.72V1655h-2.53v-6.58a2.61,2.61,0,0,0-2.82-2.84,3.34,3.34,0,0,0-3.34,3.65V1655h-2.53v-16.33h2.53v6.91a4.43,4.43,0,0,1,4.33-2.38C386.54,1643.21,388.17,1644.93,388.17,1647.72Z" transform="translate(-95.7 -1279.73)" style="fill: #fff200"/>
    <path d="M404.05,1650.12h-8.85a3.56,3.56,0,0,0,3.63,2.93,4.55,4.55,0,0,0,3.3-1.36l1.34,1.43a6.37,6.37,0,0,1-4.84,2,5.94,5.94,0,1,1-.07-11.88C402.69,1643.21,404.36,1645.9,404.05,1650.12Zm-2.2-1.85a3,3,0,0,0-3.26-3,3.33,3.33,0,0,0-3.43,3h6.69Z" transform="translate(-95.7 -1279.73)" style="fill: #fff200"/>
    <path d="M427.77,1655l-3-8.67-3,8.67h-2.6l-4.31-11.71h2.6l3,9.2,2.95-9.2h2.62l3,9.2,3-9.2h2.57L430.39,1655h-2.62Z" transform="translate(-95.7 -1279.73)" style="fill: #fff200"/>
    <path d="M448.91,1650.12h-8.85a3.56,3.56,0,0,0,3.63,2.93,4.55,4.55,0,0,0,3.3-1.36l1.34,1.43a6.37,6.37,0,0,1-4.84,2,5.94,5.94,0,1,1-.07-11.88C447.55,1643.21,449.22,1645.9,448.91,1650.12Zm-2.2-1.85a3,3,0,0,0-3.26-3,3.33,3.33,0,0,0-3.43,3h6.69Z" transform="translate(-95.7 -1279.73)" style="fill: #fff200"/>
    <path d="M464,1650.12H455.2a3.56,3.56,0,0,0,3.63,2.93,4.55,4.55,0,0,0,3.3-1.36l1.34,1.43a6.37,6.37,0,0,1-4.84,2,5.94,5.94,0,1,1-.07-11.88C462.68,1643.21,464.35,1645.9,464,1650.12Zm-2.2-1.85a3,3,0,0,0-3.26-3,3.33,3.33,0,0,0-3.43,3h6.69Z" transform="translate(-95.7 -1279.73)" style="fill: #fff200"/>
    <path d="M471.53,1651.73V1655H469v-16.33h2.53v9.86l5.17-5.24h2.9l-4.33,4.53,4.67,7.17h-3l-3.43-5.37Z" transform="translate(-95.7 -1279.73)" style="fill: #fff200"/>
    <path d="M491.77,1644.38l-0.92,1.87a6.87,6.87,0,0,0-3.37-1c-1,0-1.72.33-1.72,1.17,0,2.16,6.23,1,6.21,5.24,0,2.4-2.13,3.48-4.49,3.48a7.24,7.24,0,0,1-4.71-1.63l0.9-1.8a6.38,6.38,0,0,0,3.92,1.45c1.08,0,1.91-.37,1.91-1.25,0-2.4-6.16-1.06-6.14-5.28,0-2.38,2.07-3.39,4.31-3.39A7.4,7.4,0,0,1,491.77,1644.38Z" transform="translate(-95.7 -1279.73)" style="fill: #fff200"/>
    <path d="M511.61,1653.58a4.75,4.75,0,0,1-3.87,1.54c-2.53,0-4.11-1.56-4.11-3.63s1.61-3.5,4.42-3.52h3.54v-0.35c0-1.47-.95-2.35-2.79-2.35a6.17,6.17,0,0,0-3.46,1.19l-1-1.76a8.57,8.57,0,0,1,5-1.47c3,0,4.71,1.54,4.73,4.12l0,7.68h-2.49v-1.43Zm0-2.68v-1.08h-3.17c-1.65,0-2.42.44-2.42,1.56s0.86,1.74,2.27,1.74C510.07,1653.11,511.46,1652.17,511.59,1650.89Z" transform="translate(-95.7 -1279.73)" style="fill: #fff200"/>
    <path d="M522.67,1642.35v1.39h3.06v1.89h-3.06V1655h-2.51v-9.37h-1.54v-1.89h1.54v-1.14a3.84,3.84,0,0,1,4-4,4.47,4.47,0,0,1,2.64.81l-1,1.94a2.82,2.82,0,0,0-1.61-.55A1.47,1.47,0,0,0,522.67,1642.35Z" transform="translate(-95.7 -1279.73)" style="fill: #fff200"/>
    <path d="M536.05,1654.26a5.62,5.62,0,0,1-2.88.86,3.08,3.08,0,0,1-3.28-3.41v-6.07h-1.65v-1.89h1.65v-3.21h2.51v3.21h3.45v1.89H532.4v5.61c0,1.21.46,1.58,1.25,1.58a4.09,4.09,0,0,0,1.76-.51Z" transform="translate(-95.7 -1279.73)" style="fill: #fff200"/>
    <path d="M550.88,1650.12H542a3.56,3.56,0,0,0,3.63,2.93,4.55,4.55,0,0,0,3.3-1.36l1.34,1.43a6.37,6.37,0,0,1-4.84,2,5.94,5.94,0,1,1-.07-11.88C549.52,1643.21,551.19,1645.9,550.88,1650.12Zm-2.2-1.85a3,3,0,0,0-3.26-3,3.33,3.33,0,0,0-3.43,3h6.69Z" transform="translate(-95.7 -1279.73)" style="fill: #fff200"/>
    <path d="M558.25,1645.63a4.25,4.25,0,0,1,4-2.42v2.42a3.54,3.54,0,0,0-4,3.26V1655h-2.53V1643.3h2.53v2.33Z" transform="translate(-95.7 -1279.73)" style="fill: #fff200"/>
    <path d="M568.5,1653.73a1.39,1.39,0,1,1-2.77,0A1.39,1.39,0,1,1,568.5,1653.73Z" transform="translate(-95.7 -1279.73)" style="fill: #fff200"/>
  </g>
</svg>
