<svg id="Stadium" xmlns="http://www.w3.org/2000/svg" viewBox="0 0 1024.71 616.54">
  <title>stadium</title>
  <g id="STRUCTURE">
    <path d="M1023.92,1154.46H0.08V1557s345.41-44.79,519.83-44.79,504,44.79,504,44.79V1154.46Z" transform="translate(0.31 -940.43)" style="fill: #f05a45"/>
    <rect x="361.17" y="259.33" width="12.26" height="33.83" style="fill: #bbbdbf"/>
    <rect x="654.04" y="259.33" width="12.27" height="33.83" style="fill: #bbbdbf"/>
    <rect x="96" y="238.61" width="12.26" height="33.83" style="fill: #bbbdbf"/>
    <rect x="934.02" y="237.77" width="12.27" height="33.83" style="fill: #bbbdbf"/>
    <path d="M1023.92,944.41c-35.36,4.09-282.19,31.83-501.41,34.18C304.78,980.92,41,946,.08,940.43v229.06c57.87,7.59,295,36.73,527.41,37.47,246.08,0.78,463.48-30.71,496.42-35.71V944.41Z" transform="translate(0.31 -940.43)" style="fill: #bbbdbf"/>
    <polygon points="525.73 266.54 522.26 266.54 532.11 38.03 535.58 37.99 525.73 266.54" style="fill: #939598"/>
    <polygon points="240.53 254.27 237.05 254 258.59 27.5 262.06 27.78 240.53 254.27" style="fill: #939598"/>
    <polygon points="810.38 254.85 806.9 255.13 805.48 24.66 808.95 24.4 810.38 254.85" style="fill: #939598"/>
    <path d="M1023.92,1202.08c-40.19,6.17-215.87,30.56-496,32.78C253.11,1237,52.21,1205.73.08,1196.67v290.56c33.69-3,310-32.89,512.61-32.89,253.28,0,473.22,36.41,511.22,41.29V1202.08Z" transform="translate(0.31 -940.43)" style="fill: #6d6e71"/>
    <path d="M1023.92,1229.33c-35.67,1.85-308.83,25.42-514.14,25.63h-3c-197.18,0-436-19.46-506.7-25.63" transform="translate(0.31 -940.43)" style="fill: none;stroke: #58595b;stroke-miterlimit: 10;stroke-width: 9px"/>
    <path d="M0.08,1270.9c71.65,6.24,309.85,19.86,506.71,19.86h3c204.76-.21,476.87-13.92,514.13-15.85" transform="translate(0.31 -940.43)" style="fill: none;stroke: #58595b;stroke-miterlimit: 10;stroke-width: 9px"/>
    <path d="M0.08,1319.51c73.26,1.62,306,6.39,499.67,6.39h11.51c205.25-.21,476.79-4.7,512.65-5.3" transform="translate(0.31 -940.43)" style="fill: none;stroke: #58595b;stroke-miterlimit: 10;stroke-width: 9px"/>
    <path d="M0.08,1360.86c74.61,0.19,315.27.74,511.18,0.55,210-.17,487.57,5.16,512.65,5.66" transform="translate(0.31 -940.43)" style="fill: none;stroke: #58595b;stroke-miterlimit: 10;stroke-width: 9px"/>
    <path d="M0.08,1413.28c74.6-3.26,316.66-13.15,512.74-13.35h2.52c197.43,0,457.78,23.22,508.58,27.93" transform="translate(0.31 -940.43)" style="fill: none;stroke: #58595b;stroke-miterlimit: 10;stroke-width: 9px"/>
    <path d="M0.08,1459.15c79.7-6.07,319.9-23.06,512.74-23.25H515c197.52,0,458.28,27.33,509,32.86" transform="translate(0.31 -940.43)" style="fill: none;stroke: #58595b;stroke-miterlimit: 10;stroke-width: 9px"/>
  </g>
  <g id="LIGHTS">
    <g>
      <path id="light" d="M1023.92,965.67a13.61,13.61,0,0,0,0,25v-25Z" transform="translate(0.31 -940.43)" style="fill: #fff"/>
      <path id="light-2" data-name="light" d="M974.58,982.79a13.71,13.71,0,1,1-14.71-12.53,13.66,13.66,0,0,1,14.71,12.53" transform="translate(0.31 -940.43)" style="fill: #fff"/>
      <path id="light-3" data-name="light" d="M842.52,992a13.7,13.7,0,1,1-14.4-12.89A13.66,13.66,0,0,1,842.52,992" transform="translate(0.31 -940.43)" style="fill: #fff"/>
      <path id="light-4" data-name="light" d="M628.75,1084.79a13.91,13.91,0,1,1-14.11-13.41,13.76,13.76,0,0,1,14.11,13.41" transform="translate(0.31 -940.43)" style="fill: #fff"/>
      <path id="light-5" data-name="light" d="M599.72,1000.12a13.7,13.7,0,1,1-13.83-13.49,13.65,13.65,0,0,1,13.83,13.49" transform="translate(0.31 -940.43)" style="fill: #fff"/>
      <path id="light-6" data-name="light" d="M281.27,1122.76a14,14,0,1,1-13.37-14.26,13.81,13.81,0,0,1,13.37,14.26" transform="translate(0.31 -940.43)" style="fill: #fff"/>
      <path id="light-7" data-name="light" d="M481.81,1170.66a14.12,14.12,0,1,1-14-13.76,13.87,13.87,0,0,1,14,13.76" transform="translate(0.31 -940.43)" style="fill: #fff"/>
      <path id="light-8" data-name="light" d="M212.54,1034.5a13.81,13.81,0,1,1-13-14.4,13.71,13.71,0,0,1,13,14.4" transform="translate(0.31 -940.43)" style="fill: #fff"/>
      <path id="light-9" data-name="light" d="M12,1134.16a14.25,14.25,0,0,0-12,4.69v17.68a14.34,14.34,0,0,0,9.53,4.8A13.65,13.65,0,1,0,12,1134.16" transform="translate(0.31 -940.43)" style="fill: #fff"/>
      <path id="light-10" data-name="light" d="M797.6,1164.3a14.12,14.12,0,1,1-14.71-13,13.87,13.87,0,0,1,14.71,13" transform="translate(0.31 -940.43)" style="fill: #fff"/>
      <path id="light-11" data-name="light" d="M560.18,1170.75A14.12,14.12,0,1,1,546,1157.16a13.87,13.87,0,0,1,14.14,13.59" transform="translate(0.31 -940.43)" style="fill: #fff"/>
      <path id="light-12" data-name="light" d="M425.49,999.62a13.7,13.7,0,1,1-13.41-13.9,13.66,13.66,0,0,1,13.41,13.9" transform="translate(0.31 -940.43)" style="fill: #fff"/>
      <path id="light-13" data-name="light" d="M562.16,1128.17a14,14,0,1,1-14-13.59,13.81,13.81,0,0,1,14,13.59" transform="translate(0.31 -940.43)" style="fill: #fff"/>
    </g>
    <path d="M1008.83,980A13.71,13.71,0,1,1,994,967.52,13.66,13.66,0,0,1,1008.83,980" transform="translate(0.31 -940.43)" style="fill: #fff"/>
    <path d="M940.31,985.41a13.7,13.7,0,1,1-14.64-12.62,13.66,13.66,0,0,1,14.64,12.62" transform="translate(0.31 -940.43)" style="fill: #fff"/>
    <path d="M906,987.83a13.7,13.7,0,1,1-14.56-12.71A13.66,13.66,0,0,1,906,987.83" transform="translate(0.31 -940.43)" style="fill: #fff"/>
    <path d="M874.28,990a13.7,13.7,0,1,1-14.48-12.8A13.66,13.66,0,0,1,874.28,990" transform="translate(0.31 -940.43)" style="fill: #fff"/>
    <path d="M798.07,993.81a13.7,13.7,0,1,1-14.32-13,13.66,13.66,0,0,1,14.32,13" transform="translate(0.31 -940.43)" style="fill: #fff"/>
    <path d="M766.29,995.38a13.7,13.7,0,1,1-14.24-13.06,13.66,13.66,0,0,1,14.24,13.06" transform="translate(0.31 -940.43)" style="fill: #fff"/>
    <path d="M734.51,996.75a13.7,13.7,0,1,1-14.16-13.15,13.66,13.66,0,0,1,14.16,13.15" transform="translate(0.31 -940.43)" style="fill: #fff"/>
    <path d="M700.19,997.91a13.7,13.7,0,1,1-14.08-13.23,13.66,13.66,0,0,1,14.08,13.23" transform="translate(0.31 -940.43)" style="fill: #fff"/>
    <path d="M665.86,998.85a13.7,13.7,0,1,1-14-13.32,13.66,13.66,0,0,1,14,13.32" transform="translate(0.31 -940.43)" style="fill: #fff"/>
    <path d="M631.52,999.59a13.7,13.7,0,1,1-13.91-13.4,13.66,13.66,0,0,1,13.91,13.4" transform="translate(0.31 -940.43)" style="fill: #fff"/>
    <path d="M567.92,1000.44a13.7,13.7,0,1,1-13.75-13.57,13.66,13.66,0,0,1,13.75,13.57" transform="translate(0.31 -940.43)" style="fill: #fff"/>
    <path d="M523.43,1000.55a13.7,13.7,0,1,1-13.67-13.66,13.66,13.66,0,0,1,13.67,13.66" transform="translate(0.31 -940.43)" style="fill: #fff"/>
    <path d="M491.62,1000.45A13.7,13.7,0,1,1,478,986.71a13.66,13.66,0,0,1,13.58,13.74" transform="translate(0.31 -940.43)" style="fill: #fff"/>
    <path d="M459.82,1000.14a13.7,13.7,0,1,1-13.5-13.82,13.66,13.66,0,0,1,13.5,13.82" transform="translate(0.31 -940.43)" style="fill: #fff"/>
    <path d="M391.15,998.89a13.7,13.7,0,1,1-13.33-14,13.66,13.66,0,0,1,13.33,14" transform="translate(0.31 -940.43)" style="fill: #fff"/>
    <path d="M356.82,998a13.7,13.7,0,1,1-13.24-14.07A13.66,13.66,0,0,1,356.82,998" transform="translate(0.31 -940.43)" style="fill: #fff"/>
    <path d="M325,996.81a13.7,13.7,0,1,1-13.16-14.15A13.66,13.66,0,0,1,325,996.81" transform="translate(0.31 -940.43)" style="fill: #fff"/>
    <path d="M293.25,995.45a13.7,13.7,0,1,1-13.07-14.23,13.66,13.66,0,0,1,13.07,14.23" transform="translate(0.31 -940.43)" style="fill: #fff"/>
    <path d="M248.78,993.89a13.7,13.7,0,1,1-13-14.31,13.66,13.66,0,0,1,13,14.31" transform="translate(0.31 -940.43)" style="fill: #fff"/>
    <path d="M217,992.11a13.7,13.7,0,1,1-12.9-14.39A13.66,13.66,0,0,1,217,992.11" transform="translate(0.31 -940.43)" style="fill: #fff"/>
    <path d="M185.25,990.13a13.7,13.7,0,1,1-12.81-14.46,13.66,13.66,0,0,1,12.81,14.46" transform="translate(0.31 -940.43)" style="fill: #fff"/>
    <path d="M151,987.93a13.7,13.7,0,1,1-12.73-14.54A13.66,13.66,0,0,1,151,987.93" transform="translate(0.31 -940.43)" style="fill: #fff"/>
    <path d="M116.69,985.53a13.71,13.71,0,1,1-12.64-14.62,13.66,13.66,0,0,1,12.64,14.62" transform="translate(0.31 -940.43)" style="fill: #fff"/>
    <path d="M82.42,982.92a13.71,13.71,0,1,1-12.55-14.7,13.66,13.66,0,0,1,12.55,14.7" transform="translate(0.31 -940.43)" style="fill: #fff"/>
    <path d="M48.17,980.1a13.71,13.71,0,1,1-12.46-14.77A13.66,13.66,0,0,1,48.17,980.1" transform="translate(0.31 -940.43)" style="fill: #fff"/>
    <path d="M1.56,962.22a14.4,14.4,0,0,0-1.47-.06v27.27a13.65,13.65,0,0,0,13.85-12.36A13.69,13.69,0,0,0,1.56,962.22" transform="translate(0.31 -940.43)" style="fill: #fff"/>
    <path d="M1023.92,1009.1a13.53,13.53,0,0,0,0,23.32V1009.1Z" transform="translate(0.31 -940.43)" style="fill: #fff"/>
    <path d="M1010.32,1022.55a13.81,13.81,0,1,1-14.89-12.44,13.71,13.71,0,0,1,14.89,12.44" transform="translate(0.31 -940.43)" style="fill: #fff"/>
    <path d="M975.81,1025.39A13.81,13.81,0,1,1,961,1012.87a13.71,13.71,0,0,1,14.81,12.53" transform="translate(0.31 -940.43)" style="fill: #fff"/>
    <path d="M941.28,1028a13.81,13.81,0,1,1-14.73-12.62A13.71,13.71,0,0,1,941.28,1028" transform="translate(0.31 -940.43)" style="fill: #fff"/>
    <path d="M906.74,1030.44a13.81,13.81,0,1,1-14.65-12.71,13.71,13.71,0,0,1,14.65,12.71" transform="translate(0.31 -940.43)" style="fill: #fff"/>
    <path d="M874.73,1032.65a13.81,13.81,0,1,1-14.57-12.8,13.71,13.71,0,0,1,14.57,12.8" transform="translate(0.31 -940.43)" style="fill: #fff"/>
    <path d="M842.72,1034.65a13.8,13.8,0,1,1-14.5-12.89,13.71,13.71,0,0,1,14.5,12.89" transform="translate(0.31 -940.43)" style="fill: #fff"/>
    <path d="M798,1036.43a13.8,13.8,0,1,1-14.42-13,13.71,13.71,0,0,1,14.42,13" transform="translate(0.31 -940.43)" style="fill: #fff"/>
    <path d="M766,1038a13.8,13.8,0,1,1-14.34-13.06A13.71,13.71,0,0,1,766,1038" transform="translate(0.31 -940.43)" style="fill: #fff"/>
    <path d="M733.92,1039.37a13.8,13.8,0,1,1-14.26-13.15,13.71,13.71,0,0,1,14.26,13.15" transform="translate(0.31 -940.43)" style="fill: #fff"/>
    <path d="M699.34,1040.52a13.8,13.8,0,1,1-14.17-13.24,13.71,13.71,0,0,1,14.17,13.24" transform="translate(0.31 -940.43)" style="fill: #fff"/>
    <path d="M664.74,1041.46a13.8,13.8,0,1,1-14.09-13.32,13.71,13.71,0,0,1,14.09,13.32" transform="translate(0.31 -940.43)" style="fill: #fff"/>
    <path d="M630.15,1042.19a13.8,13.8,0,1,1-14-13.41,13.71,13.71,0,0,1,14,13.41" transform="translate(0.31 -940.43)" style="fill: #fff"/>
    <path d="M598.09,1042.71a13.8,13.8,0,1,1-13.93-13.49,13.7,13.7,0,0,1,13.93,13.49" transform="translate(0.31 -940.43)" style="fill: #fff"/>
    <path d="M566,1043a13.8,13.8,0,1,1-13.85-13.58A13.71,13.71,0,0,1,566,1043" transform="translate(0.31 -940.43)" style="fill: #fff"/>
    <path d="M521.28,1043.12a13.8,13.8,0,1,1-13.76-13.66,13.71,13.71,0,0,1,13.76,13.66" transform="translate(0.31 -940.43)" style="fill: #fff"/>
    <path d="M489.22,1043a13.8,13.8,0,1,1-13.68-13.74A13.71,13.71,0,0,1,489.22,1043" transform="translate(0.31 -940.43)" style="fill: #fff"/>
    <path d="M457.16,1042.68a13.8,13.8,0,1,1-13.6-13.83,13.71,13.71,0,0,1,13.6,13.83" transform="translate(0.31 -940.43)" style="fill: #fff"/>
    <path d="M422.56,1042.14A13.8,13.8,0,1,1,409,1028.23a13.71,13.71,0,0,1,13.51,13.91" transform="translate(0.31 -940.43)" style="fill: #fff"/>
    <path d="M388,1041.39a13.8,13.8,0,1,1-13.43-14,13.71,13.71,0,0,1,13.43,14" transform="translate(0.31 -940.43)" style="fill: #fff"/>
    <path d="M353.37,1040.44A13.8,13.8,0,1,1,340,1026.36a13.71,13.71,0,0,1,13.34,14.07" transform="translate(0.31 -940.43)" style="fill: #fff"/>
    <path d="M321.33,1039.27a13.8,13.8,0,1,1-13.26-14.16,13.71,13.71,0,0,1,13.26,14.16" transform="translate(0.31 -940.43)" style="fill: #fff"/>
    <path d="M289.29,1037.89a13.8,13.8,0,1,1-13.17-14.24,13.71,13.71,0,0,1,13.17,14.24" transform="translate(0.31 -940.43)" style="fill: #fff"/>
    <path d="M244.56,1036.3A13.8,13.8,0,1,1,231.48,1022a13.71,13.71,0,0,1,13.08,14.32" transform="translate(0.31 -940.43)" style="fill: #fff"/>
    <path d="M180.52,1032.48A13.81,13.81,0,1,1,167.61,1018a13.71,13.71,0,0,1,12.91,14.48" transform="translate(0.31 -940.43)" style="fill: #fff"/>
    <path d="M146,1030.26a13.81,13.81,0,1,1-12.82-14.55A13.71,13.71,0,0,1,146,1030.26" transform="translate(0.31 -940.43)" style="fill: #fff"/>
    <path d="M111.44,1027.83a13.81,13.81,0,1,1-12.74-14.63,13.71,13.71,0,0,1,12.74,14.63" transform="translate(0.31 -940.43)" style="fill: #fff"/>
    <path d="M76.91,1025.18a13.81,13.81,0,1,1-12.65-14.71,13.71,13.71,0,0,1,12.65,14.71" transform="translate(0.31 -940.43)" style="fill: #fff"/>
    <path d="M42.4,1022.32a13.81,13.81,0,1,1-12.56-14.79,13.71,13.71,0,0,1,12.56,14.79" transform="translate(0.31 -940.43)" style="fill: #fff"/>
    <path d="M0.08,1005.69v24.61a13.56,13.56,0,0,0,7.82-11,13.67,13.67,0,0,0-7.82-13.57" transform="translate(0.31 -940.43)" style="fill: #fff"/>
    <path d="M1023.92,1052.77a13.58,13.58,0,0,0-5.11,11.78,13.43,13.43,0,0,0,5.11,9.41v-21.19Z" transform="translate(0.31 -940.43)" style="fill: #fff"/>
    <path d="M1011.78,1065.15a13.92,13.92,0,1,1-15-12.43,13.77,13.77,0,0,1,15,12.43" transform="translate(0.31 -940.43)" style="fill: #fff"/>
    <path d="M977,1068a13.92,13.92,0,1,1-14.91-12.52A13.77,13.77,0,0,1,977,1068" transform="translate(0.31 -940.43)" style="fill: #fff"/>
    <path d="M942.22,1070.64A13.91,13.91,0,1,1,927.39,1058a13.77,13.77,0,0,1,14.83,12.62" transform="translate(0.31 -940.43)" style="fill: #fff"/>
    <path d="M907.42,1073.06a13.91,13.91,0,1,1-14.75-12.71,13.76,13.76,0,0,1,14.75,12.71" transform="translate(0.31 -940.43)" style="fill: #fff"/>
    <path d="M875.16,1075.27a13.91,13.91,0,1,1-14.68-12.8,13.76,13.76,0,0,1,14.68,12.8" transform="translate(0.31 -940.43)" style="fill: #fff"/>
    <path d="M842.88,1077.27a13.91,13.91,0,1,1-14.6-12.89,13.76,13.76,0,0,1,14.6,12.89" transform="translate(0.31 -940.43)" style="fill: #fff"/>
    <path d="M797.9,1079.05a13.91,13.91,0,1,1-14.52-13,13.76,13.76,0,0,1,14.52,13" transform="translate(0.31 -940.43)" style="fill: #fff"/>
    <path d="M765.6,1080.62a13.91,13.91,0,1,1-14.44-13.06,13.76,13.76,0,0,1,14.44,13.06" transform="translate(0.31 -940.43)" style="fill: #fff"/>
    <path d="M733.3,1082a13.91,13.91,0,1,1-14.35-13.15A13.76,13.76,0,0,1,733.3,1082" transform="translate(0.31 -940.43)" style="fill: #fff"/>
    <path d="M698.46,1083.13a13.91,13.91,0,1,1-14.27-13.24,13.76,13.76,0,0,1,14.27,13.24" transform="translate(0.31 -940.43)" style="fill: #fff"/>
    <path d="M663.61,1084.07a13.91,13.91,0,1,1-14.19-13.32,13.76,13.76,0,0,1,14.19,13.32" transform="translate(0.31 -940.43)" style="fill: #fff"/>
    <path d="M596.43,1085.3a13.91,13.91,0,1,1-14-13.5,13.76,13.76,0,0,1,14,13.5" transform="translate(0.31 -940.43)" style="fill: #fff"/>
    <path d="M564.11,1085.6A13.91,13.91,0,1,1,550.17,1072a13.76,13.76,0,0,1,13.94,13.58" transform="translate(0.31 -940.43)" style="fill: #fff"/>
    <path d="M519.1,1085.68A13.91,13.91,0,1,1,505.24,1072a13.76,13.76,0,0,1,13.86,13.67" transform="translate(0.31 -940.43)" style="fill: #fff"/>
    <path d="M486.78,1085.55A13.91,13.91,0,1,1,473,1071.8a13.76,13.76,0,0,1,13.78,13.75" transform="translate(0.31 -940.43)" style="fill: #fff"/>
    <path d="M454.46,1085.21a13.91,13.91,0,1,1-13.69-13.83,13.76,13.76,0,0,1,13.69,13.83" transform="translate(0.31 -940.43)" style="fill: #fff"/>
    <path d="M419.6,1084.66A13.91,13.91,0,1,1,406,1070.74a13.76,13.76,0,0,1,13.61,13.92" transform="translate(0.31 -940.43)" style="fill: #fff"/>
    <path d="M384.75,1083.89a13.91,13.91,0,1,1-13.53-14,13.76,13.76,0,0,1,13.53,14" transform="translate(0.31 -940.43)" style="fill: #fff"/>
    <path d="M349.9,1082.92a13.91,13.91,0,1,1-13.44-14.08,13.76,13.76,0,0,1,13.44,14.08" transform="translate(0.31 -940.43)" style="fill: #fff"/>
    <path d="M317.59,1081.73a13.91,13.91,0,1,1-13.35-14.17,13.76,13.76,0,0,1,13.35,14.17" transform="translate(0.31 -940.43)" style="fill: #fff"/>
    <path d="M285.29,1080.32A13.91,13.91,0,1,1,272,1066.08a13.76,13.76,0,0,1,13.27,14.25" transform="translate(0.31 -940.43)" style="fill: #fff"/>
    <path d="M240.31,1078.71a13.91,13.91,0,1,1-13.18-14.33,13.76,13.76,0,0,1,13.18,14.33" transform="translate(0.31 -940.43)" style="fill: #fff"/>
    <path d="M208,1076.88a13.91,13.91,0,1,1-13.1-14.41,13.76,13.76,0,0,1,13.1,14.41" transform="translate(0.31 -940.43)" style="fill: #fff"/>
    <path d="M175.75,1074.84a13.91,13.91,0,1,1-13-14.49,13.76,13.76,0,0,1,13,14.49" transform="translate(0.31 -940.43)" style="fill: #fff"/>
    <path d="M140.94,1072.59A13.91,13.91,0,1,1,128,1058a13.76,13.76,0,0,1,12.92,14.57" transform="translate(0.31 -940.43)" style="fill: #fff"/>
    <path d="M106.15,1070.12a13.92,13.92,0,1,1-12.83-14.64,13.76,13.76,0,0,1,12.83,14.64" transform="translate(0.31 -940.43)" style="fill: #fff"/>
    <path d="M71.37,1067.44a13.92,13.92,0,1,1-12.75-14.72,13.76,13.76,0,0,1,12.75,14.72" transform="translate(0.31 -940.43)" style="fill: #fff"/>
    <path d="M36.6,1064.55a13.77,13.77,0,0,1-15.07,12.38,13.64,13.64,0,1,1,2.41-27.18,13.79,13.79,0,0,1,12.66,14.8" transform="translate(0.31 -940.43)" style="fill: #fff"/>
    <path d="M1023.92,1096.8a13.46,13.46,0,0,0-3.63,10.35,13.3,13.3,0,0,0,3.63,8V1096.8Z" transform="translate(0.31 -940.43)" style="fill: #fff"/>
    <path d="M1013.2,1107.75a14,14,0,1,1-15.09-12.43,13.82,13.82,0,0,1,15.09,12.43" transform="translate(0.31 -940.43)" style="fill: #fff"/>
    <path d="M978.17,1110.61a14,14,0,1,1-15-12.52,13.82,13.82,0,0,1,15,12.52" transform="translate(0.31 -940.43)" style="fill: #fff"/>
    <path d="M943.13,1113.25a14,14,0,1,1-14.93-12.61,13.82,13.82,0,0,1,14.93,12.61" transform="translate(0.31 -940.43)" style="fill: #fff"/>
    <path d="M908.07,1115.68A14,14,0,1,1,893.22,1103a13.82,13.82,0,0,1,14.85,12.71" transform="translate(0.31 -940.43)" style="fill: #fff"/>
    <path d="M875.54,1117.89a14,14,0,1,1-14.77-12.8,13.82,13.82,0,0,1,14.77,12.8" transform="translate(0.31 -940.43)" style="fill: #fff"/>
    <path d="M843,1119.89A14,14,0,1,1,828.31,1107,13.82,13.82,0,0,1,843,1119.89" transform="translate(0.31 -940.43)" style="fill: #fff"/>
    <path d="M797.77,1121.67a14,14,0,1,1-14.61-13,13.82,13.82,0,0,1,14.61,13" transform="translate(0.31 -940.43)" style="fill: #fff"/>
    <path d="M765.21,1123.25a14,14,0,1,1-14.53-13.06,13.81,13.81,0,0,1,14.53,13.06" transform="translate(0.31 -940.43)" style="fill: #fff"/>
    <path d="M732.65,1124.6a14,14,0,1,1-14.45-13.15,13.82,13.82,0,0,1,14.45,13.15" transform="translate(0.31 -940.43)" style="fill: #fff"/>
    <path d="M697.54,1125.75a14,14,0,1,1-14.37-13.24,13.81,13.81,0,0,1,14.37,13.24" transform="translate(0.31 -940.43)" style="fill: #fff"/>
    <path d="M662.43,1126.67a14,14,0,1,1-14.29-13.33,13.81,13.81,0,0,1,14.29,13.33" transform="translate(0.31 -940.43)" style="fill: #fff"/>
    <path d="M627.32,1127.39A14,14,0,1,1,613.11,1114a13.81,13.81,0,0,1,14.21,13.41" transform="translate(0.31 -940.43)" style="fill: #fff"/>
    <path d="M594.74,1127.89a14,14,0,1,1-14.12-13.5,13.81,13.81,0,0,1,14.13,13.5" transform="translate(0.31 -940.43)" style="fill: #fff"/>
    <path d="M516.89,1128.25a14,14,0,1,1-14-13.67,13.81,13.81,0,0,1,14,13.67" transform="translate(0.31 -940.43)" style="fill: #fff"/>
    <path d="M484.31,1128.1a14,14,0,1,1-13.88-13.76,13.81,13.81,0,0,1,13.88,13.76" transform="translate(0.31 -940.43)" style="fill: #fff"/>
    <path d="M451.73,1127.75a14,14,0,1,1-13.79-13.84,13.81,13.81,0,0,1,13.79,13.84" transform="translate(0.31 -940.43)" style="fill: #fff"/>
    <path d="M416.61,1127.18a14,14,0,1,1-13.71-13.92,13.81,13.81,0,0,1,13.71,13.92" transform="translate(0.31 -940.43)" style="fill: #fff"/>
    <path d="M381.5,1126.39a14,14,0,1,1-13.62-14,13.81,13.81,0,0,1,13.62,14" transform="translate(0.31 -940.43)" style="fill: #fff"/>
    <path d="M346.39,1125.4a14,14,0,1,1-13.54-14.09,13.81,13.81,0,0,1,13.54,14.09" transform="translate(0.31 -940.43)" style="fill: #fff"/>
    <path d="M313.83,1124.18A14,14,0,1,1,300.37,1110a13.81,13.81,0,0,1,13.45,14.17" transform="translate(0.31 -940.43)" style="fill: #fff"/>
    <path d="M236,1121.11a14,14,0,1,1-13.28-14.34A13.82,13.82,0,0,1,236,1121.11" transform="translate(0.31 -940.43)" style="fill: #fff"/>
    <path d="M203.48,1119.26a14,14,0,1,1-13.19-14.42,13.82,13.82,0,0,1,13.19,14.42" transform="translate(0.31 -940.43)" style="fill: #fff"/>
    <path d="M170.95,1117.19a14,14,0,1,1-13.11-14.5,13.82,13.82,0,0,1,13.11,14.5" transform="translate(0.31 -940.43)" style="fill: #fff"/>
    <path d="M135.88,1114.91a14,14,0,1,1-13-14.58,13.82,13.82,0,0,1,13,14.58" transform="translate(0.31 -940.43)" style="fill: #fff"/>
    <path d="M100.83,1112.41a14,14,0,1,1-12.93-14.66,13.82,13.82,0,0,1,12.93,14.66" transform="translate(0.31 -940.43)" style="fill: #fff"/>
    <path d="M65.79,1109.7A14,14,0,1,1,52.94,1095a13.82,13.82,0,0,1,12.84,14.74" transform="translate(0.31 -940.43)" style="fill: #fff"/>
    <path d="M30.76,1106.77a13.82,13.82,0,0,1-15.18,12.36A13.65,13.65,0,1,1,18,1092a13.85,13.85,0,0,1,12.76,14.81" transform="translate(0.31 -940.43)" style="fill: #fff"/>
    <path d="M1023.92,1141.27a13.3,13.3,0,0,0-2.18,8.47,13.17,13.17,0,0,0,2.18,6.21v-14.69Z" transform="translate(0.31 -940.43)" style="fill: #fff"/>
    <path d="M1014.6,1150.35a14.13,14.13,0,1,1-15.19-12.43,13.87,13.87,0,0,1,15.19,12.43" transform="translate(0.31 -940.43)" style="fill: #fff"/>
    <path d="M979.3,1153.22a14.13,14.13,0,1,1-15.11-12.52,13.87,13.87,0,0,1,15.11,12.52" transform="translate(0.31 -940.43)" style="fill: #fff"/>
    <path d="M944,1155.86a14.13,14.13,0,1,1-15-12.61,13.87,13.87,0,0,1,15,12.61" transform="translate(0.31 -940.43)" style="fill: #fff"/>
    <path d="M908.68,1158.3a14.13,14.13,0,1,1-15-12.7,13.87,13.87,0,0,1,15,12.7" transform="translate(0.31 -940.43)" style="fill: #fff"/>
    <path d="M875.89,1160.51A14.12,14.12,0,1,1,861,1147.72a13.87,13.87,0,0,1,14.87,12.79" transform="translate(0.31 -940.43)" style="fill: #fff"/>
    <path d="M843.1,1162.51a14.12,14.12,0,1,1-14.79-12.89,13.87,13.87,0,0,1,14.79,12.89" transform="translate(0.31 -940.43)" style="fill: #fff"/>
    <path d="M764.79,1165.87a14.12,14.12,0,1,1-14.63-13.07,13.87,13.87,0,0,1,14.63,13.07" transform="translate(0.31 -940.43)" style="fill: #fff"/>
    <path d="M732,1167.22a14.12,14.12,0,1,1-14.55-13.15A13.87,13.87,0,0,1,732,1167.22" transform="translate(0.31 -940.43)" style="fill: #fff"/>
    <path d="M696.6,1168.36a14.12,14.12,0,1,1-14.47-13.24,13.87,13.87,0,0,1,14.47,13.24" transform="translate(0.31 -940.43)" style="fill: #fff"/>
    <path d="M661.23,1169.28a14.12,14.12,0,1,1-14.39-13.33,13.87,13.87,0,0,1,14.39,13.33" transform="translate(0.31 -940.43)" style="fill: #fff"/>
    <path d="M625.86,1170a14.12,14.12,0,1,1-14.31-13.42A13.87,13.87,0,0,1,625.86,1170" transform="translate(0.31 -940.43)" style="fill: #fff"/>
    <path d="M593,1170.48A14.12,14.12,0,1,1,578.79,1157,13.87,13.87,0,0,1,593,1170.48" transform="translate(0.31 -940.43)" style="fill: #fff"/>
    <path d="M514.65,1170.81a14.12,14.12,0,1,1-14.06-13.68,13.87,13.87,0,0,1,14.06,13.68" transform="translate(0.31 -940.43)" style="fill: #fff"/>
    <path d="M449,1170.28a14.12,14.12,0,1,1-13.89-13.85A13.87,13.87,0,0,1,449,1170.28" transform="translate(0.31 -940.43)" style="fill: #fff"/>
    <path d="M413.59,1169.69a14.12,14.12,0,1,1-13.81-13.93,13.87,13.87,0,0,1,13.81,13.93" transform="translate(0.31 -940.43)" style="fill: #fff"/>
    <path d="M378.22,1168.89a14.12,14.12,0,1,1-13.72-14,13.87,13.87,0,0,1,13.72,14" transform="translate(0.31 -940.43)" style="fill: #fff"/>
    <path d="M342.85,1167.87a14.12,14.12,0,1,1-13.64-14.1,13.87,13.87,0,0,1,13.64,14.1" transform="translate(0.31 -940.43)" style="fill: #fff"/>
    <path d="M310,1166.64a14.12,14.12,0,1,1-13.55-14.18A13.87,13.87,0,0,1,310,1166.64" transform="translate(0.31 -940.43)" style="fill: #fff"/>
    <path d="M277.21,1165.19a14.12,14.12,0,1,1-13.47-14.27,13.87,13.87,0,0,1,13.47,14.27" transform="translate(0.31 -940.43)" style="fill: #fff"/>
    <path d="M231.71,1163.52a14.12,14.12,0,1,1-13.38-14.35,13.87,13.87,0,0,1,13.38,14.35" transform="translate(0.31 -940.43)" style="fill: #fff"/>
    <path d="M198.9,1161.64a14.12,14.12,0,1,1-13.29-14.43,13.87,13.87,0,0,1,13.29,14.43" transform="translate(0.31 -940.43)" style="fill: #fff"/>
    <path d="M166.11,1159.54A14.13,14.13,0,1,1,152.91,1145a13.87,13.87,0,0,1,13.21,14.51" transform="translate(0.31 -940.43)" style="fill: #fff"/>
    <path d="M130.79,1157.22a14.13,14.13,0,1,1-13.12-14.59,13.87,13.87,0,0,1,13.12,14.59" transform="translate(0.31 -940.43)" style="fill: #fff"/>
    <path d="M95.48,1154.69a14.13,14.13,0,1,1-13-14.67,13.87,13.87,0,0,1,13,14.67" transform="translate(0.31 -940.43)" style="fill: #fff"/>
    <path d="M60.18,1151.95A13.87,13.87,0,0,1,45,1164.39a13.65,13.65,0,1,1,15.21-12.44" transform="translate(0.31 -940.43)" style="fill: #fff"/>
  </g>
</svg>
