<svg id="Voice" xmlns="http://www.w3.org/2000/svg" viewBox="0 0 484.86 429.06">
  <title>voice</title>
  <g>
    <g>
      <path id="comment" d="M757.93,2245.84c-19.78,9.73-41.42.76-41.42,0.76l-0.42.19a43.35,43.35,0,1,1,19.06-16.44l-0.35.55S737,2241.53,757.93,2245.84Z" transform="translate(-509.78 -2022.22)" style="fill: #fff"/>
      <path id="comment-2" data-name="comment" d="M658.67,2258.41c-14.55,16.56-38,16.56-38,16.56l-0.32.34a43.35,43.35,0,1,1,11.31-22.48l-0.12.64S637.69,2262.44,658.67,2258.41Z" transform="translate(-509.78 -2022.22)" style="fill: #fff"/>
      <path id="comment-3" data-name="comment" d="M585.43,2183.69c-9.71,11.06-25.36,11.06-25.36,11.06l-0.21.23a29,29,0,1,1,7.56-15l-0.08.43S571.42,2186.38,585.43,2183.69Z" transform="translate(-509.78 -2022.22)" style="fill: #fff"/>
      <path id="comment-4" data-name="comment" d="M689.33,2143.54c-29.18,14.36-61.13,1.12-61.13,1.12l-0.62.28a64,64,0,1,1,28.12-24.26l-0.52.81S658.46,2137.19,689.33,2143.54Z" transform="translate(-509.78 -2022.22)" style="fill: #fff"/>
      <path id="comment-5" data-name="comment" d="M747.08,2144.67c-16.31,1.16-28.68-11-28.68-11h-0.34a32.16,32.16,0,1,1,17.69-6l-0.4.28S733.9,2135.86,747.08,2144.67Z" transform="translate(-509.78 -2022.22)" style="fill: #fff"/>
      <path id="comment-6" data-name="comment" d="M643.49,2202.74c-9.24.66-16.25-6.26-16.25-6.26H627a18.23,18.23,0,1,1,10-3.38l-0.22.16S636,2197.75,643.49,2202.74Z" transform="translate(-509.78 -2022.22)" style="fill: #fff"/>
      <path id="comment-7" data-name="comment" d="M665.75,2301.74c-3,8.78-12.06,12.56-12.06,12.56l-0.07.18a18.23,18.23,0,1,1,.76-10.55l0.06,0.27S658.26,2306.69,665.75,2301.74Z" transform="translate(-509.78 -2022.22)" style="fill: #fff"/>
      <path id="comment-8" data-name="comment" d="M754.89,2267.72c0.66,9.24-6.26,16.25-6.26,16.25v0.19a18.23,18.23,0,1,1-3.38-10l0.16,0.22S749.9,2275.18,754.89,2267.72Z" transform="translate(-509.78 -2022.22)" style="fill: #fff"/>
    </g>
    <path d="M960.64,2309.11l0.37-1.7s0.8-4.44,1.65-11.91l0.06,0.07c1,1.12,77.44-192.59-9.82-167,0,0-4.33-36.71-57.72-48.44-74.61-16.4-83.43,51.51-126.42-6.47,0,0-14.59,53.41,30.63,86.14-8.07,10.84-14.15,23.47-18.74,36.46-8.6-2.08-15.44-6.77-20.5.83-6.27,9.43,2.62,17.13,13.92,21.91-1.61,6.91-2.87,13.7-3.86,20.14,0,0,16.21,15,52.72,8.78-17.93,26-55,13.16-55,13.16l-1.26,25-0.17,5.28V2291c-43.76,103-63.62,3.82-63.62,3.82l-1.72.6a57.13,57.13,0,0,1,1.15-7.16c1-4.49,4.21-10.22.32-12.18-3.57-1.81-6.3,3-7.22,1.34-3-5.31-7.82-11.14-15-8.93-6.16,1.89-8.81,6.55-7.85,13.58,1.06,7.75,4.72,10.26,8.25,20.52l-1.82.64c28.81,98.16,77.31,52,85.8,43L763,2402.92H940.06l15.24-69.47c44.63,57.86-31.49,93.1-31.49,93.1l1.24,1.75c-5.11,1-18.57,5-12.17,16.64,7.27,13.27,22.15,1.9,24.2.25l1.42,2C1037.28,2384.63,967.67,2315.69,960.64,2309.11Z" transform="translate(-509.78 -2022.22)" style="fill: #363f43"/>
  </g>
</svg>
